<svg width="600" height="600" version="1.1" xmlns="http://www.w3.org/2000/svg" desc="Created with imagetracer.js version 1.2.6" ><path fill="rgb(251,245,245)" stroke="rgb(251,245,245)" stroke-width="1" opacity="1" d="M 49.5 252 L 45.5 257 L 49.5 252 Z " /><path fill="rgb(251,245,245)" stroke="rgb(251,245,245)" stroke-width="1" opacity="1" d="M 54.5 253 L 53.5 255 L 54.5 253 Z " /><path fill="rgb(251,245,245)" stroke="rgb(251,245,245)" stroke-width="1" opacity="1" d="M 127.5 259 L 129.5 262 L 127.5 259 Z " /><path fill="rgb(251,245,245)" stroke="rgb(251,245,245)" stroke-width="1" opacity="1" d="M 133.5 265 L 134.5 267 L 133.5 265 Z " /><path fill="rgb(251,245,245)" stroke="rgb(251,245,245)" stroke-width="1" opacity="1" d="M 194.5 267 L 191.5 271 L 194.5 267 Z " /><path fill="rgb(251,245,245)" stroke="rgb(251,245,245)" stroke-width="1" opacity="1" d="M 242.5 270 L 245 270.5 L 242.5 271 L 242.5 270 Z " /><path fill="rgb(251,245,245)" stroke="rgb(251,245,245)" stroke-width="1" opacity="1" d="M 388.5 270 L 391 270.5 L 388.5 271 L 388.5 270 Z " /><path fill="rgb(251,245,245)" stroke="rgb(251,245,245)" stroke-width="1" opacity="1" d="M 402.5 270 L 405 270.5 L 402.5 271 L 402.5 270 Z " /><path fill="rgb(251,245,245)" stroke="rgb(251,245,245)" stroke-width="1" opacity="1" d="M 327.5 272 L 334 272.5 L 327.5 273 L 327.5 272 Z " /><path fill="rgb(251,245,245)" stroke="rgb(251,245,245)" stroke-width="1" opacity="1" d="M 354.5 272 L 367 272.5 L 354.5 273 L 354.5 272 Z " /><path fill="rgb(251,245,245)" stroke="rgb(251,245,245)" stroke-width="1" opacity="1" d="M 268.5 274 L 271.5 278 L 268.5 274 Z " /><path fill="rgb(251,245,245)" stroke="rgb(251,245,245)" stroke-width="1" opacity="1" d="M 447.5 274 L 449.5 277 L 447.5 274 Z " /><path fill="rgb(251,245,245)" stroke="rgb(251,245,245)" stroke-width="1" opacity="1" d="M 415.5 275 L 414.5 277 L 415.5 275 Z " /><path fill="rgb(251,245,245)" stroke="rgb(251,245,245)" stroke-width="1" opacity="1" d="M 241.5 283 L 244 283.5 L 241.5 284 L 241.5 283 Z " /><path fill="rgb(251,245,245)" stroke="rgb(251,245,245)" stroke-width="1" opacity="1" d="M 308.5 283 L 314 283.5 L 308.5 284 L 308.5 283 Z " /><path fill="rgb(251,245,245)" stroke="rgb(251,245,245)" stroke-width="1" opacity="1" d="M 395.5 283 L 399 283.5 L 395.5 284 L 395.5 283 Z " /><path fill="rgb(251,245,245)" stroke="rgb(251,245,245)" stroke-width="1" opacity="1" d="M 430.5 283 L 433 283.5 L 430.5 284 L 430.5 283 Z " /><path fill="rgb(251,245,245)" stroke="rgb(251,245,245)" stroke-width="1" opacity="1" d="M 252.5 284 L 253.5 286 L 252.5 284 Z " /><path fill="rgb(251,245,245)" stroke="rgb(251,245,245)" stroke-width="1" opacity="1" d="M 325.5 284 L 329 284.5 L 325.5 285 L 325.5 284 Z " /><path fill="rgb(251,245,245)" stroke="rgb(251,245,245)" stroke-width="1" opacity="1" d="M 350.5 284 L 363 284.5 L 350.5 285 L 350.5 284 Z " /><path fill="rgb(251,245,245)" stroke="rgb(251,245,245)" stroke-width="1" opacity="1" d="M 301.5 285 L 299.5 288 L 301.5 285 Z " /><path fill="rgb(251,245,245)" stroke="rgb(251,245,245)" stroke-width="1" opacity="1" d="M 404.5 287 L 403.5 289 L 404.5 287 Z " /><path fill="rgb(251,245,245)" stroke="rgb(251,245,245)" stroke-width="1" opacity="1" d="M 88.5 288 Q 92.3 287.3 93 289.5 L 92.5 291 L 92 289 Q 87.6 290 88.5 288 Z " /><path fill="rgb(251,245,245)" stroke="rgb(251,245,245)" stroke-width="1" opacity="1" d="M 95.5 288 L 145 288.5 L 95.5 289 L 95.5 288 Z " /><path fill="rgb(251,245,245)" stroke="rgb(251,245,245)" stroke-width="1" opacity="1" d="M 67.5 289 L 70 289.5 L 67.5 290 L 67.5 289 Z " /><path fill="rgb(251,245,245)" stroke="rgb(251,245,245)" stroke-width="1" opacity="1" d="M 77.5 289 L 80 289.5 L 77.5 290 L 77.5 289 Z " /><path fill="rgb(251,245,245)" stroke="rgb(251,245,245)" stroke-width="1" opacity="1" d="M 197.5 289 L 200 290.5 L 198.5 291 L 197.5 289 Z " /><path fill="rgb(251,245,245)" stroke="rgb(251,245,245)" stroke-width="1" opacity="1" d="M 105 290 Q 108 289 107 292 Q 104 293 105 290 Z " /><path fill="rgb(251,245,245)" stroke="rgb(251,245,245)" stroke-width="1" opacity="1" d="M 116 290 Q 119 289 118 292 Q 115 293 116 290 Z " /><path fill="rgb(251,245,245)" stroke="rgb(251,245,245)" stroke-width="1" opacity="1" d="M 273.5 290 L 274 292.5 L 273 292.5 L 273.5 290 Z " /><path fill="rgb(251,245,245)" stroke="rgb(251,245,245)" stroke-width="1" opacity="1" d="M 80.5 291 L 84 292.5 L 81.5 293 L 80.5 291 Z " /><path fill="rgb(251,245,245)" stroke="rgb(251,245,245)" stroke-width="1" opacity="1" d="M 145.5 292 L 146 294.5 L 145 294.5 L 145.5 292 Z " /><path fill="rgb(251,245,245)" stroke="rgb(251,245,245)" stroke-width="1" opacity="1" d="M 43.5 294 L 44 296.5 L 43 296.5 L 43.5 294 Z " /><path fill="rgb(251,245,245)" stroke="rgb(251,245,245)" stroke-width="1" opacity="1" d="M 85.5 295 L 90 295.5 L 84.5 297 L 85.5 295 Z " /><path fill="rgb(251,245,245)" stroke="rgb(251,245,245)" stroke-width="1" opacity="1" d="M 453.5 295 L 454 297.5 L 453 297.5 L 453.5 295 Z " /><path fill="rgb(251,245,245)" stroke="rgb(251,245,245)" stroke-width="1" opacity="1" d="M 33.5 297 L 34 301.5 L 33 301.5 L 33.5 297 Z " /><path fill="rgb(251,245,245)" stroke="rgb(251,245,245)" stroke-width="1" opacity="1" d="M 68.5 297 L 69 298.5 L 68.5 301 L 65 299.5 L 68 299 L 68.5 297 Z " /><path fill="rgb(251,245,245)" stroke="rgb(251,245,245)" stroke-width="1" opacity="1" d="M 78.5 297 L 79 298.5 L 77.5 301 L 75 299.5 L 78 299 L 78.5 297 Z " /><path fill="rgb(251,245,245)" stroke="rgb(251,245,245)" stroke-width="1" opacity="1" d="M 103 297 Q 106 296 105 299 Q 102 300 103 297 Z " /><path fill="rgb(251,245,245)" stroke="rgb(251,245,245)" stroke-width="1" opacity="1" d="M 114 297 Q 117 296 116 299 Q 113 300 114 297 Z " /><path fill="rgb(251,245,245)" stroke="rgb(251,245,245)" stroke-width="1" opacity="1" d="M 84.5 299 L 83.5 301 L 84.5 299 Z " /><path fill="rgb(251,245,245)" stroke="rgb(251,245,245)" stroke-width="1" opacity="1" d="M 71.5 300 L 72.5 302 L 71.5 300 Z " /><path fill="rgb(251,245,245)" stroke="rgb(251,245,245)" stroke-width="1" opacity="1" d="M 94.5 301 L 98.5 302 L 100 301.5 Q 99.3 303.8 95.5 303 L 94.5 301 Z " /><path fill="rgb(251,245,245)" stroke="rgb(251,245,245)" stroke-width="1" opacity="1" d="M 43.5 302 L 44 304.5 L 43 304.5 L 43.5 302 Z " /><path fill="rgb(251,245,245)" stroke="rgb(251,245,245)" stroke-width="1" opacity="1" d="M 83.5 302 L 82.5 304 L 78 303.5 L 83.5 302 Z " /><path fill="rgb(251,245,245)" stroke="rgb(251,245,245)" stroke-width="1" opacity="1" d="M 145.5 302 L 146 304.5 L 145 304.5 L 145.5 302 Z " /><path fill="rgb(251,245,245)" stroke="rgb(251,245,245)" stroke-width="1" opacity="1" d="M 66.5 305 L 65.5 307 L 66.5 305 Z " /><path fill="rgb(251,245,245)" stroke="rgb(251,245,245)" stroke-width="1" opacity="1" d="M 76.5 305 L 75.5 307 L 76.5 305 Z " /><path fill="rgb(251,245,245)" stroke="rgb(251,245,245)" stroke-width="1" opacity="1" d="M 100.5 305 L 103 305.5 L 100.5 306 L 100.5 305 Z " /><path fill="rgb(251,245,245)" stroke="rgb(251,245,245)" stroke-width="1" opacity="1" d="M 87.5 306 L 86.5 308 L 87.5 306 Z " /><path fill="rgb(251,245,245)" stroke="rgb(251,245,245)" stroke-width="1" opacity="1" d="M 282.5 306 L 293.5 318 L 282.5 306 Z " /><path fill="rgb(251,245,245)" stroke="rgb(251,245,245)" stroke-width="1" opacity="1" d="M 310.5 307 L 311.5 309 L 310.5 307 Z " /><path fill="rgb(251,245,245)" stroke="rgb(251,245,245)" stroke-width="1" opacity="1" d="M 216.5 312 L 215.5 314 L 216.5 312 Z " /><path fill="rgb(251,245,245)" stroke="rgb(251,245,245)" stroke-width="1" opacity="1" d="M 236.5 314 L 235.5 316 L 236.5 314 Z " /><path fill="rgb(251,245,245)" stroke="rgb(251,245,245)" stroke-width="1" opacity="1" d="M 314.5 316 L 315 322.5 L 314 322.5 L 314.5 316 Z " /><path fill="rgb(251,245,245)" stroke="rgb(251,245,245)" stroke-width="1" opacity="1" d="M 153.5 318 L 154 322.5 L 153 322.5 L 153.5 318 Z " /><path fill="rgb(251,245,245)" stroke="rgb(251,245,245)" stroke-width="1" opacity="1" d="M 392.5 318 L 393 327.5 L 392 327.5 L 392.5 318 Z " /><path fill="rgb(251,245,245)" stroke="rgb(251,245,245)" stroke-width="1" opacity="1" d="M 412.5 324 L 413 328.5 L 412 328.5 L 412.5 324 Z " /><path fill="rgb(251,245,245)" stroke="rgb(251,245,245)" stroke-width="1" opacity="1" d="M 472.5 324 L 473 327.5 L 472 327.5 L 472.5 324 Z " /><path fill="rgb(251,245,245)" stroke="rgb(251,245,245)" stroke-width="1" opacity="1" d="M 185.5 326 L 184.5 328 L 185.5 326 Z " /><path fill="rgb(251,245,245)" stroke="rgb(251,245,245)" stroke-width="1" opacity="1" d="M 452.5 326 L 453 332.5 L 452 332.5 L 452.5 326 Z " /><path fill="rgb(251,245,245)" stroke="rgb(251,245,245)" stroke-width="1" opacity="1" d="M 293.5 327 L 292.5 329 L 293.5 327 Z " /><path fill="rgb(251,245,245)" stroke="rgb(251,245,245)" stroke-width="1" opacity="1" d="M 278.5 330 L 282 330.5 L 278.5 331 L 278.5 330 Z " /><path fill="rgb(251,245,245)" stroke="rgb(251,245,245)" stroke-width="1" opacity="1" d="M 342.5 330 L 351 330.5 L 342.5 331 L 342.5 330 Z " /><path fill="rgb(251,245,245)" stroke="rgb(251,245,245)" stroke-width="1" opacity="1" d="M 476.5 330 L 485 330.5 L 476.5 331 L 476.5 330 Z " /><path fill="rgb(251,245,245)" stroke="rgb(251,245,245)" stroke-width="1" opacity="1" d="M 133.5 333 L 128.5 339 L 133.5 333 Z " /><path fill="rgb(251,245,245)" stroke="rgb(251,245,245)" stroke-width="1" opacity="1" d="M 202.5 333 L 201.5 335 L 202.5 333 Z " /><path fill="rgb(251,245,245)" stroke="rgb(251,245,245)" stroke-width="1" opacity="1" d="M 438.5 333 L 436.5 336 L 438.5 333 Z " /><path fill="rgb(251,245,245)" stroke="rgb(251,245,245)" stroke-width="1" opacity="1" d="M 308.5 335 L 307.5 337 L 308.5 335 Z " /><path fill="rgb(251,245,245)" stroke="rgb(251,245,245)" stroke-width="1" opacity="1" d="M 215.5 336 L 219.5 341 L 215.5 336 Z " /><path fill="rgb(251,245,245)" stroke="rgb(251,245,245)" stroke-width="1" opacity="1" d="M 396.5 337 L 399.5 341 L 396.5 337 Z " /><path fill="rgb(251,245,245)" stroke="rgb(251,245,245)" stroke-width="1" opacity="1" d="M 158.5 338 L 161.5 342 L 158.5 338 Z " /><path fill="rgb(251,245,245)" stroke="rgb(251,245,245)" stroke-width="1" opacity="1" d="M 304.5 338 L 303.5 340 L 304.5 338 Z " /><path fill="rgb(251,245,245)" stroke="rgb(251,245,245)" stroke-width="1" opacity="1" d="M 432.5 338 L 431.5 340 L 432.5 338 Z " /><path fill="rgb(251,245,245)" stroke="rgb(251,245,245)" stroke-width="1" opacity="1" d="M 455.5 338 L 456.5 340 L 455.5 338 Z " /><path fill="rgb(251,245,245)" stroke="rgb(251,245,245)" stroke-width="1" opacity="1" d="M 48.5 339 L 54.5 346 L 48.5 339 Z " /><path fill="rgb(251,245,245)" stroke="rgb(251,245,245)" stroke-width="1" opacity="1" d="M 266.5 339 L 268 341.5 L 266 340.5 L 266.5 339 Z " /><path fill="rgb(251,245,245)" stroke="rgb(251,245,245)" stroke-width="1" opacity="1" d="M 322.5 339 L 323.5 341 L 322.5 339 Z " /><path fill="rgb(251,245,245)" stroke="rgb(251,245,245)" stroke-width="1" opacity="1" d="M 348.5 341 L 347.5 343 L 330 342.5 L 347.5 342 L 348.5 341 Z " /><path fill="rgb(251,245,245)" stroke="rgb(251,245,245)" stroke-width="1" opacity="1" d="M 373.5 341 L 372.5 343 L 354 342.5 L 372.5 342 L 373.5 341 Z " /><path fill="rgb(251,245,245)" stroke="rgb(251,245,245)" stroke-width="1" opacity="1" d="M 482.5 341 L 481.5 343 L 464 342.5 L 481.5 342 L 482.5 341 Z " /><path fill="rgb(251,245,245)" stroke="rgb(251,245,245)" stroke-width="1" opacity="1" d="M 46.5 343 L 50.5 348 L 46.5 343 Z " /><path fill="rgb(251,245,245)" stroke="rgb(251,245,245)" stroke-width="1" opacity="1" d="M 246.5 343 L 249 343.5 L 246.5 344 L 246.5 343 Z " /><path fill="rgb(251,245,245)" stroke="rgb(251,245,245)" stroke-width="1" opacity="1" d="M 277.5 343 L 280 343.5 L 277.5 344 L 277.5 343 Z " /><path fill="rgb(251,245,245)" stroke="rgb(251,245,245)" stroke-width="1" opacity="1" d="M 232.5 344 L 239 344.5 L 232.5 345 L 232.5 344 Z " /><path fill="rgb(251,245,245)" stroke="rgb(251,245,245)" stroke-width="1" opacity="1" d="M 172.5 345 L 183 345.5 L 172.5 346 L 172.5 345 Z " /><path fill="rgb(254,254,254)" stroke="rgb(254,254,254)" stroke-width="1" opacity="1" d="M 51.5 250 L 50.5 252 L 51.5 250 Z " /><path fill="rgb(254,254,254)" stroke="rgb(254,254,254)" stroke-width="1" opacity="1" d="M 52.5 255 L 48.5 260 L 52.5 255 Z " /><path fill="rgb(254,254,254)" stroke="rgb(254,254,254)" stroke-width="1" opacity="1" d="M 44.5 257 L 43.5 259 L 44.5 257 Z " /><path fill="rgb(254,254,254)" stroke="rgb(254,254,254)" stroke-width="1" opacity="1" d="M 177.5 260 L 172.5 266 L 177.5 260 Z " /><path fill="rgb(254,254,254)" stroke="rgb(254,254,254)" stroke-width="1" opacity="1" d="M 322.5 271 L 324 273.5 L 323 273.5 L 322.5 271 Z " /><path fill="rgb(254,254,254)" stroke="rgb(254,254,254)" stroke-width="1" opacity="1" d="M 408.5 271 L 409.5 273 L 408.5 271 Z " /><path fill="rgb(254,254,254)" stroke="rgb(254,254,254)" stroke-width="1" opacity="1" d="M 286.5 276 L 285.5 278 L 286.5 276 Z " /><path fill="rgb(254,254,254)" stroke="rgb(254,254,254)" stroke-width="1" opacity="1" d="M 411.5 278 L 409.5 281 L 411.5 278 Z " /><path fill="rgb(254,254,254)" stroke="rgb(254,254,254)" stroke-width="1" opacity="1" d="M 283.5 279 L 282.5 281 L 283.5 279 Z " /><path fill="rgb(254,254,254)" stroke="rgb(254,254,254)" stroke-width="1" opacity="1" d="M 244.5 283 L 249 283.5 L 244.5 284 L 244.5 283 Z " /><path fill="rgb(254,254,254)" stroke="rgb(254,254,254)" stroke-width="1" opacity="1" d="M 320.5 283 L 319.5 285 L 318 284.5 L 320.5 283 Z " /><path fill="rgb(254,254,254)" stroke="rgb(254,254,254)" stroke-width="1" opacity="1" d="M 427.5 285 L 426.5 287 L 427.5 285 Z " /><path fill="rgb(254,254,254)" stroke="rgb(254,254,254)" stroke-width="1" opacity="1" d="M 218.5 286 L 217.5 288 L 218.5 286 Z " /><path fill="rgb(254,254,254)" stroke="rgb(254,254,254)" stroke-width="1" opacity="1" d="M 298.5 290 L 299 292.5 L 298 292.5 L 298.5 290 Z " /><path fill="rgb(254,254,254)" stroke="rgb(254,254,254)" stroke-width="1" opacity="1" d="M 66.5 292 L 70 292.5 L 66.5 293 L 66.5 292 Z " /><path fill="rgb(254,254,254)" stroke="rgb(254,254,254)" stroke-width="1" opacity="1" d="M 76.5 292 L 81 292.5 L 76.5 293 L 76.5 292 Z " /><path fill="rgb(254,254,254)" stroke="rgb(254,254,254)" stroke-width="1" opacity="1" d="M 86.5 292 L 89 293.5 L 87.5 294 L 86.5 292 Z " /><path fill="rgb(254,254,254)" stroke="rgb(254,254,254)" stroke-width="1" opacity="1" d="M 74.5 295 L 78 296.5 L 74 297 L 74.5 295 Z " /><path fill="rgb(254,254,254)" stroke="rgb(254,254,254)" stroke-width="1" opacity="1" d="M 64.5 296 L 68 296.5 L 64.5 297 L 64.5 296 Z " /><path fill="rgb(254,254,254)" stroke="rgb(254,254,254)" stroke-width="1" opacity="1" d="M 80.5 296 L 84 296.5 L 80.5 297 L 80.5 296 Z " /><path fill="rgb(254,254,254)" stroke="rgb(254,254,254)" stroke-width="1" opacity="1" d="M 305.5 301 L 309.5 306 L 305.5 301 Z " /><path fill="rgb(254,254,254)" stroke="rgb(254,254,254)" stroke-width="1" opacity="1" d="M 77.5 303 L 76.5 305 L 77.5 303 Z " /><path fill="rgb(254,254,254)" stroke="rgb(254,254,254)" stroke-width="1" opacity="1" d="M 221.5 306 L 220.5 308 L 221.5 306 Z " /><path fill="rgb(254,254,254)" stroke="rgb(254,254,254)" stroke-width="1" opacity="1" d="M 218.5 309 L 217.5 311 L 218.5 309 Z " /><path fill="rgb(254,254,254)" stroke="rgb(254,254,254)" stroke-width="1" opacity="1" d="M 183.5 328 L 182.5 330 L 183.5 328 Z " /><path fill="rgb(254,254,254)" stroke="rgb(254,254,254)" stroke-width="1" opacity="1" d="M 282.5 330 L 286 330.5 L 282.5 331 L 282.5 330 Z " /><path fill="rgb(254,254,254)" stroke="rgb(254,254,254)" stroke-width="1" opacity="1" d="M 135.5 331 L 134.5 333 L 135.5 331 Z " /><path fill="rgb(254,254,254)" stroke="rgb(254,254,254)" stroke-width="1" opacity="1" d="M 435.5 336 L 434.5 338 L 435.5 336 Z " /><path fill="rgb(254,254,254)" stroke="rgb(254,254,254)" stroke-width="1" opacity="1" d="M 199.5 337 L 198.5 339 L 199.5 337 Z " /><path fill="rgb(254,254,254)" stroke="rgb(254,254,254)" stroke-width="1" opacity="1" d="M 127.5 339 L 126.5 341 L 127.5 339 Z " /><path fill="rgb(254,254,254)" stroke="rgb(254,254,254)" stroke-width="1" opacity="1" d="M 63.5 340 L 64.5 342 L 63.5 340 Z " /><path fill="rgb(254,254,254)" stroke="rgb(254,254,254)" stroke-width="1" opacity="1" d="M 44.5 341 L 45.5 343 L 44.5 341 Z " /><path fill="rgb(254,254,254)" stroke="rgb(254,254,254)" stroke-width="1" opacity="1" d="M 239.5 344 L 242 344.5 L 239.5 345 L 239.5 344 Z " /><path fill="rgb(254,254,254)" stroke="rgb(254,254,254)" stroke-width="1" opacity="1" d="M 51.5 348 L 52.5 350 L 51.5 348 Z " /><path fill="rgb(255,255,255)" stroke="rgb(255,255,255)" stroke-width="1" opacity="1" d="M 0 0 L 600 0 L 600 600 L 0 600 L 0 0 Z M 88 235 L 69 240 L 52 250 Q 35 263 30 287 L 30 313 L 31 317 Q 35 331 44 342 L 60 355 L 77 362 L 87 364 L 535 364 L 536 363 L 545 327 L 570 240 Q 570 235 570 235 L 88 235 Z " /><path fill="rgb(255,255,255)" stroke="rgb(255,255,255)" stroke-width="1" opacity="1" d="M 95.5 239 L 565 239.5 L 534 348.5 L 533 355.5 L 530.5 360 L 94.5 360 L 93.5 359 L 80.5 358 L 70.5 355 Q 55.3 348.7 46 336.5 Q 38.6 326.9 35 313.5 L 34 308.5 L 34 290.5 Q 38.9 264.9 56.5 252 L 71.5 244 L 81.5 241 L 94.5 240 L 95.5 239 Z M 86 248 L 76 251 L 68 283 L 71 282 L 143 282 L 143 280 L 136 268 Q 128 257 115 251 Q 104 246 86 248 Z M 194 252 L 178 260 Q 167 269 162 283 L 157 297 L 153 317 L 154 331 L 157 338 L 163 343 L 172 346 L 189 345 L 199 339 L 208 325 L 213 306 L 191 310 L 186 326 L 180 331 L 176 330 L 175 328 L 175 320 L 178 305 L 185 283 L 190 273 Q 192 267 199 266 L 201 267 L 202 270 L 197 291 L 218 288 L 222 276 L 222 265 L 218 256 L 210 252 L 194 252 Z M 359 252 L 338 256 L 334 270 L 334 272 L 327 272 L 324 282 L 324 285 L 330 285 L 318 330 L 319 337 Q 322 341 329 343 L 349 343 L 352 330 L 341 330 L 339 329 L 341 318 L 350 288 L 351 285 L 364 285 L 367 276 L 367 272 L 354 272 L 359 256 L 359 252 Z M 492 252 L 471 256 L 452 326 Q 451 334 454 338 Q 457 342 464 343 L 483 343 L 485 330 L 475 330 L 473 329 L 473 323 L 475 315 L 492 256 L 492 252 Z M 64 258 L 58 262 L 47 279 L 43 294 L 43 306 L 45 315 L 53 331 Q 64 346 87 351 L 104 351 L 109 350 L 127 341 Q 140 332 144 314 L 63 314 L 57 312 L 53 308 L 54 297 L 65 262 Q 66 257 64 258 Z M 242 270 L 230 273 L 227 287 L 239 284 L 252 284 L 254 287 L 253 296 L 236 299 L 222 306 Q 214 311 212 322 Q 211 331 214 336 Q 219 343 231 345 L 242 345 L 243 344 L 250 344 L 260 342 L 262 338 L 274 293 Q 276 282 272 278 Q 268 272 261 270 L 242 270 Z M 301 270 L 287 276 Q 281 281 278 289 Q 276 300 281 306 L 295 321 L 294 327 L 289 330 L 276 330 L 269 329 L 266 342 L 276 344 Q 297 347 307 338 Q 313 333 315 324 L 315 316 L 310 306 L 305 301 Q 298 299 299 289 L 306 284 L 318 284 L 320 285 L 324 273 L 318 270 L 301 270 Z M 388 270 L 374 274 L 371 277 L 370 284 L 353 342 L 354 343 L 374 343 L 389 285 Q 394 283 403 284 L 410 273 L 406 270 L 388 270 Z M 427 270 Q 417 272 412 278 Q 396 292 392 318 Q 391 330 395 337 Q 398 342 406 344 L 423 344 L 435 338 Q 450 324 454 299 Q 456 284 450 277 Q 444 268 427 270 Z M 88 288 Q 85 289 86 293 L 89 294 L 90 294 L 90 295 L 86 295 L 85 292 Q 79 294 81 289 L 76 289 Q 74 295 79 293 L 81 297 Q 85 295 84 300 L 88 301 L 87 303 Q 82 304 84 300 L 79 300 L 78 296 Q 73 297 75 293 L 70 293 L 70 296 L 74 296 Q 72 302 77 300 L 77 304 L 82 304 L 82 308 L 88 308 L 88 306 L 91 304 L 90 307 L 91 308 L 145 308 L 146 306 L 146 292 L 145 291 L 145 288 L 95 288 L 95 290 Q 96 293 93 292 L 93 291 L 93 288 L 88 288 Z M 66 289 L 66 293 Q 70 294 71 292 L 71 289 L 66 289 Z M 64 296 Q 62 302 68 300 L 67 302 L 68 303 L 73 303 L 73 300 Q 68 302 69 298 Q 68 295 64 296 Z M 61 304 L 61 306 Q 62 308 67 307 L 67 304 L 61 304 Z M 71 304 L 71 306 Q 72 308 77 307 L 77 304 L 71 304 Z " /><path fill="rgb(255,255,255)" stroke="rgb(255,255,255)" stroke-width="1" opacity="1" d="M 429.5 284 Q 433.3 283.3 434 285.5 Q 432.1 312.6 419.5 329 L 415.5 331 L 413 330 Q 414.2 300.4 429.5 284 Z " /><path fill="rgb(255,255,255)" stroke="rgb(255,255,255)" stroke-width="1" opacity="1" d="M 97.5 294 L 101 294.5 L 97.5 295 L 97.5 294 Z " /><path fill="rgb(255,255,255)" stroke="rgb(255,255,255)" stroke-width="1" opacity="1" d="M 109.5 294 L 112 294.5 L 109.5 295 L 109.5 294 Z " /><path fill="rgb(255,255,255)" stroke="rgb(255,255,255)" stroke-width="1" opacity="1" d="M 91.5 297 Q 94.1 296.3 93 299 L 90 298.5 L 91.5 297 Z " /><path fill="rgb(255,255,255)" stroke="rgb(255,255,255)" stroke-width="1" opacity="1" d="M 95.5 301 L 99 301.5 L 95.5 302 L 95.5 301 Z " /><path fill="rgb(255,255,255)" stroke="rgb(255,255,255)" stroke-width="1" opacity="1" d="M 245.5 310 L 249 310.5 L 243 331 Q 236.5 332.3 234 328.5 L 233 320.5 L 237.5 314 L 245.5 310 Z " /><path fill="rgb(160,67,64)" stroke="rgb(160,67,64)" stroke-width="1" opacity="1" d="M 100.5 235 L 570 235.5 L 534 364 L 97.5 364 L 96.5 363 L 88.5 363 L 77.5 361 L 68.5 358 Q 52.7 351.3 43 338.5 L 33 319.5 L 30 305.5 L 30 293.5 L 33 279.5 L 39 266.5 L 53.5 250 Q 64 242 78.5 238 L 89.5 236 L 99.5 236 L 100.5 235 Z M 94 238 L 74 242 L 55 252 Q 38 265 33 290 L 33 310 L 35 318 Q 39 331 47 340 Q 55 349 68 355 L 80 359 L 92 360 L 93 361 L 532 361 L 533 360 L 566 241 L 566 238 L 94 238 Z " /><path fill="rgb(160,67,64)" stroke="rgb(160,67,64)" stroke-width="1" opacity="1" d="M 87.5 249 L 102.5 249 L 113.5 252 Q 127.7 257.8 136 269.5 L 142 280.5 L 69.5 281 L 70 279.5 L 77 252 L 87.5 249 Z " /><path fill="rgb(160,67,64)" stroke="rgb(160,67,64)" stroke-width="1" opacity="1" d="M 193.5 253 L 209.5 253 L 219 259.5 Q 222.4 264.6 221 274.5 L 216.5 287 L 198.5 290 L 199 288.5 L 203 269.5 L 199.5 265 Q 193.6 265.6 191 269.5 L 184 282.5 L 178 300.5 L 174 318.5 L 174 327.5 L 176.5 331 L 180.5 332 L 185 328.5 Q 190.4 321.2 192 311 L 211.5 307 L 212 309.5 L 205 328.5 L 195.5 340 L 183.5 345 L 171.5 345 Q 163.2 343.8 159 338.5 L 155 330.5 L 154 316.5 L 158 296.5 L 164 280.5 Q 169.8 267.3 180.5 259 L 193.5 253 Z " /><path fill="rgb(160,67,64)" stroke="rgb(160,67,64)" stroke-width="1" opacity="1" d="M 353.5 254 Q 358.9 252.1 358 255.5 L 353 273 L 365.5 273 L 366 275.5 L 362.5 284 L 349.5 284 L 349 287.5 L 341 313.5 L 338 328.5 L 340.5 331 L 350 331 L 348 342 L 329.5 342 L 323.5 340 L 321 337.5 L 319 329.5 L 331 284 L 325 284 L 325 281.5 L 328.5 273 L 335 273 L 335 269.5 L 338 258.5 L 340.5 256 L 346.5 256 L 353.5 254 Z " /><path fill="rgb(160,67,64)" stroke="rgb(160,67,64)" stroke-width="1" opacity="1" d="M 487.5 254 Q 491.9 252.5 491 255.5 L 472 321.5 L 472 328.5 L 474.5 331 L 484 331 L 482 342 L 463.5 342 Q 457 340.5 454 335.5 L 453 325.5 L 472 257 L 487.5 254 Z " /><path fill="rgb(160,67,64)" stroke="rgb(160,67,64)" stroke-width="1" opacity="1" d="M 62.5 260 L 64 260.5 L 54 292.5 L 52 300.5 L 52 307.5 L 54 312 L 60.5 315 L 143 315.5 Q 137.4 331.9 124.5 341 L 107.5 349 L 102.5 350 L 87.5 350 Q 67.2 345.8 56 332.5 Q 49.5 325 46 314.5 L 44 304.5 L 44 294.5 Q 47.7 271.7 62.5 260 Z " /><path fill="rgb(160,67,64)" stroke="rgb(160,67,64)" stroke-width="1" opacity="1" d="M 242.5 271 L 259.5 271 Q 267.1 272.4 271 277.5 Q 274.8 282.2 273 292.5 L 262 333.5 L 258.5 341 L 248.5 343 L 241.5 343 L 240.5 344 L 231.5 344 L 223.5 342 L 216 336.5 Q 211.5 332 213 321.5 Q 215.3 310.8 223.5 306 L 230.5 302 L 244.5 298 L 250.5 298 L 254 295.5 L 255 286.5 L 251.5 283 L 237.5 283 L 228.5 286 L 228 284.5 L 231 274 L 242.5 271 Z M 246 309 L 239 312 Q 231 315 232 328 Q 234 333 243 332 L 245 329 L 250 311 Q 251 307 246 309 Z " /><path fill="rgb(160,67,64)" stroke="rgb(160,67,64)" stroke-width="1" opacity="1" d="M 300.5 271 Q 314.1 269.6 322 272 L 320 283 L 305.5 283 L 299 286 L 297 291.5 L 299 296.5 L 311 308.5 Q 315.2 313.3 314 323.5 Q 311.7 334.2 303.5 339 Q 294.1 345.1 276.5 343 L 267 341 L 270 330 Q 277.1 332.3 289.5 331 L 296 325.5 L 296 319.5 L 289.5 312 L 283 306.5 Q 277.2 301.8 279 289.5 Q 281.4 280.4 288.5 276 L 300.5 271 Z " /><path fill="rgb(160,67,64)" stroke="rgb(160,67,64)" stroke-width="1" opacity="1" d="M 387.5 271 L 404.5 271 L 408 272 L 401.5 283 Q 392.5 282 388 284 L 373 342 L 355.5 342 L 355 338.5 L 368 294.5 L 372 276.5 L 373.5 275 L 387.5 271 Z " /><path fill="rgb(160,67,64)" stroke="rgb(160,67,64)" stroke-width="1" opacity="1" d="M 426.5 271 L 442.5 272 L 450 278.5 Q 454.8 284.7 453 297.5 Q 450.3 314.3 443 326.5 L 432.5 338 Q 424.3 345.3 406.5 343 L 397 337.5 Q 391.3 331.2 393 317.5 Q 397.6 291.1 414.5 277 L 426.5 271 Z M 430 283 L 428 284 L 419 298 L 412 321 L 412 330 L 415 332 L 419 331 L 423 327 L 428 317 L 434 297 L 435 285 Q 434 282 430 283 Z " /><path fill="rgb(160,67,64)" stroke="rgb(160,67,64)" stroke-width="1" opacity="1" d="M 88.5 289 Q 92.9 287.5 92 290.5 L 91 293 L 96 293 L 96 291.5 L 96.5 289 L 143.5 289 L 144 290.5 L 145 291.5 L 145 305.5 L 143.5 307 L 92 307 L 90.5 303 L 88 302.5 L 89 300 L 85 298.5 L 86.5 296 Q 90.3 296.8 91 294.5 Q 91.8 291.9 88.5 293 L 87 290.5 L 88.5 289 Z M 104 290 Q 103 294 108 292 Q 109 288 104 290 Z M 115 290 Q 114 294 119 292 Q 120 288 115 290 Z M 96 293 L 96 296 L 102 296 L 102 293 L 96 293 Z M 110 293 L 108 295 L 111 296 L 113 295 L 110 293 Z M 90 296 L 89 299 L 89 300 L 94 300 Q 96 294 90 296 Z M 102 297 Q 101 301 106 299 Q 107 295 102 297 Z M 113 297 Q 112 301 117 299 Q 118 295 113 297 Z M 94 300 L 94 303 L 100 303 L 100 300 L 94 300 Z M 107 301 L 108 303 L 111 302 L 107 301 Z M 100 304 Q 99 308 104 306 Q 105 302 100 304 Z M 111 304 Q 110 308 115 306 Q 116 302 111 304 Z " /><path fill="rgb(160,67,64)" stroke="rgb(160,67,64)" stroke-width="1" opacity="1" d="M 67 290 L 70 290.5 L 67 292 L 67 290 Z " /><path fill="rgb(160,67,64)" stroke="rgb(160,67,64)" stroke-width="1" opacity="1" d="M 77 290 Q 81.1 288.7 80 292 Q 75.9 293.3 77 290 Z " /><path fill="rgb(160,67,64)" stroke="rgb(160,67,64)" stroke-width="1" opacity="1" d="M 80 293 L 85 293 L 85 294.5 L 81.5 296 L 80 293 Z " /><path fill="rgb(160,67,64)" stroke="rgb(160,67,64)" stroke-width="1" opacity="1" d="M 71.5 294 L 74 294.5 L 71.5 295 L 71.5 294 Z " /><path fill="rgb(160,67,64)" stroke="rgb(160,67,64)" stroke-width="1" opacity="1" d="M 65 297 L 68 298.5 L 65 299 L 65 297 Z " /><path fill="rgb(160,67,64)" stroke="rgb(160,67,64)" stroke-width="1" opacity="1" d="M 75 297 L 78 298.5 L 75 299 L 75 297 Z " /><path fill="rgb(160,67,64)" stroke="rgb(160,67,64)" stroke-width="1" opacity="1" d="M 68.5 301 L 72 301.5 L 68.5 302 L 68.5 301 Z " /><path fill="rgb(160,67,64)" stroke="rgb(160,67,64)" stroke-width="1" opacity="1" d="M 78 301 L 83 301 L 83 303 L 78 303 L 78 301 Z " /><path fill="rgb(160,67,64)" stroke="rgb(160,67,64)" stroke-width="1" opacity="1" d="M 83 304 L 88 304.5 L 87 307 Q 81.4 308.9 83 304 Z " /><path fill="rgb(160,67,64)" stroke="rgb(160,67,64)" stroke-width="1" opacity="1" d="M 62.5 305 L 66 305.5 L 62.5 306 L 62.5 305 Z " /><path fill="rgb(160,67,64)" stroke="rgb(160,67,64)" stroke-width="1" opacity="1" d="M 73.5 305 L 76 305.5 L 73.5 306 L 73.5 305 Z " /><path fill="rgb(218,211,206)" stroke="rgb(218,211,206)" stroke-width="1" opacity="1" d="M 93.5 235 L 100 235.5 L 93.5 236 L 93.5 235 Z " /><path fill="rgb(218,211,206)" stroke="rgb(218,211,206)" stroke-width="1" opacity="1" d="M 85.5 236 L 89 236.5 L 85.5 237 L 85.5 236 Z " /><path fill="rgb(218,211,206)" stroke="rgb(218,211,206)" stroke-width="1" opacity="1" d="M 80.5 237 L 83 237.5 L 80.5 238 L 80.5 237 Z " /><path fill="rgb(218,211,206)" stroke="rgb(218,211,206)" stroke-width="1" opacity="1" d="M 93.5 238 L 101 238.5 L 93.5 239 L 93.5 238 Z " /><path fill="rgb(218,211,206)" stroke="rgb(218,211,206)" stroke-width="1" opacity="1" d="M 565.5 238 L 566 240.5 L 565 240.5 L 565.5 238 Z " /><path fill="rgb(218,211,206)" stroke="rgb(218,211,206)" stroke-width="1" opacity="1" d="M 85.5 239 L 89 239.5 L 85.5 240 L 85.5 239 Z " /><path fill="rgb(218,211,206)" stroke="rgb(218,211,206)" stroke-width="1" opacity="1" d="M 80.5 240 L 83 240.5 L 80.5 241 L 80.5 240 Z " /><path fill="rgb(218,211,206)" stroke="rgb(218,211,206)" stroke-width="1" opacity="1" d="M 63.5 243 L 65 243.5 L 62.5 245 L 63.5 243 Z " /><path fill="rgb(218,211,206)" stroke="rgb(218,211,206)" stroke-width="1" opacity="1" d="M 55.5 248 L 54.5 250 L 55.5 248 Z " /><path fill="rgb(218,211,206)" stroke="rgb(218,211,206)" stroke-width="1" opacity="1" d="M 60.5 248 L 59.5 250 L 60.5 248 Z " /><path fill="rgb(218,211,206)" stroke="rgb(218,211,206)" stroke-width="1" opacity="1" d="M 90.5 248 L 100 248.5 L 90.5 249 L 90.5 248 Z " /><path fill="rgb(218,211,206)" stroke="rgb(218,211,206)" stroke-width="1" opacity="1" d="M 84.5 249 L 87 249.5 L 84.5 250 L 84.5 249 Z " /><path fill="rgb(218,211,206)" stroke="rgb(218,211,206)" stroke-width="1" opacity="1" d="M 103.5 249 L 106 249.5 L 103.5 250 L 103.5 249 Z " /><path fill="rgb(218,211,206)" stroke="rgb(218,211,206)" stroke-width="1" opacity="1" d="M 52.5 250 L 43.5 260 L 52.5 250 Z " /><path fill="rgb(218,211,206)" stroke="rgb(218,211,206)" stroke-width="1" opacity="1" d="M 57.5 250 L 56.5 252 L 57.5 250 Z " /><path fill="rgb(218,211,206)" stroke="rgb(218,211,206)" stroke-width="1" opacity="1" d="M 54.5 252 L 46.5 261 L 54.5 252 Z " /><path fill="rgb(218,211,206)" stroke="rgb(218,211,206)" stroke-width="1" opacity="1" d="M 195.5 252 L 208 252.5 L 195.5 253 L 195.5 252 Z " /><path fill="rgb(218,211,206)" stroke="rgb(218,211,206)" stroke-width="1" opacity="1" d="M 355.5 253 L 358 253.5 L 355.5 254 L 355.5 253 Z " /><path fill="rgb(218,211,206)" stroke="rgb(218,211,206)" stroke-width="1" opacity="1" d="M 489.5 253 L 492 254.5 L 490.5 254 L 489.5 253 Z " /><path fill="rgb(218,211,206)" stroke="rgb(218,211,206)" stroke-width="1" opacity="1" d="M 213.5 254 L 214.5 256 L 213.5 254 Z " /><path fill="rgb(218,211,206)" stroke="rgb(218,211,206)" stroke-width="1" opacity="1" d="M 349.5 254 L 353 254.5 L 349.5 255 L 349.5 254 Z " /><path fill="rgb(218,211,206)" stroke="rgb(218,211,206)" stroke-width="1" opacity="1" d="M 484.5 254 L 487 254.5 L 484.5 255 L 484.5 254 Z " /><path fill="rgb(218,211,206)" stroke="rgb(218,211,206)" stroke-width="1" opacity="1" d="M 343.5 255 L 347 255.5 L 343.5 256 L 343.5 255 Z " /><path fill="rgb(218,211,206)" stroke="rgb(218,211,206)" stroke-width="1" opacity="1" d="M 478.5 255 L 481 255.5 L 478.5 256 L 478.5 255 Z " /><path fill="rgb(218,211,206)" stroke="rgb(218,211,206)" stroke-width="1" opacity="1" d="M 122.5 256 L 123.5 258 L 122.5 256 Z " /><path fill="rgb(218,211,206)" stroke="rgb(218,211,206)" stroke-width="1" opacity="1" d="M 216.5 256 L 218.5 259 L 216.5 256 Z " /><path fill="rgb(218,211,206)" stroke="rgb(218,211,206)" stroke-width="1" opacity="1" d="M 338 256 L 340 256.5 L 338 257.5 L 338 256 Z " /><path fill="rgb(218,211,206)" stroke="rgb(218,211,206)" stroke-width="1" opacity="1" d="M 473.5 256 L 476 256.5 L 473.5 257 L 473.5 256 Z " /><path fill="rgb(218,211,206)" stroke="rgb(218,211,206)" stroke-width="1" opacity="1" d="M 182.5 257 L 181.5 259 L 182.5 257 Z " /><path fill="rgb(218,211,206)" stroke="rgb(218,211,206)" stroke-width="1" opacity="1" d="M 125.5 258 L 135.5 269 L 125.5 258 Z " /><path fill="rgb(218,211,206)" stroke="rgb(218,211,206)" stroke-width="1" opacity="1" d="M 179.5 259 L 171.5 268 L 179.5 259 Z " /><path fill="rgb(218,211,206)" stroke="rgb(218,211,206)" stroke-width="1" opacity="1" d="M 337.5 259 L 338 261.5 L 337 261.5 L 337.5 259 Z " /><path fill="rgb(218,211,206)" stroke="rgb(218,211,206)" stroke-width="1" opacity="1" d="M 42.5 261 L 41.5 263 L 42.5 261 Z " /><path fill="rgb(218,211,206)" stroke="rgb(218,211,206)" stroke-width="1" opacity="1" d="M 59.5 262 L 57.5 265 L 59.5 262 Z " /><path fill="rgb(218,211,206)" stroke="rgb(218,211,206)" stroke-width="1" opacity="1" d="M 44.5 263 L 43.5 265 L 44.5 263 Z " /><path fill="rgb(218,211,206)" stroke="rgb(218,211,206)" stroke-width="1" opacity="1" d="M 40.5 264 L 39.5 266 L 40.5 264 Z " /><path fill="rgb(218,211,206)" stroke="rgb(218,211,206)" stroke-width="1" opacity="1" d="M 197.5 265 L 200 265.5 L 197.5 266 L 197.5 265 Z " /><path fill="rgb(218,211,206)" stroke="rgb(218,211,206)" stroke-width="1" opacity="1" d="M 42.5 266 L 41.5 268 L 42.5 266 Z " /><path fill="rgb(218,211,206)" stroke="rgb(218,211,206)" stroke-width="1" opacity="1" d="M 221.5 266 L 222 272.5 L 221 272.5 L 221.5 266 Z " /><path fill="rgb(218,211,206)" stroke="rgb(218,211,206)" stroke-width="1" opacity="1" d="M 55.5 267 L 53.5 270 L 55.5 267 Z " /><path fill="rgb(218,211,206)" stroke="rgb(218,211,206)" stroke-width="1" opacity="1" d="M 193.5 267 L 191.5 270 L 193.5 267 Z " /><path fill="rgb(218,211,206)" stroke="rgb(218,211,206)" stroke-width="1" opacity="1" d="M 170.5 269 L 169.5 271 L 170.5 269 Z " /><path fill="rgb(218,211,206)" stroke="rgb(218,211,206)" stroke-width="1" opacity="1" d="M 202.5 269 L 203 272.5 L 202 272.5 L 202.5 269 Z " /><path fill="rgb(218,211,206)" stroke="rgb(218,211,206)" stroke-width="1" opacity="1" d="M 136.5 270 L 137.5 272 L 136.5 270 Z " /><path fill="rgb(218,211,206)" stroke="rgb(218,211,206)" stroke-width="1" opacity="1" d="M 245.5 270 L 258 270.5 L 245.5 271 L 245.5 270 Z " /><path fill="rgb(218,211,206)" stroke="rgb(218,211,206)" stroke-width="1" opacity="1" d="M 303.5 270 L 315 270.5 L 303.5 271 L 303.5 270 Z " /><path fill="rgb(218,211,206)" stroke="rgb(218,211,206)" stroke-width="1" opacity="1" d="M 353.5 270 L 354 272.5 L 353 272.5 L 353.5 270 Z " /><path fill="rgb(218,211,206)" stroke="rgb(218,211,206)" stroke-width="1" opacity="1" d="M 391.5 270 L 402 270.5 L 391.5 271 L 391.5 270 Z " /><path fill="rgb(218,211,206)" stroke="rgb(218,211,206)" stroke-width="1" opacity="1" d="M 429.5 270 L 437 270.5 L 429.5 271 L 429.5 270 Z " /><path fill="rgb(218,211,206)" stroke="rgb(218,211,206)" stroke-width="1" opacity="1" d="M 52.5 271 L 51.5 273 L 52.5 271 Z " /><path fill="rgb(218,211,206)" stroke="rgb(218,211,206)" stroke-width="1" opacity="1" d="M 190.5 271 L 189.5 273 L 190.5 271 Z " /><path fill="rgb(218,211,206)" stroke="rgb(218,211,206)" stroke-width="1" opacity="1" d="M 239.5 271 L 242 271.5 L 239.5 272 L 239.5 271 Z " /><path fill="rgb(218,211,206)" stroke="rgb(218,211,206)" stroke-width="1" opacity="1" d="M 384.5 271 L 387 271.5 L 384.5 272 L 384.5 271 Z " /><path fill="rgb(218,211,206)" stroke="rgb(218,211,206)" stroke-width="1" opacity="1" d="M 234.5 272 L 237 272.5 L 234.5 273 L 234.5 272 Z " /><path fill="rgb(218,211,206)" stroke="rgb(218,211,206)" stroke-width="1" opacity="1" d="M 322.5 272 L 323 274.5 L 322 274.5 L 322.5 272 Z " /><path fill="rgb(218,211,206)" stroke="rgb(218,211,206)" stroke-width="1" opacity="1" d="M 408.5 272 L 409 273.5 L 407 274.5 L 408.5 272 Z " /><path fill="rgb(218,211,206)" stroke="rgb(218,211,206)" stroke-width="1" opacity="1" d="M 421.5 272 L 423 272.5 L 418.5 275 L 419.5 273 L 421.5 272 Z " /><path fill="rgb(218,211,206)" stroke="rgb(218,211,206)" stroke-width="1" opacity="1" d="M 266.5 273 L 267.5 275 L 266.5 273 Z " /><path fill="rgb(218,211,206)" stroke="rgb(218,211,206)" stroke-width="1" opacity="1" d="M 292.5 273 L 294 273.5 L 289.5 276 L 290.5 274 L 292.5 273 Z " /><path fill="rgb(218,211,206)" stroke="rgb(218,211,206)" stroke-width="1" opacity="1" d="M 445.5 273 Q 450.6 275.4 452 281.5 L 451 281.5 L 445.5 273 Z " /><path fill="rgb(218,211,206)" stroke="rgb(218,211,206)" stroke-width="1" opacity="1" d="M 167.5 274 L 166.5 276 L 167.5 274 Z " /><path fill="rgb(218,211,206)" stroke="rgb(218,211,206)" stroke-width="1" opacity="1" d="M 139.5 275 L 142 279.5 L 141 279.5 L 139.5 275 Z " /><path fill="rgb(218,211,206)" stroke="rgb(218,211,206)" stroke-width="1" opacity="1" d="M 201.5 275 L 202 277.5 L 201 277.5 L 201.5 275 Z " /><path fill="rgb(218,211,206)" stroke="rgb(218,211,206)" stroke-width="1" opacity="1" d="M 220.5 275 L 221 277.5 L 220 277.5 L 220.5 275 Z " /><path fill="rgb(218,211,206)" stroke="rgb(218,211,206)" stroke-width="1" opacity="1" d="M 326.5 275 L 327 277.5 L 326 277.5 L 326.5 275 Z " /><path fill="rgb(218,211,206)" stroke="rgb(218,211,206)" stroke-width="1" opacity="1" d="M 416.5 275 L 415.5 277 L 416.5 275 Z " /><path fill="rgb(218,211,206)" stroke="rgb(218,211,206)" stroke-width="1" opacity="1" d="M 287.5 276 L 282.5 282 L 287.5 276 Z " /><path fill="rgb(218,211,206)" stroke="rgb(218,211,206)" stroke-width="1" opacity="1" d="M 406.5 276 L 405.5 278 L 406.5 276 Z " /><path fill="rgb(218,211,206)" stroke="rgb(218,211,206)" stroke-width="1" opacity="1" d="M 413.5 277 L 407.5 284 L 413.5 277 Z " /><path fill="rgb(218,211,206)" stroke="rgb(218,211,206)" stroke-width="1" opacity="1" d="M 404.5 279 L 403.5 281 L 404.5 279 Z " /><path fill="rgb(218,211,206)" stroke="rgb(218,211,206)" stroke-width="1" opacity="1" d="M 69.5 281 L 142 281.5 L 69.5 282 L 69.5 281 Z " /><path fill="rgb(218,211,206)" stroke="rgb(218,211,206)" stroke-width="1" opacity="1" d="M 228.5 281 L 229 283.5 L 228 283.5 L 228.5 281 Z " /><path fill="rgb(218,211,206)" stroke="rgb(218,211,206)" stroke-width="1" opacity="1" d="M 402.5 282 L 401.5 284 L 399 283.5 L 402.5 282 Z " /><path fill="rgb(218,211,206)" stroke="rgb(218,211,206)" stroke-width="1" opacity="1" d="M 556.5 282 L 557 284.5 L 556 284.5 L 556.5 282 Z " /><path fill="rgb(218,211,206)" stroke="rgb(218,211,206)" stroke-width="1" opacity="1" d="M 237.5 283 L 241 283.5 L 237.5 284 L 237.5 283 Z " /><path fill="rgb(218,211,206)" stroke="rgb(218,211,206)" stroke-width="1" opacity="1" d="M 273.5 283 L 274 289.5 L 273 289.5 L 273.5 283 Z " /><path fill="rgb(218,211,206)" stroke="rgb(218,211,206)" stroke-width="1" opacity="1" d="M 281.5 283 L 281 284.5 L 280.5 286 L 280 284.5 L 281.5 283 Z " /><path fill="rgb(218,211,206)" stroke="rgb(218,211,206)" stroke-width="1" opacity="1" d="M 305.5 283 L 308 283.5 L 305.5 284 L 305.5 283 Z " /><path fill="rgb(218,211,206)" stroke="rgb(218,211,206)" stroke-width="1" opacity="1" d="M 314.5 283 L 320 283.5 L 314.5 284 L 314.5 283 Z " /><path fill="rgb(218,211,206)" stroke="rgb(218,211,206)" stroke-width="1" opacity="1" d="M 391.5 283 L 395 283.5 L 391.5 284 L 391.5 283 Z " /><path fill="rgb(218,211,206)" stroke="rgb(218,211,206)" stroke-width="1" opacity="1" d="M 433.5 283 L 435 286.5 L 434 286.5 L 433.5 283 Z " /><path fill="rgb(218,211,206)" stroke="rgb(218,211,206)" stroke-width="1" opacity="1" d="M 31.5 284 L 32 286.5 L 31 286.5 L 31.5 284 Z " /><path fill="rgb(218,211,206)" stroke="rgb(218,211,206)" stroke-width="1" opacity="1" d="M 34.5 284 L 35 286.5 L 34 286.5 L 34.5 284 Z " /><path fill="rgb(218,211,206)" stroke="rgb(218,211,206)" stroke-width="1" opacity="1" d="M 232.5 284 L 235 284.5 L 232.5 285 L 232.5 284 Z " /><path fill="rgb(218,211,206)" stroke="rgb(218,211,206)" stroke-width="1" opacity="1" d="M 349.5 284 L 350 286.5 L 349 286.5 L 349.5 284 Z " /><path fill="rgb(218,211,206)" stroke="rgb(218,211,206)" stroke-width="1" opacity="1" d="M 427.5 284 L 425.5 287 L 427.5 284 Z " /><path fill="rgb(218,211,206)" stroke="rgb(218,211,206)" stroke-width="1" opacity="1" d="M 406.5 285 L 405.5 287 L 406.5 285 Z " /><path fill="rgb(218,211,206)" stroke="rgb(218,211,206)" stroke-width="1" opacity="1" d="M 254.5 286 L 255 291.5 L 254 291.5 L 254.5 286 Z " /><path fill="rgb(218,211,206)" stroke="rgb(218,211,206)" stroke-width="1" opacity="1" d="M 212.5 287 L 215 287.5 L 212.5 288 L 212.5 287 Z " /><path fill="rgb(218,211,206)" stroke="rgb(218,211,206)" stroke-width="1" opacity="1" d="M 206.5 288 L 209 288.5 L 206.5 289 L 206.5 288 Z " /><path fill="rgb(218,211,206)" stroke="rgb(218,211,206)" stroke-width="1" opacity="1" d="M 424.5 288 L 423.5 290 L 424.5 288 Z " /><path fill="rgb(218,211,206)" stroke="rgb(218,211,206)" stroke-width="1" opacity="1" d="M 434.5 288 L 435 291.5 L 434 291.5 L 434.5 288 Z " /><path fill="rgb(218,211,206)" stroke="rgb(218,211,206)" stroke-width="1" opacity="1" d="M 453.5 288 L 454 294.5 L 453 294.5 L 453.5 288 Z " /><path fill="rgb(218,211,206)" stroke="rgb(218,211,206)" stroke-width="1" opacity="1" d="M 30.5 289 L 31 292.5 L 30 292.5 L 30.5 289 Z " /><path fill="rgb(218,211,206)" stroke="rgb(218,211,206)" stroke-width="1" opacity="1" d="M 33.5 289 L 34 292.5 L 33 292.5 L 33.5 289 Z " /><path fill="rgb(218,211,206)" stroke="rgb(218,211,206)" stroke-width="1" opacity="1" d="M 87.5 289 L 87 290.5 L 88 292.5 L 86 291.5 L 87.5 289 Z " /><path fill="rgb(218,211,206)" stroke="rgb(218,211,206)" stroke-width="1" opacity="1" d="M 95.5 289 L 96.5 291 L 95.5 289 Z " /><path fill="rgb(218,211,206)" stroke="rgb(218,211,206)" stroke-width="1" opacity="1" d="M 200.5 289 L 203 289.5 L 200.5 290 L 200.5 289 Z " /><path fill="rgb(218,211,206)" stroke="rgb(218,211,206)" stroke-width="1" opacity="1" d="M 462.5 289 L 463 291.5 L 462 291.5 L 462.5 289 Z " /><path fill="rgb(218,211,206)" stroke="rgb(218,211,206)" stroke-width="1" opacity="1" d="M 44.5 290 L 45 293.5 L 44 293.5 L 44.5 290 Z " /><path fill="rgb(218,211,206)" stroke="rgb(218,211,206)" stroke-width="1" opacity="1" d="M 70.5 290 L 69.5 292 L 70.5 290 Z " /><path fill="rgb(218,211,206)" stroke="rgb(218,211,206)" stroke-width="1" opacity="1" d="M 91.5 291 L 102 293.5 L 96.5 294 L 91 293 L 90.5 295 L 90 293.5 L 91.5 291 Z " /><path fill="rgb(218,211,206)" stroke="rgb(218,211,206)" stroke-width="1" opacity="1" d="M 278.5 291 L 279 297.5 L 278 297.5 L 278.5 291 Z " /><path fill="rgb(218,211,206)" stroke="rgb(218,211,206)" stroke-width="1" opacity="1" d="M 402.5 291 L 402 292.5 L 400.5 295 L 401 293.5 L 402.5 291 Z " /><path fill="rgb(218,211,206)" stroke="rgb(218,211,206)" stroke-width="1" opacity="1" d="M 328.5 292 L 329 294.5 L 328 294.5 L 328.5 292 Z " /><path fill="rgb(218,211,206)" stroke="rgb(218,211,206)" stroke-width="1" opacity="1" d="M 367.5 292 L 368 294.5 L 367 294.5 L 367.5 292 Z " /><path fill="rgb(218,211,206)" stroke="rgb(218,211,206)" stroke-width="1" opacity="1" d="M 70 293 L 74 293.5 L 71 294.5 L 74 295.5 L 71.5 296 L 70 293 Z " /><path fill="rgb(218,211,206)" stroke="rgb(218,211,206)" stroke-width="1" opacity="1" d="M 109.5 293 L 113 294.5 L 111.5 294 L 108.5 295 L 109.5 293 Z " /><path fill="rgb(218,211,206)" stroke="rgb(218,211,206)" stroke-width="1" opacity="1" d="M 272.5 293 L 273 295.5 L 272 295.5 L 272.5 293 Z " /><path fill="rgb(218,211,206)" stroke="rgb(218,211,206)" stroke-width="1" opacity="1" d="M 79.5 294 L 80.5 296 L 79.5 294 Z " /><path fill="rgb(218,211,206)" stroke="rgb(218,211,206)" stroke-width="1" opacity="1" d="M 85.5 294 L 85 297.5 L 86 299.5 L 84 298.5 L 85 296.5 Q 82.8 295.3 85.5 294 Z " /><path fill="rgb(218,211,206)" stroke="rgb(218,211,206)" stroke-width="1" opacity="1" d="M 96.5 295 L 102 295.5 L 96.5 296 L 96.5 295 Z " /><path fill="rgb(218,211,206)" stroke="rgb(218,211,206)" stroke-width="1" opacity="1" d="M 145.5 295 L 146 301.5 L 145 301.5 L 145.5 295 Z " /><path fill="rgb(218,211,206)" stroke="rgb(218,211,206)" stroke-width="1" opacity="1" d="M 90.5 296 L 94 296.5 L 90.5 297 L 90.5 296 Z " /><path fill="rgb(218,211,206)" stroke="rgb(218,211,206)" stroke-width="1" opacity="1" d="M 299.5 296 L 309.5 307 L 299.5 296 Z " /><path fill="rgb(218,211,206)" stroke="rgb(218,211,206)" stroke-width="1" opacity="1" d="M 399.5 296 L 400 297.5 L 398.5 300 L 398 298.5 L 399.5 296 Z " /><path fill="rgb(218,211,206)" stroke="rgb(218,211,206)" stroke-width="1" opacity="1" d="M 247.5 297 L 251 297.5 L 247.5 298 L 247.5 297 Z " /><path fill="rgb(218,211,206)" stroke="rgb(218,211,206)" stroke-width="1" opacity="1" d="M 89.5 298 L 100 300.5 L 94.5 301 L 89 300 L 88.5 302 L 88 300.5 L 89.5 298 Z " /><path fill="rgb(218,211,206)" stroke="rgb(218,211,206)" stroke-width="1" opacity="1" d="M 241.5 298 L 244 298.5 L 241.5 299 L 241.5 298 Z " /><path fill="rgb(218,211,206)" stroke="rgb(218,211,206)" stroke-width="1" opacity="1" d="M 452.5 298 L 453 301.5 L 452 301.5 L 452.5 298 Z " /><path fill="rgb(218,211,206)" stroke="rgb(218,211,206)" stroke-width="1" opacity="1" d="M 237.5 299 L 240 299.5 L 237.5 300 L 237.5 299 Z " /><path fill="rgb(218,211,206)" stroke="rgb(218,211,206)" stroke-width="1" opacity="1" d="M 52.5 300 L 53 307.5 L 52 307.5 L 52.5 300 Z " /><path fill="rgb(218,211,206)" stroke="rgb(218,211,206)" stroke-width="1" opacity="1" d="M 78.5 300 Q 83 299 84 301.5 L 82.5 301 Q 77.1 299.1 78 302.5 L 77 302.5 L 78.5 300 Z " /><path fill="rgb(218,211,206)" stroke="rgb(218,211,206)" stroke-width="1" opacity="1" d="M 106.5 301 L 109.5 302 L 111 301.5 L 107.5 303 L 106.5 301 Z " /><path fill="rgb(218,211,206)" stroke="rgb(218,211,206)" stroke-width="1" opacity="1" d="M 156.5 301 L 157 303.5 L 156 303.5 L 156.5 301 Z " /><path fill="rgb(218,211,206)" stroke="rgb(218,211,206)" stroke-width="1" opacity="1" d="M 68.5 302 L 72 302.5 L 68.5 303 L 68.5 302 Z " /><path fill="rgb(218,211,206)" stroke="rgb(218,211,206)" stroke-width="1" opacity="1" d="M 83.5 303 Q 90.3 301.3 92 304.5 L 90.5 304 L 83.5 304 L 83 306.5 L 82 306.5 L 83.5 303 Z " /><path fill="rgb(218,211,206)" stroke="rgb(218,211,206)" stroke-width="1" opacity="1" d="M 325.5 303 L 326 305.5 L 325 305.5 L 325.5 303 Z " /><path fill="rgb(218,211,206)" stroke="rgb(218,211,206)" stroke-width="1" opacity="1" d="M 62.5 304 L 66 304.5 L 62.5 305 L 62.5 304 Z " /><path fill="rgb(218,211,206)" stroke="rgb(218,211,206)" stroke-width="1" opacity="1" d="M 72 304 L 76 304.5 L 73 305.5 L 75 306.5 L 73.5 307 L 72 304 Z " /><path fill="rgb(218,211,206)" stroke="rgb(218,211,206)" stroke-width="1" opacity="1" d="M 100.5 304 Q 104.9 302.5 104 305.5 L 102.5 305 Q 99.5 305.5 100.5 304 Z " /><path fill="rgb(218,211,206)" stroke="rgb(218,211,206)" stroke-width="1" opacity="1" d="M 111 304 L 115 304 L 115 305.5 L 113.5 305 L 111.5 306 L 111 304 Z " /><path fill="rgb(218,211,206)" stroke="rgb(218,211,206)" stroke-width="1" opacity="1" d="M 225.5 304 L 224.5 306 L 225.5 304 Z " /><path fill="rgb(218,211,206)" stroke="rgb(218,211,206)" stroke-width="1" opacity="1" d="M 281.5 304 L 282.5 306 L 281.5 304 Z " /><path fill="rgb(218,211,206)" stroke="rgb(218,211,206)" stroke-width="1" opacity="1" d="M 44.5 305 L 45 308.5 L 44 308.5 L 44.5 305 Z " /><path fill="rgb(218,211,206)" stroke="rgb(218,211,206)" stroke-width="1" opacity="1" d="M 30.5 306 L 31 309.5 L 30 309.5 L 30.5 306 Z " /><path fill="rgb(218,211,206)" stroke="rgb(218,211,206)" stroke-width="1" opacity="1" d="M 33.5 306 L 34 309.5 L 33 309.5 L 33.5 306 Z " /><path fill="rgb(218,211,206)" stroke="rgb(218,211,206)" stroke-width="1" opacity="1" d="M 91.5 306 L 92.5 307 L 143.5 307 L 145 306.5 L 143.5 308 L 92.5 308 L 91.5 306 Z " /><path fill="rgb(218,211,206)" stroke="rgb(218,211,206)" stroke-width="1" opacity="1" d="M 155.5 306 L 156 308.5 L 155 308.5 L 155.5 306 Z " /><path fill="rgb(218,211,206)" stroke="rgb(218,211,206)" stroke-width="1" opacity="1" d="M 222.5 306 L 217.5 312 L 222.5 306 Z " /><path fill="rgb(218,211,206)" stroke="rgb(218,211,206)" stroke-width="1" opacity="1" d="M 208.5 307 L 211 307.5 L 208.5 308 L 208.5 307 Z " /><path fill="rgb(218,211,206)" stroke="rgb(218,211,206)" stroke-width="1" opacity="1" d="M 176.5 308 L 177 310.5 L 176 310.5 L 176.5 308 Z " /><path fill="rgb(218,211,206)" stroke="rgb(218,211,206)" stroke-width="1" opacity="1" d="M 203.5 308 L 206 308.5 L 203.5 309 L 203.5 308 Z " /><path fill="rgb(218,211,206)" stroke="rgb(218,211,206)" stroke-width="1" opacity="1" d="M 198.5 309 L 201 309.5 L 198.5 310 L 198.5 309 Z " /><path fill="rgb(218,211,206)" stroke="rgb(218,211,206)" stroke-width="1" opacity="1" d="M 381.5 309 L 382 311.5 L 381 311.5 L 381.5 309 Z " /><path fill="rgb(218,211,206)" stroke="rgb(218,211,206)" stroke-width="1" opacity="1" d="M 192.5 310 L 195 310.5 L 192 311 L 191.5 313 L 191 311.5 L 192.5 310 Z " /><path fill="rgb(218,211,206)" stroke="rgb(218,211,206)" stroke-width="1" opacity="1" d="M 154.5 311 L 155 315.5 L 154 315.5 L 154.5 311 Z " /><path fill="rgb(218,211,206)" stroke="rgb(218,211,206)" stroke-width="1" opacity="1" d="M 31.5 312 L 32 314.5 L 31 314.5 L 31.5 312 Z " /><path fill="rgb(218,211,206)" stroke="rgb(218,211,206)" stroke-width="1" opacity="1" d="M 56.5 312 L 59 313.5 L 57.5 314 L 56.5 312 Z " /><path fill="rgb(218,211,206)" stroke="rgb(218,211,206)" stroke-width="1" opacity="1" d="M 238.5 312 L 237.5 314 L 238.5 312 Z " /><path fill="rgb(218,211,206)" stroke="rgb(218,211,206)" stroke-width="1" opacity="1" d="M 289.5 312 L 293.5 317 L 289.5 312 Z " /><path fill="rgb(218,211,206)" stroke="rgb(218,211,206)" stroke-width="1" opacity="1" d="M 175.5 313 L 176 315.5 L 175 315.5 L 175.5 313 Z " /><path fill="rgb(218,211,206)" stroke="rgb(218,211,206)" stroke-width="1" opacity="1" d="M 341.5 313 L 342 315.5 L 341 315.5 L 341.5 313 Z " /><path fill="rgb(218,211,206)" stroke="rgb(218,211,206)" stroke-width="1" opacity="1" d="M 60.5 314 L 143 314.5 L 60.5 315 L 60.5 314 Z " /><path fill="rgb(218,211,206)" stroke="rgb(218,211,206)" stroke-width="1" opacity="1" d="M 322.5 314 L 323 316.5 L 322 316.5 L 322.5 314 Z " /><path fill="rgb(218,211,206)" stroke="rgb(218,211,206)" stroke-width="1" opacity="1" d="M 393.5 314 L 394 316.5 L 393 316.5 L 393.5 314 Z " /><path fill="rgb(218,211,206)" stroke="rgb(218,211,206)" stroke-width="1" opacity="1" d="M 234.5 316 L 234 317.5 L 233.5 319 L 233 317.5 L 234.5 316 Z " /><path fill="rgb(218,211,206)" stroke="rgb(218,211,206)" stroke-width="1" opacity="1" d="M 174.5 318 L 175 327.5 L 174 327.5 L 174.5 318 Z " /><path fill="rgb(218,211,206)" stroke="rgb(218,211,206)" stroke-width="1" opacity="1" d="M 294.5 318 L 296 320.5 L 295 320.5 L 294.5 318 Z " /><path fill="rgb(218,211,206)" stroke="rgb(218,211,206)" stroke-width="1" opacity="1" d="M 232.5 320 L 233 322.5 L 232 322.5 L 232.5 320 Z " /><path fill="rgb(218,211,206)" stroke="rgb(218,211,206)" stroke-width="1" opacity="1" d="M 378.5 320 L 379 322.5 L 378 322.5 L 378.5 320 Z " /><path fill="rgb(218,211,206)" stroke="rgb(218,211,206)" stroke-width="1" opacity="1" d="M 412.5 320 L 413 323.5 L 412 323.5 L 412.5 320 Z " /><path fill="rgb(218,211,206)" stroke="rgb(218,211,206)" stroke-width="1" opacity="1" d="M 140.5 321 L 141 322.5 L 139 323.5 L 140.5 321 Z " /><path fill="rgb(218,211,206)" stroke="rgb(218,211,206)" stroke-width="1" opacity="1" d="M 472.5 321 L 473 323.5 L 472 323.5 L 472.5 321 Z " /><path fill="rgb(218,211,206)" stroke="rgb(218,211,206)" stroke-width="1" opacity="1" d="M 453.5 322 L 454 324.5 L 453 324.5 L 453.5 322 Z " /><path fill="rgb(218,211,206)" stroke="rgb(218,211,206)" stroke-width="1" opacity="1" d="M 245.5 323 L 246 325.5 L 245 325.5 L 245.5 323 Z " /><path fill="rgb(218,211,206)" stroke="rgb(218,211,206)" stroke-width="1" opacity="1" d="M 295.5 323 L 296 325.5 L 294 326.5 L 295.5 323 Z " /><path fill="rgb(218,211,206)" stroke="rgb(218,211,206)" stroke-width="1" opacity="1" d="M 38.5 324 L 42 330.5 L 40 329.5 L 38.5 324 Z " /><path fill="rgb(218,211,206)" stroke="rgb(218,211,206)" stroke-width="1" opacity="1" d="M 212.5 324 L 213 327.5 L 212 327.5 L 212.5 324 Z " /><path fill="rgb(218,211,206)" stroke="rgb(218,211,206)" stroke-width="1" opacity="1" d="M 154.5 325 L 155 328.5 L 154 328.5 L 154.5 325 Z " /><path fill="rgb(218,211,206)" stroke="rgb(218,211,206)" stroke-width="1" opacity="1" d="M 232.5 325 L 234 328.5 L 232 327.5 L 232.5 325 Z " /><path fill="rgb(218,211,206)" stroke="rgb(218,211,206)" stroke-width="1" opacity="1" d="M 338.5 325 L 339 328.5 L 338 328.5 L 338.5 325 Z " /><path fill="rgb(218,211,206)" stroke="rgb(218,211,206)" stroke-width="1" opacity="1" d="M 51.5 326 L 52.5 328 L 51.5 326 Z " /><path fill="rgb(218,211,206)" stroke="rgb(218,211,206)" stroke-width="1" opacity="1" d="M 319.5 326 L 320 328.5 L 319 328.5 L 319.5 326 Z " /><path fill="rgb(218,211,206)" stroke="rgb(218,211,206)" stroke-width="1" opacity="1" d="M 422.5 326 L 418.5 331 L 422.5 326 Z " /><path fill="rgb(218,211,206)" stroke="rgb(218,211,206)" stroke-width="1" opacity="1" d="M 137.5 327 L 136.5 329 L 137.5 327 Z " /><path fill="rgb(218,211,206)" stroke="rgb(218,211,206)" stroke-width="1" opacity="1" d="M 442.5 327 L 441.5 329 L 442.5 327 Z " /><path fill="rgb(218,211,206)" stroke="rgb(218,211,206)" stroke-width="1" opacity="1" d="M 184.5 328 L 182.5 331 L 184.5 328 Z " /><path fill="rgb(218,211,206)" stroke="rgb(218,211,206)" stroke-width="1" opacity="1" d="M 53.5 329 L 55.5 332 L 53.5 329 Z " /><path fill="rgb(218,211,206)" stroke="rgb(218,211,206)" stroke-width="1" opacity="1" d="M 175.5 329 L 176.5 331 L 175.5 329 Z " /><path fill="rgb(218,211,206)" stroke="rgb(218,211,206)" stroke-width="1" opacity="1" d="M 204.5 329 L 203.5 331 L 204.5 329 Z " /><path fill="rgb(218,211,206)" stroke="rgb(218,211,206)" stroke-width="1" opacity="1" d="M 270.5 329 L 272 329.5 L 270 330 L 269.5 332 L 269 330.5 L 270.5 329 Z " /><path fill="rgb(218,211,206)" stroke="rgb(218,211,206)" stroke-width="1" opacity="1" d="M 412.5 329 L 417 331.5 L 414.5 332 L 412.5 329 Z " /><path fill="rgb(218,211,206)" stroke="rgb(218,211,206)" stroke-width="1" opacity="1" d="M 274.5 330 L 278 330.5 L 274.5 331 L 274.5 330 Z " /><path fill="rgb(218,211,206)" stroke="rgb(218,211,206)" stroke-width="1" opacity="1" d="M 440.5 330 L 433.5 338 L 440.5 330 Z " /><path fill="rgb(218,211,206)" stroke="rgb(218,211,206)" stroke-width="1" opacity="1" d="M 134.5 331 L 126.5 340 L 134.5 331 Z " /><path fill="rgb(218,211,206)" stroke="rgb(218,211,206)" stroke-width="1" opacity="1" d="M 178.5 331 L 181 331.5 L 178.5 332 L 178.5 331 Z " /><path fill="rgb(218,211,206)" stroke="rgb(218,211,206)" stroke-width="1" opacity="1" d="M 237.5 331 L 243 331.5 L 237.5 332 L 237.5 331 Z " /><path fill="rgb(218,211,206)" stroke="rgb(218,211,206)" stroke-width="1" opacity="1" d="M 350.5 331 L 351 333.5 L 350 333.5 L 350.5 331 Z " /><path fill="rgb(218,211,206)" stroke="rgb(218,211,206)" stroke-width="1" opacity="1" d="M 42.5 332 L 43.5 334 L 42.5 332 Z " /><path fill="rgb(218,211,206)" stroke="rgb(218,211,206)" stroke-width="1" opacity="1" d="M 202.5 332 L 201.5 334 L 202.5 332 Z " /><path fill="rgb(218,211,206)" stroke="rgb(218,211,206)" stroke-width="1" opacity="1" d="M 310.5 332 L 305.5 338 L 310.5 332 Z " /><path fill="rgb(218,211,206)" stroke="rgb(218,211,206)" stroke-width="1" opacity="1" d="M 39.5 333 L 40.5 335 L 39.5 333 Z " /><path fill="rgb(218,211,206)" stroke="rgb(218,211,206)" stroke-width="1" opacity="1" d="M 214.5 333 L 216 335.5 L 214 334.5 L 214.5 333 Z " /><path fill="rgb(218,211,206)" stroke="rgb(218,211,206)" stroke-width="1" opacity="1" d="M 44.5 335 L 45.5 337 L 44.5 335 Z " /><path fill="rgb(218,211,206)" stroke="rgb(218,211,206)" stroke-width="1" opacity="1" d="M 200.5 335 L 196.5 340 L 200.5 335 Z " /><path fill="rgb(218,211,206)" stroke="rgb(218,211,206)" stroke-width="1" opacity="1" d="M 349.5 335 L 350 337.5 L 349 337.5 L 349.5 335 Z " /><path fill="rgb(218,211,206)" stroke="rgb(218,211,206)" stroke-width="1" opacity="1" d="M 395.5 335 L 396.5 337 L 395.5 335 Z " /><path fill="rgb(218,211,206)" stroke="rgb(218,211,206)" stroke-width="1" opacity="1" d="M 41.5 336 L 42.5 338 L 41.5 336 Z " /><path fill="rgb(218,211,206)" stroke="rgb(218,211,206)" stroke-width="1" opacity="1" d="M 157.5 336 L 158.5 338 L 157.5 336 Z " /><path fill="rgb(218,211,206)" stroke="rgb(218,211,206)" stroke-width="1" opacity="1" d="M 454.5 336 L 460 340.5 L 458.5 341 L 454.5 336 Z " /><path fill="rgb(218,211,206)" stroke="rgb(218,211,206)" stroke-width="1" opacity="1" d="M 260.5 337 L 261 339.5 L 259 340.5 L 260.5 337 Z " /><path fill="rgb(218,211,206)" stroke="rgb(218,211,206)" stroke-width="1" opacity="1" d="M 62.5 338 L 64.5 341 L 62.5 338 Z " /><path fill="rgb(218,211,206)" stroke="rgb(218,211,206)" stroke-width="1" opacity="1" d="M 431.5 338 L 430.5 340 L 431.5 338 Z " /><path fill="rgb(218,211,206)" stroke="rgb(218,211,206)" stroke-width="1" opacity="1" d="M 482.5 338 L 483 340.5 L 482 340.5 L 482.5 338 Z " /><path fill="rgb(218,211,206)" stroke="rgb(218,211,206)" stroke-width="1" opacity="1" d="M 47.5 339 L 54.5 347 L 47.5 339 Z " /><path fill="rgb(218,211,206)" stroke="rgb(218,211,206)" stroke-width="1" opacity="1" d="M 219.5 339 L 220.5 341 L 219.5 339 Z " /><path fill="rgb(218,211,206)" stroke="rgb(218,211,206)" stroke-width="1" opacity="1" d="M 354.5 339 L 355 341.5 L 354 341.5 L 354.5 339 Z " /><path fill="rgb(218,211,206)" stroke="rgb(218,211,206)" stroke-width="1" opacity="1" d="M 399.5 339 L 400.5 341 L 399.5 339 Z " /><path fill="rgb(218,211,206)" stroke="rgb(218,211,206)" stroke-width="1" opacity="1" d="M 44.5 340 L 53.5 350 L 44.5 340 Z " /><path fill="rgb(218,211,206)" stroke="rgb(218,211,206)" stroke-width="1" opacity="1" d="M 194.5 340 L 193.5 342 L 194.5 340 Z " /><path fill="rgb(218,211,206)" stroke="rgb(218,211,206)" stroke-width="1" opacity="1" d="M 66.5 341 L 67.5 343 L 66.5 341 Z " /><path fill="rgb(218,211,206)" stroke="rgb(218,211,206)" stroke-width="1" opacity="1" d="M 123.5 341 L 122.5 343 L 123.5 341 Z " /><path fill="rgb(218,211,206)" stroke="rgb(218,211,206)" stroke-width="1" opacity="1" d="M 268.5 341 L 271 341.5 L 268.5 342 L 268.5 341 Z " /><path fill="rgb(218,211,206)" stroke="rgb(218,211,206)" stroke-width="1" opacity="1" d="M 326.5 341 L 329 341.5 L 326.5 342 L 326.5 341 Z " /><path fill="rgb(218,211,206)" stroke="rgb(218,211,206)" stroke-width="1" opacity="1" d="M 249.5 342 L 253 342.5 L 249.5 343 L 249.5 342 Z " /><path fill="rgb(218,211,206)" stroke="rgb(218,211,206)" stroke-width="1" opacity="1" d="M 273.5 342 L 276 342.5 L 273.5 343 L 273.5 342 Z " /><path fill="rgb(218,211,206)" stroke="rgb(218,211,206)" stroke-width="1" opacity="1" d="M 293.5 342 L 296 342.5 L 293.5 343 L 293.5 342 Z " /><path fill="rgb(218,211,206)" stroke="rgb(218,211,206)" stroke-width="1" opacity="1" d="M 227.5 343 L 231 343.5 L 227.5 344 L 227.5 343 Z " /><path fill="rgb(218,211,206)" stroke="rgb(218,211,206)" stroke-width="1" opacity="1" d="M 241.5 343 L 246 343.5 L 241.5 344 L 241.5 343 Z " /><path fill="rgb(218,211,206)" stroke="rgb(218,211,206)" stroke-width="1" opacity="1" d="M 280.5 343 L 291 343.5 L 280.5 344 L 280.5 343 Z " /><path fill="rgb(218,211,206)" stroke="rgb(218,211,206)" stroke-width="1" opacity="1" d="M 408.5 343 L 420 343.5 L 408.5 344 L 408.5 343 Z " /><path fill="rgb(218,211,206)" stroke="rgb(218,211,206)" stroke-width="1" opacity="1" d="M 536.5 343 L 537 345.5 L 536 345.5 L 536.5 343 Z " /><path fill="rgb(218,211,206)" stroke="rgb(218,211,206)" stroke-width="1" opacity="1" d="M 71.5 344 L 74 345.5 L 72.5 346 L 71.5 344 Z " /><path fill="rgb(218,211,206)" stroke="rgb(218,211,206)" stroke-width="1" opacity="1" d="M 56.5 347 L 58.5 350 L 56.5 347 Z " /><path fill="rgb(218,211,206)" stroke="rgb(218,211,206)" stroke-width="1" opacity="1" d="M 84.5 349 L 87 349.5 L 84.5 350 L 84.5 349 Z " /><path fill="rgb(218,211,206)" stroke="rgb(218,211,206)" stroke-width="1" opacity="1" d="M 103.5 349 L 106 349.5 L 103.5 350 L 103.5 349 Z " /><path fill="rgb(218,211,206)" stroke="rgb(218,211,206)" stroke-width="1" opacity="1" d="M 55.5 350 L 56.5 352 L 55.5 350 Z " /><path fill="rgb(218,211,206)" stroke="rgb(218,211,206)" stroke-width="1" opacity="1" d="M 60.5 350 L 64 352.5 L 62.5 352 L 60.5 350 Z " /><path fill="rgb(218,211,206)" stroke="rgb(218,211,206)" stroke-width="1" opacity="1" d="M 91.5 350 L 99 350.5 L 91.5 351 L 91.5 350 Z " /><path fill="rgb(218,211,206)" stroke="rgb(218,211,206)" stroke-width="1" opacity="1" d="M 58.5 352 L 59.5 354 L 58.5 352 Z " /><path fill="rgb(218,211,206)" stroke="rgb(218,211,206)" stroke-width="1" opacity="1" d="M 79.5 358 L 82 358.5 L 79.5 359 L 79.5 358 Z " /><path fill="rgb(218,211,206)" stroke="rgb(218,211,206)" stroke-width="1" opacity="1" d="M 84.5 359 L 88 359.5 L 84.5 360 L 84.5 359 Z " /><path fill="rgb(218,211,206)" stroke="rgb(218,211,206)" stroke-width="1" opacity="1" d="M 92.5 360 L 100 360.5 L 92.5 361 L 92.5 360 Z " /><path fill="rgb(218,211,206)" stroke="rgb(218,211,206)" stroke-width="1" opacity="1" d="M 79.5 361 L 82 361.5 L 79.5 362 L 79.5 361 Z " /><path fill="rgb(218,211,206)" stroke="rgb(218,211,206)" stroke-width="1" opacity="1" d="M 84.5 362 L 88 362.5 L 84.5 363 L 84.5 362 Z " /><path fill="rgb(218,211,206)" stroke="rgb(218,211,206)" stroke-width="1" opacity="1" d="M 91.5 363 L 97 363.5 L 91.5 364 L 91.5 363 Z " /><path fill="rgb(212,234,227)" stroke="rgb(212,234,227)" stroke-width="1" opacity="1" d="M 101.5 238 L 564 238.5 L 101.5 239 L 101.5 238 Z " /><path fill="rgb(212,234,227)" stroke="rgb(212,234,227)" stroke-width="1" opacity="1" d="M 77.5 251 L 76.5 253 L 77.5 251 Z " /><path fill="rgb(212,234,227)" stroke="rgb(212,234,227)" stroke-width="1" opacity="1" d="M 62.5 259 L 60.5 262 L 62.5 259 Z " /><path fill="rgb(212,234,227)" stroke="rgb(212,234,227)" stroke-width="1" opacity="1" d="M 46.5 261 L 45.5 263 L 46.5 261 Z " /><path fill="rgb(212,234,227)" stroke="rgb(212,234,227)" stroke-width="1" opacity="1" d="M 130.5 262 L 132.5 265 L 130.5 262 Z " /><path fill="rgb(212,234,227)" stroke="rgb(212,234,227)" stroke-width="1" opacity="1" d="M 56.5 265 L 55.5 267 L 56.5 265 Z " /><path fill="rgb(212,234,227)" stroke="rgb(212,234,227)" stroke-width="1" opacity="1" d="M 33.5 293 L 34 296.5 L 33 296.5 L 33.5 293 Z " /><path fill="rgb(212,234,227)" stroke="rgb(212,234,227)" stroke-width="1" opacity="1" d="M 43.5 297 L 44 301.5 L 43 301.5 L 43.5 297 Z " /><path fill="rgb(212,234,227)" stroke="rgb(212,234,227)" stroke-width="1" opacity="1" d="M 33.5 302 L 34 305.5 L 33 305.5 L 33.5 302 Z " /><path fill="rgb(212,234,227)" stroke="rgb(212,234,227)" stroke-width="1" opacity="1" d="M 54.5 310 L 55.5 312 L 54.5 310 Z " /><path fill="rgb(212,234,227)" stroke="rgb(212,234,227)" stroke-width="1" opacity="1" d="M 136.5 329 L 135.5 331 L 136.5 329 Z " /><path fill="rgb(212,234,227)" stroke="rgb(212,234,227)" stroke-width="1" opacity="1" d="M 55.5 332 L 61.5 339 L 55.5 332 Z " /><path fill="rgb(212,234,227)" stroke="rgb(212,234,227)" stroke-width="1" opacity="1" d="M 46.5 337 L 47.5 339 L 46.5 337 Z " /><path fill="rgb(212,234,227)" stroke="rgb(212,234,227)" stroke-width="1" opacity="1" d="M 88.5 350 L 91 350.5 L 88.5 351 L 88.5 350 Z " /><path fill="rgb(212,234,227)" stroke="rgb(212,234,227)" stroke-width="1" opacity="1" d="M 100.5 360 L 532 360.5 L 100.5 361 L 100.5 360 Z " /></svg>