<svg version="1.1" id="Layer_1" xmlns:x="ns_extend;" xmlns:i="ns_ai;" xmlns:graph="ns_graphs;" xmlns="http://www.w3.org/2000/svg" xmlns:xlink="http://www.w3.org/1999/xlink" x="0px" y="0px" viewBox="0 0 229.4 53.9" style="enable-background:new 0 0 229.4 53.9;" xml:space="preserve">
 <style type="text/css">
  .st0{fill:#FFFFFF;}
	.st1{fill:#009343;}
	.st2{fill:#F00023;}
 </style>
 <metadata>
  <sfw xmlns="ns_sfw;">
   <slices>
   </slices>
   <sliceSourceBounds bottomLeftOrigin="true" height="53.9" width="229.4" x="-72.8" y="2">
   </sliceSourceBounds>
  </sfw>
 </metadata>
 <g>
  <g>
   <g>
    <path class="st0" d="M24.1,23.1h29.5c-0.3-1.7-0.7-3.4-1.3-5.1H25.2c-2.2,0-3-0.8-2.7-2.6L25.4,0c-0.7,0-1.5,0.1-2.2,0.2
				l-4.3,16.4C17.7,21.2,19.2,23.1,24.1,23.1L24.1,23.1z">
    </path>
    <path class="st0" d="M22.5,31.1c-7.9,0-11.5-4.4-9.1-11.3l6.7-18.9c-0.8,0.2-1.6,0.5-2.4,0.8L9.3,20.8c-3.9,9.1,1,15.3,12.5,15.3
				h30.5c0.6-1.6,1-3.3,1.3-5.1L22.5,31.1L22.5,31.1z">
    </path>
    <path class="st1" d="M25.2,18h27.2C48.7,7.5,38.7,0,26.9,0c-0.5,0-1,0-1.5,0l-2.9,15.3C22.2,17.2,23,18,25.2,18L25.2,18z">
    </path>
    <path class="st1" d="M9.3,20.8l8.4-19.2C7.4,5.4,0.3,15.1,0,26.3C-0.1,57,41.5,64.6,52.3,36.2H21.8C10.3,36.2,5.4,29.9,9.3,20.8
				L9.3,20.8z">
    </path>
    <path class="st2" d="M22.5,31.1h31.1c0.2-1.3,0.3-2.7,0.3-4.1c0-1.3-0.1-2.6-0.3-3.9H24.1c-4.9,0-6.4-1.8-5.2-6.4l4.3-16.4
				c-1.1,0.1-2.1,0.4-3.1,0.6l-6.7,18.9C11,26.7,14.6,31.1,22.5,31.1L22.5,31.1z M62.8,29.5c0-11.2,8.3-19.7,19.4-19.7
				c7,0,12.6,4.1,14.9,10.5l-7.8,2.2c-1.2-3.5-4.1-5.4-7.9-5.4c-6.4,0-11.1,4.9-11.1,11.7c0,5.3,3.4,8.8,8.9,8.8
				c3.7,0,7.1-2,8.7-5.4l6.8,3.5c-3.2,5.7-9.4,9.4-16.3,9.4C69.1,45.1,62.8,38.4,62.8,29.5L62.8,29.5z M96.4,32.5
				c0-8.7,6.6-15.9,14.7-15.9c3.8,0,6.6,1.3,8.4,3.9l1.4-3.2h5.9l-2.9,27h-7l0.4-3.2c-2.4,2.6-5.4,3.9-9.2,3.9
				C101.4,45.1,96.4,39.7,96.4,32.5L96.4,32.5z M118.5,29.9c0-3.9-2.8-6.6-6.8-6.6c-4.7,0-8.2,3.7-8.2,8.6c0,3.9,2.6,6.6,6.7,6.6
				C114.9,38.5,118.5,34.7,118.5,29.9L118.5,29.9z M155.8,35.3l1.2-11.2h-4.7l0.7-6.7h4.7l0.6-5.5l7.2-2.1l-0.8,7.6h6.1l-0.7,6.7
				h-6.1l-1.2,11.2c-0.2,2.2,1,2.9,3.7,2.9c0.6,0,1.4-0.1,2.2-0.1l-0.7,6.3c-1.3,0.2-2.5,0.2-3.6,0.2
				C157.2,44.6,155.1,41.5,155.8,35.3L155.8,35.3z M171.6,44.4l2.9-27h5.9l0.8,3.2c2.1-2.5,5.4-3.7,8.6-3.7l-0.8,7.2h-1.1
				c-3.8,0-7.3,2.2-7.8,6.9l-1.4,13.4L171.6,44.4L171.6,44.4z M188.6,32.4c0-8.8,7-15.8,15.8-15.8c7.4,0,12.8,5.5,12.8,12.7
				c0,8.8-7,15.8-15.8,15.8C194,45.1,188.6,39.7,188.6,32.4z M210.2,29.9c0-3.8-2.6-6.5-6.5-6.5c-4.6,0-8.1,3.6-8.1,8.4
				c0,3.8,2.6,6.5,6.5,6.5C206.7,38.3,210.2,34.7,210.2,29.9z M218.8,44.4l3.4-32.5l7.2-2.1l-3.6,34.6L218.8,44.4L218.8,44.4z
				 M126.5,37.7l7.1-2.4c0.9,2.3,2.6,3.5,5.1,3.5c2.5,0,3.8-0.9,3.8-2.2c0-3.9-12.8-2.1-12.8-10.5c0-5.5,4.7-9.5,11.2-9.5
				c4.6,0,8,2.7,9.4,7.5l-6.8,1.9c-0.5-2.2-1.7-3.2-3.6-3.2s-3.1,1-3.1,2.3c0,3.8,12.9,1.6,12.9,10.6c0,5.6-4.8,9.4-12,9.4
				C132.2,45.1,128.3,42.6,126.5,37.7L126.5,37.7z">
    </path>
   </g>
  </g>
 </g>
</svg>