<svg width="600" height="600" version="1.1" xmlns="http://www.w3.org/2000/svg" desc="Created with imagetracer.js version 1.2.6" ><path fill="rgb(0,120,192)" stroke="rgb(0,120,192)" stroke-width="1" opacity="1" d="M 109.5 30 L 112 30.5 L 109.5 31 L 109.5 30 Z " /><path fill="rgb(0,120,192)" stroke="rgb(0,120,192)" stroke-width="1" opacity="1" d="M 155.5 31 L 157 31.5 L 157 62.5 L 157.5 64 L 156 63.5 L 156 32.5 L 155.5 31 Z " /><path fill="rgb(0,120,192)" stroke="rgb(0,120,192)" stroke-width="1" opacity="1" d="M 76.5 39 L 75.5 41 L 76.5 39 Z " /><path fill="rgb(0,120,192)" stroke="rgb(0,120,192)" stroke-width="1" opacity="1" d="M 72.5 42 L 69.5 46 L 72.5 42 Z " /><path fill="rgb(0,120,192)" stroke="rgb(0,120,192)" stroke-width="1" opacity="1" d="M 91.5 53 L 90.5 55 L 91.5 53 Z " /><path fill="rgb(0,120,192)" stroke="rgb(0,120,192)" stroke-width="1" opacity="1" d="M 240.5 53 L 248 53.5 L 240.5 54 L 240.5 53 Z " /><path fill="rgb(0,120,192)" stroke="rgb(0,120,192)" stroke-width="1" opacity="1" d="M 430.5 53 L 438 53.5 L 430.5 54 L 430.5 53 Z " /><path fill="rgb(0,120,192)" stroke="rgb(0,120,192)" stroke-width="1" opacity="1" d="M 446.5 55 L 450 56.5 L 447.5 57 L 446.5 55 Z " /><path fill="rgb(0,120,192)" stroke="rgb(0,120,192)" stroke-width="1" opacity="1" d="M 279.5 56 L 298 56.5 L 279.5 57 L 278.5 58 L 279.5 56 Z " /><path fill="rgb(0,120,192)" stroke="rgb(0,120,192)" stroke-width="1" opacity="1" d="M 325.5 56 L 347 56.5 L 325.5 57 L 325.5 56 Z " /><path fill="rgb(0,120,192)" stroke="rgb(0,120,192)" stroke-width="1" opacity="1" d="M 353 56 L 371.5 56 Q 372.6 56.1 372 61.5 L 371 61.5 Q 371.5 57 370.5 57 L 354 57 L 353.5 61 L 353 56 Z " /><path fill="rgb(0,120,192)" stroke="rgb(0,120,192)" stroke-width="1" opacity="1" d="M 479.5 56 L 495 56.5 L 479.5 57 L 479.5 56 Z " /><path fill="rgb(0,120,192)" stroke="rgb(0,120,192)" stroke-width="1" opacity="1" d="M 530.5 57 L 534.5 62 L 530.5 57 Z " /><path fill="rgb(0,120,192)" stroke="rgb(0,120,192)" stroke-width="1" opacity="1" d="M 86.5 58 L 85.5 60 L 86.5 58 Z " /><path fill="rgb(0,120,192)" stroke="rgb(0,120,192)" stroke-width="1" opacity="1" d="M 190.5 58 L 192.5 61 L 190.5 58 Z " /><path fill="rgb(0,120,192)" stroke="rgb(0,120,192)" stroke-width="1" opacity="1" d="M 224.5 58 L 223.5 60 L 224.5 58 Z " /><path fill="rgb(0,120,192)" stroke="rgb(0,120,192)" stroke-width="1" opacity="1" d="M 414.5 58 L 413.5 60 L 414.5 58 Z " /><path fill="rgb(0,120,192)" stroke="rgb(0,120,192)" stroke-width="1" opacity="1" d="M 504.5 58 L 499.5 64 L 504.5 58 Z " /><path fill="rgb(0,120,192)" stroke="rgb(0,120,192)" stroke-width="1" opacity="1" d="M 161.5 59 L 159.5 62 L 161.5 59 Z " /><path fill="rgb(0,120,192)" stroke="rgb(0,120,192)" stroke-width="1" opacity="1" d="M 264.5 60 L 266.5 63 L 264.5 60 Z " /><path fill="rgb(0,120,192)" stroke="rgb(0,120,192)" stroke-width="1" opacity="1" d="M 220.5 61 L 217.5 65 L 220.5 61 Z " /><path fill="rgb(0,120,192)" stroke="rgb(0,120,192)" stroke-width="1" opacity="1" d="M 377.5 61 L 376.5 63 L 377.5 61 Z " /><path fill="rgb(0,120,192)" stroke="rgb(0,120,192)" stroke-width="1" opacity="1" d="M 410.5 61 L 408.5 64 L 410.5 61 Z " /><path fill="rgb(0,120,192)" stroke="rgb(0,120,192)" stroke-width="1" opacity="1" d="M 478.5 62 L 479 122 L 498 122.5 L 479.5 123 L 478 121.5 L 478.5 62 Z " /><path fill="rgb(0,120,192)" stroke="rgb(0,120,192)" stroke-width="1" opacity="1" d="M 496.5 63 L 498 65.5 L 496 66 L 496.5 63 Z " /><path fill="rgb(0,120,192)" stroke="rgb(0,120,192)" stroke-width="1" opacity="1" d="M 535.5 63 L 536.5 65 L 535.5 63 Z " /><path fill="rgb(0,120,192)" stroke="rgb(0,120,192)" stroke-width="1" opacity="1" d="M 461.5 66 L 462.5 68 L 461.5 66 Z " /><path fill="rgb(0,120,192)" stroke="rgb(0,120,192)" stroke-width="1" opacity="1" d="M 301.5 67 L 303 69.5 L 302 69.5 L 301.5 67 Z " /><path fill="rgb(0,120,192)" stroke="rgb(0,120,192)" stroke-width="1" opacity="1" d="M 58.5 68 L 59 87.5 L 58 87.5 L 58.5 68 Z " /><path fill="rgb(0,120,192)" stroke="rgb(0,120,192)" stroke-width="1" opacity="1" d="M 249.5 68 L 252.5 72 L 249.5 68 Z " /><path fill="rgb(0,120,192)" stroke="rgb(0,120,192)" stroke-width="1" opacity="1" d="M 235.5 69 L 232.5 73 L 235.5 69 Z " /><path fill="rgb(0,120,192)" stroke="rgb(0,120,192)" stroke-width="1" opacity="1" d="M 166.5 70 L 170 70.5 L 166.5 71 L 166.5 70 Z " /><path fill="rgb(0,120,192)" stroke="rgb(0,120,192)" stroke-width="1" opacity="1" d="M 426.5 70 L 424.5 73 L 426.5 70 Z " /><path fill="rgb(0,120,192)" stroke="rgb(0,120,192)" stroke-width="1" opacity="1" d="M 441.5 70 L 443.5 73 L 441.5 70 Z " /><path fill="rgb(0,120,192)" stroke="rgb(0,120,192)" stroke-width="1" opacity="1" d="M 508.5 70 L 512 70.5 L 508.5 71 L 508.5 70 Z " /><path fill="rgb(0,120,192)" stroke="rgb(0,120,192)" stroke-width="1" opacity="1" d="M 80.5 72 L 81 74.5 L 80 74.5 L 80.5 72 Z " /><path fill="rgb(0,120,192)" stroke="rgb(0,120,192)" stroke-width="1" opacity="1" d="M 161.5 72 L 159.5 75 L 161.5 72 Z " /><path fill="rgb(0,120,192)" stroke="rgb(0,120,192)" stroke-width="1" opacity="1" d="M 174.5 72 L 176.5 75 L 174.5 72 Z " /><path fill="rgb(0,120,192)" stroke="rgb(0,120,192)" stroke-width="1" opacity="1" d="M 516.5 72 L 517.5 74 L 516.5 72 Z " /><path fill="rgb(0,120,192)" stroke="rgb(0,120,192)" stroke-width="1" opacity="1" d="M 539.5 73 L 540 75.5 L 539 75.5 L 539.5 73 Z " /><path fill="rgb(0,120,192)" stroke="rgb(0,120,192)" stroke-width="1" opacity="1" d="M 272.5 75 L 273.5 77 L 272.5 75 Z " /><path fill="rgb(0,120,192)" stroke="rgb(0,120,192)" stroke-width="1" opacity="1" d="M 198.5 76 L 199 80.5 L 198 80.5 L 198.5 76 Z " /><path fill="rgb(0,120,192)" stroke="rgb(0,120,192)" stroke-width="1" opacity="1" d="M 379.5 76 L 377.5 79 L 379.5 76 Z " /><path fill="rgb(0,120,192)" stroke="rgb(0,120,192)" stroke-width="1" opacity="1" d="M 80.5 81 L 81 83.5 L 80 83.5 L 80.5 81 Z " /><path fill="rgb(0,120,192)" stroke="rgb(0,120,192)" stroke-width="1" opacity="1" d="M 156.5 81 L 157 123 L 137 122.5 L 156 122 L 156.5 81 Z " /><path fill="rgb(0,120,192)" stroke="rgb(0,120,192)" stroke-width="1" opacity="1" d="M 179.5 84 L 180 122 L 199 122.5 L 179 123 L 179.5 84 Z " /><path fill="rgb(0,120,192)" stroke="rgb(0,120,192)" stroke-width="1" opacity="1" d="M 209.5 85 L 210 92.5 L 209 92.5 L 209.5 85 Z " /><path fill="rgb(0,120,192)" stroke="rgb(0,120,192)" stroke-width="1" opacity="1" d="M 334.5 92 L 333.5 94 L 334.5 92 Z " /><path fill="rgb(0,120,192)" stroke="rgb(0,120,192)" stroke-width="1" opacity="1" d="M 274.5 94 L 275 96 L 230 95.5 L 273.5 95 L 274.5 94 Z " /><path fill="rgb(0,120,192)" stroke="rgb(0,120,192)" stroke-width="1" opacity="1" d="M 86.5 98 L 88.5 101 L 86.5 98 Z " /><path fill="rgb(0,120,192)" stroke="rgb(0,120,192)" stroke-width="1" opacity="1" d="M 232.5 103 L 235.5 107 L 232.5 103 Z " /><path fill="rgb(0,120,192)" stroke="rgb(0,120,192)" stroke-width="1" opacity="1" d="M 122.5 104 L 124 106.5 L 123 106.5 L 122.5 104 Z " /><path fill="rgb(0,120,192)" stroke="rgb(0,120,192)" stroke-width="1" opacity="1" d="M 423.5 105 L 426.5 109 L 423.5 105 Z " /><path fill="rgb(0,120,192)" stroke="rgb(0,120,192)" stroke-width="1" opacity="1" d="M 443.5 106 L 441.5 109 L 443.5 106 Z " /><path fill="rgb(0,120,192)" stroke="rgb(0,120,192)" stroke-width="1" opacity="1" d="M 66.5 107 L 67.5 109 L 66.5 107 Z " /><path fill="rgb(0,120,192)" stroke="rgb(0,120,192)" stroke-width="1" opacity="1" d="M 123.5 109 L 125 111.5 L 124 111.5 L 123.5 109 Z " /><path fill="rgb(0,120,192)" stroke="rgb(0,120,192)" stroke-width="1" opacity="1" d="M 431.5 110 L 437 110.5 L 431.5 111 L 431.5 110 Z " /><path fill="rgb(0,120,192)" stroke="rgb(0,120,192)" stroke-width="1" opacity="1" d="M 215.5 111 L 216.5 113 L 215.5 111 Z " /><path fill="rgb(0,120,192)" stroke="rgb(0,120,192)" stroke-width="1" opacity="1" d="M 405.5 111 L 406.5 113 L 405.5 111 Z " /><path fill="rgb(0,120,192)" stroke="rgb(0,120,192)" stroke-width="1" opacity="1" d="M 462.5 111 L 461.5 113 L 462.5 111 Z " /><path fill="rgb(0,120,192)" stroke="rgb(0,120,192)" stroke-width="1" opacity="1" d="M 74.5 115 L 75.5 117 L 74.5 115 Z " /><path fill="rgb(0,120,192)" stroke="rgb(0,120,192)" stroke-width="1" opacity="1" d="M 222.5 118 L 223.5 120 L 222.5 118 Z " /><path fill="rgb(0,120,192)" stroke="rgb(0,120,192)" stroke-width="1" opacity="1" d="M 300.5 122 L 325 122.5 L 300.5 123 L 300.5 122 Z " /><path fill="rgb(0,120,192)" stroke="rgb(0,120,192)" stroke-width="1" opacity="1" d="M 354.5 122 L 373 122.5 L 354.5 123 L 354.5 122 Z " /><path fill="rgb(0,120,192)" stroke="rgb(0,120,192)" stroke-width="1" opacity="1" d="M 521.5 122 L 540 122.5 L 521.5 123 L 521.5 122 Z " /><path fill="rgb(0,120,192)" stroke="rgb(0,120,192)" stroke-width="1" opacity="1" d="M 102.5 125 L 109 125.5 L 102.5 126 L 102.5 125 Z " /><path fill="rgb(0,120,192)" stroke="rgb(0,120,192)" stroke-width="1" opacity="1" d="M 243.5 125 L 250 125.5 L 243.5 126 L 243.5 125 Z " /><path fill="rgb(0,120,192)" stroke="rgb(0,120,192)" stroke-width="1" opacity="1" d="M 431.5 125 L 437 125.5 L 431.5 126 L 431.5 125 Z " /><path fill="rgb(0,120,192)" stroke="rgb(0,120,192)" stroke-width="1" opacity="1" d="M 540.5 142 L 541 170.5 L 540 170.5 L 540.5 142 Z " /><path fill="rgb(0,120,192)" stroke="rgb(0,120,192)" stroke-width="1" opacity="1" d="M 484.5 160 L 540 181 L 539.5 198 L 539 196 L 461.5 169 L 460 169.5 L 484.5 160 Z " /><path fill="rgb(0,120,192)" stroke="rgb(0,120,192)" stroke-width="1" opacity="1" d="M 183.5 184 L 218.5 195 L 220 196.5 L 218.5 199 L 221 197.5 L 221.5 196 L 226 198.5 L 221.5 204 L 210 213.5 Q 210.8 215.8 208.5 215 L 182.5 239 L 181 239 Q 182.1 241.7 179.5 241 L 162.5 257 L 161 257 Q 162.1 259.7 159.5 259 L 147 270.5 L 149 271.5 L 147.5 272 L 144.5 271 L 144.5 272 L 146 272.5 L 144.5 273 L 141.5 272 L 141.5 273 L 143 273.5 L 141.5 274 L 138.5 273 L 138.5 274 L 140 274.5 L 138.5 275 L 134 273 Q 135.1 275.7 132.5 275 L 132.5 276 L 134 276.5 L 132.5 277 L 131 276.5 Q 131.8 279.1 128.5 278 L 79 295.5 L 86.5 299 L 89.5 299 L 320 374.5 L 312 378 Q 313.3 375 309.5 376 L 71.5 298 L 60 301.5 L 60.5 303 Q 58 302 59 297.5 L 64 294 Q 62.9 291.3 65.5 292 L 74 285 Q 72.9 282.3 75.5 283 L 82 278 L 82 276 L 84 276 Q 82.9 273.3 85.5 274 L 102.5 258 L 104 258 Q 102.9 255.3 105.5 256 L 114 249 Q 112.9 246.3 115.5 247 L 183 185.5 L 183.5 184 Z M 214 202 L 210 207 L 215 203 L 214 202 Z M 204 211 L 199 217 L 205 212 L 204 211 Z M 192 221 L 192 223 L 194 222 L 192 221 Z M 191 223 L 188 227 L 192 224 L 191 223 Z M 184 229 L 180 234 L 185 230 L 184 229 Z M 175 237 L 169 244 L 176 238 L 175 237 Z M 164 247 L 160 252 L 165 248 L 164 247 Z M 159 252 L 157 254 L 159 254 L 159 252 Z M 155 255 L 148 263 L 156 256 L 155 255 Z M 145 264 L 140 270 L 146 265 L 145 264 Z M 138 271 L 136 273 L 138 273 L 138 271 Z " /><path fill="rgb(0,120,192)" stroke="rgb(0,120,192)" stroke-width="1" opacity="1" d="M 297.5 221 L 296.5 223 L 297.5 221 Z " /><path fill="rgb(0,119,192)" stroke="rgb(0,119,192)" stroke-width="1" opacity="1" d="M 105.5 30 L 120.5 32 L 126 34 L 124 49.5 L 122.5 52 Q 115.6 46.9 101.5 49 Q 90.4 51.4 85 59.5 L 80 72.5 L 80 83.5 L 82 91.5 L 88.5 101 Q 96.8 109.7 116.5 107 L 123 105 L 124 108.5 L 124 110.5 L 125 112.5 L 125 114.5 L 126 122 Q 115.4 127 96.5 125 Q 77.8 121.7 68 109.5 Q 61.8 101.7 59 90.5 L 59 66.5 Q 62.9 49.9 74.5 41 L 86.5 34 L 105.5 30 Z " /><path fill="rgb(0,119,192)" stroke="rgb(0,119,192)" stroke-width="1" opacity="1" d="M 154.5 32 L 156 32.5 L 156 63.5 L 157.5 64 Q 163.7 54.2 179.5 54 L 188.5 57 L 194 62.5 L 198 72.5 L 198 80.5 L 199 81.5 L 199 122 L 180 122 L 180 84.5 Q 177.7 83.2 179 78.5 L 174.5 72 L 166.5 70 L 159 74.5 L 156 81.5 L 156 122 L 137.5 122 L 137 121.5 L 137 38 L 154.5 32 Z " /><path fill="rgb(0,119,192)" stroke="rgb(0,119,192)" stroke-width="1" opacity="1" d="M 236.5 54 Q 260.8 51.7 269 65.5 L 273 74.5 Q 270.5 76 274 77.5 L 273 79.5 Q 276.2 82.8 275 90.5 L 275 92.5 L 273.5 95 L 230.5 95 L 230 98.5 L 229.5 100 Q 231.8 99.3 231 101.5 L 235.5 107 Q 242.7 112.3 257.5 110 L 269 106 L 271 121 L 256.5 125 L 237.5 125 Q 224.3 122.2 217 113.5 Q 211.9 107.1 210 97.5 L 210 80.5 Q 212.9 66.9 222.5 60 L 236.5 54 Z M 240 67 L 236 69 L 232 73 L 229 82 L 256 82 L 255 75 L 253 72 Q 250 66 240 67 Z " /><path fill="rgb(0,119,192)" stroke="rgb(0,119,192)" stroke-width="1" opacity="1" d="M 426.5 54 L 441.5 54 L 456 60 Q 454.9 62.7 457.5 62 Q 470 72 468 96.5 Q 465.3 111.3 455.5 119 L 441.5 125 L 426.5 125 Q 413.6 122.4 407 113.5 Q 398.1 103.4 400 82.5 Q 401.5 73 406 66.5 L 412.5 60 L 426.5 54 Z M 432 68 L 427 70 L 422 76 L 419 84 L 420 85 L 420 98 L 423 106 Q 426 110 432 111 Q 438 112 442 109 Q 447 105 448 98 Q 450 81 444 73 Q 441 67 432 68 Z " /><path fill="rgb(0,119,192)" stroke="rgb(0,119,192)" stroke-width="1" opacity="1" d="M 516.5 54 Q 530.4 53.6 535 62.5 L 538 67.5 L 540 76.5 L 540 122 L 521 122 L 521 80.5 L 516.5 72 L 508.5 70 Q 502.8 71.3 500 75.5 L 498 79.5 L 498 122 L 479.5 122 L 479 121.5 L 479 62.5 Q 476.7 61.3 478 56.5 L 479.5 57 L 494.5 57 L 495.5 56 L 496 66 L 505.5 58 L 516.5 54 Z " /><path fill="rgb(0,119,192)" stroke="rgb(0,119,192)" stroke-width="1" opacity="1" d="M 387.5 55 L 396 55 L 396 73 Q 382.2 70.8 377 78.5 L 373 87.5 L 373 122 L 354.5 122 L 354 121.5 L 354 57 L 370.5 57 Q 371.5 57 371 61.5 L 372 62.5 L 372 69 Q 374.7 70.1 374 67.5 L 380.5 58 L 387.5 55 Z " /><path fill="rgb(0,119,192)" stroke="rgb(0,119,192)" stroke-width="1" opacity="1" d="M 278.5 56 L 279.5 57 L 297.5 57 L 299 56.5 L 302 66.5 L 302 68.5 L 311 104 L 314 102.5 L 325 57 L 345.5 57 L 346 58.5 L 340 73.5 L 335 91.5 L 333 93.5 L 333 95.5 L 325 122 L 300.5 122 L 300 120.5 L 278.5 56 Z " /><path fill="rgb(0,119,192)" stroke="rgb(0,119,192)" stroke-width="1" opacity="1" d="M 494.5 157 L 502.5 159 L 507.5 162 L 510.5 162 L 515.5 165 L 518.5 165 L 523.5 168 L 526.5 168 L 531.5 171 L 534.5 171 L 540 174.5 Q 541.5 181.5 538.5 181 L 486 160.5 L 494.5 157 Z " /><path fill="rgb(0,119,192)" stroke="rgb(0,119,192)" stroke-width="1" opacity="1" d="M 220.5 196 L 221 197.5 L 160.5 252 L 159 252 Q 160.1 254.7 157.5 254 L 138 271.5 Q 137.2 274.1 140.5 273 L 146.5 271 L 161 259 Q 159.9 256.3 162.5 257 L 179.5 241 L 181 241 Q 179.9 238.3 182.5 239 L 208.5 215 L 210 215 L 211.5 212 L 226 199.5 L 226.5 198 L 242.5 204 L 249 205 L 249.5 207 L 251.5 206 L 253 207.5 L 250 210.5 L 251 211.5 L 244.5 218 L 248.5 212 L 244 214 L 241.5 218 Q 239.3 217.3 240 219.5 L 242 219.5 L 233 227.5 L 238 222.5 L 236.5 221 L 232.5 226 L 231 226 L 231 228 Q 228.3 226.9 229 229.5 L 231 229.5 L 223 236.5 Q 225.3 235.2 222.5 234 L 222 236 Q 219.3 234.9 220 237.5 L 222 237.5 L 213 245.5 L 216 242.5 L 214.5 241 L 210.5 246 Q 208.3 245.3 209 247.5 L 211 247.5 L 208.5 250 L 206.5 250 L 204 251.5 L 204.5 253 L 202 252 Q 203.1 254.7 200.5 254 L 199 253.5 Q 199.8 255.8 197.5 255 L 196 254.5 Q 196.8 256.8 194.5 256 L 193 255.5 Q 193.8 258.1 190.5 257 L 131.5 277 L 132.5 275 L 135.5 273 L 183.5 229 L 192 223 Q 190.9 220.3 193.5 221 L 220.5 196 Z M 225 232 L 225 235 Q 228 234 225 232 Z M 217 239 L 217 242 Q 220 241 217 239 Z " /><path fill="rgb(0,119,192)" stroke="rgb(0,119,192)" stroke-width="1" opacity="1" d="M 71.5 298 L 259.5 360 L 262.5 360 L 268.5 363 L 312 376 Q 313.1 378.7 310.5 378 Q 309 380.5 307.5 377 L 264.5 364 L 190.5 339 L 187.5 339 L 181.5 336 L 147.5 326 L 144.5 324 L 104.5 312 L 70.5 300 L 66 299.5 L 71.5 298 Z " /><path fill="rgb(5,143,212)" stroke="rgb(5,143,212)" stroke-width="1" opacity="1" d="M 100.5 30 L 103 30.5 L 100.5 31 L 100.5 30 Z " /><path fill="rgb(5,143,212)" stroke="rgb(5,143,212)" stroke-width="1" opacity="1" d="M 112.5 30 L 115 30.5 L 112.5 31 L 112.5 30 Z " /><path fill="rgb(5,143,212)" stroke="rgb(5,143,212)" stroke-width="1" opacity="1" d="M 125.5 33 L 127 36.5 L 126 36.5 L 125.5 33 Z " /><path fill="rgb(5,143,212)" stroke="rgb(5,143,212)" stroke-width="1" opacity="1" d="M 74.5 40 L 73.5 42 L 74.5 40 Z " /><path fill="rgb(5,143,212)" stroke="rgb(5,143,212)" stroke-width="1" opacity="1" d="M 68.5 46 L 67.5 48 L 68.5 46 Z " /><path fill="rgb(5,143,212)" stroke="rgb(5,143,212)" stroke-width="1" opacity="1" d="M 103.5 49 L 106 49.5 L 103.5 50 L 103.5 49 Z " /><path fill="rgb(5,143,212)" stroke="rgb(5,143,212)" stroke-width="1" opacity="1" d="M 111.5 49 L 114 49.5 L 111.5 50 L 111.5 49 Z " /><path fill="rgb(5,143,212)" stroke="rgb(5,143,212)" stroke-width="1" opacity="1" d="M 65.5 50 L 64.5 52 L 65.5 50 Z " /><path fill="rgb(5,143,212)" stroke="rgb(5,143,212)" stroke-width="1" opacity="1" d="M 237.5 53 L 240 53.5 L 237.5 54 L 237.5 53 Z " /><path fill="rgb(5,143,212)" stroke="rgb(5,143,212)" stroke-width="1" opacity="1" d="M 427.5 53 L 430 53.5 L 427.5 54 L 427.5 53 Z " /><path fill="rgb(5,143,212)" stroke="rgb(5,143,212)" stroke-width="1" opacity="1" d="M 438.5 53 L 441 53.5 L 438.5 54 L 438.5 53 Z " /><path fill="rgb(5,143,212)" stroke="rgb(5,143,212)" stroke-width="1" opacity="1" d="M 388.5 54 L 395 54.5 L 388.5 55 L 388.5 54 Z " /><path fill="rgb(5,143,212)" stroke="rgb(5,143,212)" stroke-width="1" opacity="1" d="M 89.5 55 L 87.5 58 L 89.5 55 Z " /><path fill="rgb(5,143,212)" stroke="rgb(5,143,212)" stroke-width="1" opacity="1" d="M 496.5 56 L 497 62.5 L 496 62.5 L 496.5 56 Z " /><path fill="rgb(5,143,212)" stroke="rgb(5,143,212)" stroke-width="1" opacity="1" d="M 262.5 58 L 263.5 60 L 262.5 58 Z " /><path fill="rgb(5,143,212)" stroke="rgb(5,143,212)" stroke-width="1" opacity="1" d="M 379.5 58 L 377.5 61 L 379.5 58 Z " /><path fill="rgb(5,143,212)" stroke="rgb(5,143,212)" stroke-width="1" opacity="1" d="M 222.5 59 L 221.5 61 L 222.5 59 Z " /><path fill="rgb(5,143,212)" stroke="rgb(5,143,212)" stroke-width="1" opacity="1" d="M 412.5 59 L 411.5 61 L 412.5 59 Z " /><path fill="rgb(5,143,212)" stroke="rgb(5,143,212)" stroke-width="1" opacity="1" d="M 455.5 59 L 457.5 62 L 455.5 59 Z " /><path fill="rgb(5,143,212)" stroke="rgb(5,143,212)" stroke-width="1" opacity="1" d="M 353.5 61 L 354 73.5 L 353 73.5 L 353.5 61 Z " /><path fill="rgb(5,143,212)" stroke="rgb(5,143,212)" stroke-width="1" opacity="1" d="M 267.5 63 L 268.5 65 L 267.5 63 Z " /><path fill="rgb(5,143,212)" stroke="rgb(5,143,212)" stroke-width="1" opacity="1" d="M 459.5 63 L 461.5 66 L 459.5 63 Z " /><path fill="rgb(5,143,212)" stroke="rgb(5,143,212)" stroke-width="1" opacity="1" d="M 407.5 64 L 406.5 66 L 407.5 64 Z " /><path fill="rgb(5,143,212)" stroke="rgb(5,143,212)" stroke-width="1" opacity="1" d="M 216.5 65 L 215.5 67 L 216.5 65 Z " /><path fill="rgb(5,143,212)" stroke="rgb(5,143,212)" stroke-width="1" opacity="1" d="M 240.5 67 L 246 67.5 L 240.5 68 L 240.5 67 Z " /><path fill="rgb(5,143,212)" stroke="rgb(5,143,212)" stroke-width="1" opacity="1" d="M 387.5 73 L 394 73.5 L 387.5 74 L 387.5 73 Z " /><path fill="rgb(5,143,212)" stroke="rgb(5,143,212)" stroke-width="1" opacity="1" d="M 502.5 73 L 501.5 75 L 502.5 73 Z " /><path fill="rgb(5,143,212)" stroke="rgb(5,143,212)" stroke-width="1" opacity="1" d="M 517.5 74 L 518.5 76 L 517.5 74 Z " /><path fill="rgb(5,143,212)" stroke="rgb(5,143,212)" stroke-width="1" opacity="1" d="M 80.5 75 L 81 80.5 L 80 80.5 L 80.5 75 Z " /><path fill="rgb(5,143,212)" stroke="rgb(5,143,212)" stroke-width="1" opacity="1" d="M 540.5 77 L 541 122.5 L 540 122.5 L 540.5 77 Z " /><path fill="rgb(5,143,212)" stroke="rgb(5,143,212)" stroke-width="1" opacity="1" d="M 274.5 78 L 275 80.5 L 274 80.5 L 274.5 78 Z " /><path fill="rgb(5,143,212)" stroke="rgb(5,143,212)" stroke-width="1" opacity="1" d="M 377.5 79 L 376.5 81 L 377.5 79 Z " /><path fill="rgb(5,143,212)" stroke="rgb(5,143,212)" stroke-width="1" opacity="1" d="M 498.5 80 L 499 82.5 L 498 82.5 L 498.5 80 Z " /><path fill="rgb(5,143,212)" stroke="rgb(5,143,212)" stroke-width="1" opacity="1" d="M 209.5 82 L 210 84.5 L 209 84.5 L 209.5 82 Z " /><path fill="rgb(5,143,212)" stroke="rgb(5,143,212)" stroke-width="1" opacity="1" d="M 420.5 82 L 421 84.5 L 420 84.5 L 420.5 82 Z " /><path fill="rgb(5,143,212)" stroke="rgb(5,143,212)" stroke-width="1" opacity="1" d="M 520.5 82 L 521 122.5 L 520 122.5 L 520.5 82 Z " /><path fill="rgb(5,143,212)" stroke="rgb(5,143,212)" stroke-width="1" opacity="1" d="M 399.5 84 L 400 94.5 L 399 94.5 L 399.5 84 Z " /><path fill="rgb(5,143,212)" stroke="rgb(5,143,212)" stroke-width="1" opacity="1" d="M 468.5 85 L 469 93.5 L 468 93.5 L 468.5 85 Z " /><path fill="rgb(5,143,212)" stroke="rgb(5,143,212)" stroke-width="1" opacity="1" d="M 373.5 89 L 374 122.5 L 373 122.5 L 373.5 89 Z " /><path fill="rgb(5,143,212)" stroke="rgb(5,143,212)" stroke-width="1" opacity="1" d="M 209.5 93 L 210 95.5 L 209 95.5 L 209.5 93 Z " /><path fill="rgb(5,143,212)" stroke="rgb(5,143,212)" stroke-width="1" opacity="1" d="M 447.5 93 L 448 95.5 L 447 95.5 L 447.5 93 Z " /><path fill="rgb(5,143,212)" stroke="rgb(5,143,212)" stroke-width="1" opacity="1" d="M 420.5 94 L 421 96.5 L 420 96.5 L 420.5 94 Z " /><path fill="rgb(5,143,212)" stroke="rgb(5,143,212)" stroke-width="1" opacity="1" d="M 85.5 96 L 86.5 98 L 85.5 96 Z " /><path fill="rgb(5,143,212)" stroke="rgb(5,143,212)" stroke-width="1" opacity="1" d="M 90.5 101 L 91.5 103 L 90.5 101 Z " /><path fill="rgb(5,143,212)" stroke="rgb(5,143,212)" stroke-width="1" opacity="1" d="M 311.5 102 L 312.5 104 L 311.5 102 Z " /><path fill="rgb(5,143,212)" stroke="rgb(5,143,212)" stroke-width="1" opacity="1" d="M 444.5 104 L 443.5 106 L 444.5 104 Z " /><path fill="rgb(5,143,212)" stroke="rgb(5,143,212)" stroke-width="1" opacity="1" d="M 243.5 109 L 246 109.5 L 243.5 110 L 243.5 109 Z " /><path fill="rgb(5,143,212)" stroke="rgb(5,143,212)" stroke-width="1" opacity="1" d="M 68.5 110 L 73.5 116 L 68.5 110 Z " /><path fill="rgb(5,143,212)" stroke="rgb(5,143,212)" stroke-width="1" opacity="1" d="M 216.5 113 L 220.5 118 L 216.5 113 Z " /><path fill="rgb(5,143,212)" stroke="rgb(5,143,212)" stroke-width="1" opacity="1" d="M 406.5 113 L 408.5 116 L 406.5 113 Z " /><path fill="rgb(5,143,212)" stroke="rgb(5,143,212)" stroke-width="1" opacity="1" d="M 461.5 113 L 456.5 119 L 461.5 113 Z " /><path fill="rgb(5,143,212)" stroke="rgb(5,143,212)" stroke-width="1" opacity="1" d="M 410.5 117 L 412.5 120 L 410.5 117 Z " /><path fill="rgb(5,143,212)" stroke="rgb(5,143,212)" stroke-width="1" opacity="1" d="M 126.5 119 L 127 121.5 L 125 122.5 L 126.5 119 Z " /><path fill="rgb(5,143,212)" stroke="rgb(5,143,212)" stroke-width="1" opacity="1" d="M 98.5 125 L 102 125.5 L 98.5 126 L 98.5 125 Z " /><path fill="rgb(5,143,212)" stroke="rgb(5,143,212)" stroke-width="1" opacity="1" d="M 109.5 125 L 113 125.5 L 109.5 126 L 109.5 125 Z " /><path fill="rgb(5,143,212)" stroke="rgb(5,143,212)" stroke-width="1" opacity="1" d="M 239.5 125 L 243 125.5 L 239.5 126 L 239.5 125 Z " /><path fill="rgb(5,143,212)" stroke="rgb(5,143,212)" stroke-width="1" opacity="1" d="M 250.5 125 L 255 125.5 L 250.5 126 L 250.5 125 Z " /><path fill="rgb(5,143,212)" stroke="rgb(5,143,212)" stroke-width="1" opacity="1" d="M 428.5 125 L 431 125.5 L 428.5 126 L 428.5 125 Z " /><path fill="rgb(5,143,212)" stroke="rgb(5,143,212)" stroke-width="1" opacity="1" d="M 437.5 125 L 440 125.5 L 437.5 126 L 437.5 125 Z " /><path fill="rgb(5,143,212)" stroke="rgb(5,143,212)" stroke-width="1" opacity="1" d="M 460.5 168 L 471.5 173 L 539 196 L 539.5 198 L 540.5 171 L 541 207.5 L 540 208.5 L 539.5 221 L 533.5 218 L 521.5 215 L 516.5 212 L 495.5 206 L 490.5 203 L 486.5 203 L 481.5 200 L 479.5 200 L 460.5 193 L 457.5 193 L 455.5 191 L 453.5 191 L 425.5 181 L 424 181.5 L 433.5 177 L 460.5 168 Z " /><path fill="rgb(5,143,212)" stroke="rgb(5,143,212)" stroke-width="1" opacity="1" d="M 154.5 175 L 158.5 175 L 187 184.5 L 184.5 185 L 183 184.5 L 174.5 194 L 115.5 247 L 114 247 Q 115.1 249.7 112.5 249 L 104 256 Q 105.1 258.7 102.5 258 L 85.5 274 L 84 274 L 84 276 L 82 276 Q 83.1 278.7 80.5 278 L 74 283 Q 75.1 285.7 72.5 285 L 64 292 Q 65.1 294.7 62.5 294 Q 58 295 59 301.5 L 59.5 303 L 58 301.5 L 58 267.5 Q 60.3 266.2 59 261.5 L 64.5 256 L 93.5 230 L 100 226 L 101.5 223 L 104.5 221 L 131.5 196 L 133 196 Q 131.9 193.3 134.5 194 L 154.5 175 Z " /><path fill="rgb(5,143,212)" stroke="rgb(5,143,212)" stroke-width="1" opacity="1" d="M 95.5 289 L 97 289.5 L 91 292.5 L 125.5 302 L 128.5 304 L 250.5 344 L 253.5 346 L 259.5 347 L 262.5 349 L 268.5 350 L 271.5 352 L 277.5 353 L 280.5 355 L 331 370 Q 332.3 373 328.5 372 L 319.5 376 L 319.5 374 L 89.5 299 L 86.5 299 L 79 295.5 L 95.5 289 Z " /><path fill="rgb(0,109,185)" stroke="rgb(0,109,185)" stroke-width="1" opacity="1" d="M 515.5 150 L 540 160 L 539.5 174 Q 537.6 170.4 531.5 171 L 530 171.5 L 530.5 170 L 497 158 Q 495.8 155 499.5 156 L 515.5 150 Z " /><path fill="rgb(0,109,185)" stroke="rgb(0,109,185)" stroke-width="1" opacity="1" d="M 253.5 207 L 279 215.5 L 277 216 L 274.5 220 L 259 233.5 L 258.5 235 L 257.5 234 L 252.5 237 L 202.5 253 L 202.5 252 L 207 249.5 L 206.5 248 Q 207.8 250.3 209 247.5 Q 208.3 245.3 210.5 246 L 211.5 243 Q 212.8 245.3 214 242.5 L 214.5 241 L 216 241.5 L 217.5 238 Q 218.8 240.3 220 237.5 L 222 234.5 L 224 234.5 Q 223.5 230.5 226.5 230 Q 227.8 232.3 229 229.5 L 229 228 L 231 228 Q 229.9 225.3 232.5 226 L 238.5 219 L 240 219.5 Q 239.3 217.3 241.5 218 L 241.5 216 Q 242.8 218.3 244 215.5 Q 243.3 213.3 245.5 214 L 253.5 207 Z " /><path fill="rgb(0,109,185)" stroke="rgb(0,109,185)" stroke-width="1" opacity="1" d="M 242.5 212 L 239.5 216 L 242.5 212 Z " /><path fill="rgb(0,109,185)" stroke="rgb(0,109,185)" stroke-width="1" opacity="1" d="M 236.5 217 L 235.5 219 L 236.5 217 Z " /><path fill="rgb(0,109,185)" stroke="rgb(0,109,185)" stroke-width="1" opacity="1" d="M 232.5 221 L 228.5 226 L 232.5 221 Z " /><path fill="rgb(0,109,185)" stroke="rgb(0,109,185)" stroke-width="1" opacity="1" d="M 225.5 227 L 224.5 229 L 225.5 227 Z " /><path fill="rgb(0,109,185)" stroke="rgb(0,109,185)" stroke-width="1" opacity="1" d="M 218.5 234 L 217.5 236 L 218.5 234 Z " /><path fill="rgb(0,109,185)" stroke="rgb(0,109,185)" stroke-width="1" opacity="1" d="M 214.5 237 L 209.5 243 L 214.5 237 Z " /><path fill="rgb(0,109,185)" stroke="rgb(0,109,185)" stroke-width="1" opacity="1" d="M 206.5 244 L 204.5 247 L 206.5 244 Z " /><path fill="rgb(0,109,185)" stroke="rgb(0,109,185)" stroke-width="1" opacity="1" d="M 200.5 250 L 199.5 252 L 200.5 250 Z " /><path fill="rgb(0,109,185)" stroke="rgb(0,109,185)" stroke-width="1" opacity="1" d="M 64.5 300 L 70.5 300 L 104.5 312 L 144.5 324 L 147.5 326 L 181.5 336 L 187.5 339 L 190.5 339 L 264.5 364 L 304.5 376 L 309 378.5 L 303.5 381 L 301.5 379 L 298.5 379 L 292.5 376 L 289.5 376 L 61 301.5 L 64.5 300 Z " /><path fill="rgb(254,254,254)" stroke="rgb(254,254,254)" stroke-width="1" opacity="1" d="M 0 0 L 600 0 L 600 600 L 0 600 L 0 0 Z M 99 30 L 87 33 L 76 39 Q 62 48 58 67 L 58 91 L 66 109 Q 76 123 97 126 L 115 126 L 127 123 L 124 103 L 117 106 Q 111 105 110 107 L 101 106 L 92 102 Q 83 97 81 85 L 81 73 L 87 59 Q 92 52 102 50 Q 117 48 124 53 L 127 35 L 117 30 L 99 30 Z M 157 30 L 140 36 L 136 39 L 136 123 L 137 123 L 157 123 L 157 82 L 159 77 L 167 71 L 175 73 L 178 79 L 179 84 L 179 123 L 199 123 L 199 73 L 195 63 Q 190 55 180 53 Q 166 53 161 60 Q 158 59 159 62 L 157 62 L 157 30 Z M 237 53 Q 226 55 220 61 Q 212 68 209 81 L 209 98 Q 210 107 215 113 Q 223 123 239 126 L 257 126 L 266 124 L 272 121 L 270 107 L 269 105 L 258 109 Q 243 111 236 106 L 231 100 L 232 96 L 275 96 L 276 94 L 275 78 L 267 62 Q 258 51 237 53 Z M 427 53 L 414 58 L 403 70 L 399 83 L 399 97 Q 401 106 405 113 Q 412 123 427 126 L 442 126 L 456 120 Q 466 112 469 97 L 469 83 Q 467 73 463 67 Q 454 51 427 53 Z M 517 53 L 504 58 L 497 64 L 497 56 L 477 56 L 478 63 L 478 123 L 499 123 L 499 80 L 501 76 L 509 71 L 515 72 Q 519 75 520 81 L 520 123 L 541 123 L 541 76 L 539 68 L 535 61 Q 530 53 517 53 Z M 388 54 L 381 57 Q 375 60 374 67 L 372 63 L 372 56 L 353 56 L 353 123 L 354 123 L 374 123 L 374 88 L 376 82 L 386 74 L 397 74 L 397 56 L 396 54 L 388 54 Z M 278 56 L 299 121 L 300 123 L 325 123 L 326 122 L 347 59 L 347 56 L 326 56 L 323 61 L 313 103 L 300 58 L 300 56 L 278 56 Z M 59 141 L 58 302 L 60 303 L 299 383 L 540 303 L 541 302 L 541 141 L 300 222 L 59 141 Z M 59 328 L 58 490 L 299 570 L 538 491 L 541 489 L 541 328 L 303 408 L 297 408 L 59 328 Z " /><path fill="rgb(254,254,254)" stroke="rgb(254,254,254)" stroke-width="1" opacity="1" d="M 239.5 68 Q 248.9 66.6 252 71.5 L 255 81 L 230 80.5 L 234 71 L 239.5 68 Z " /><path fill="rgb(254,254,254)" stroke="rgb(254,254,254)" stroke-width="1" opacity="1" d="M 431.5 69 Q 442.1 68.4 445 75.5 Q 449 83.5 447 97.5 Q 445.2 105.2 439.5 109 L 431.5 110 Q 425.4 108.6 423 103.5 Q 419 95.5 421 81.5 Q 422.4 73.4 428.5 70 L 431.5 69 Z " /><path fill="rgb(1,172,237)" stroke="rgb(1,172,237)" stroke-width="1" opacity="1" d="M 136.5 38 L 137 122.5 L 136 122.5 L 136.5 38 Z " /><path fill="rgb(1,172,237)" stroke="rgb(1,172,237)" stroke-width="1" opacity="1" d="M 66.5 48 L 65.5 50 L 66.5 48 Z " /><path fill="rgb(1,172,237)" stroke="rgb(1,172,237)" stroke-width="1" opacity="1" d="M 106.5 49 L 111 49.5 L 106.5 50 L 106.5 49 Z " /><path fill="rgb(1,172,237)" stroke="rgb(1,172,237)" stroke-width="1" opacity="1" d="M 175.5 53 L 180 53.5 L 175.5 54 L 175.5 53 Z " /><path fill="rgb(1,172,237)" stroke="rgb(1,172,237)" stroke-width="1" opacity="1" d="M 516.5 53 L 521 53.5 L 516.5 54 L 516.5 53 Z " /><path fill="rgb(1,172,237)" stroke="rgb(1,172,237)" stroke-width="1" opacity="1" d="M 395.5 54 L 397 55.5 L 397 73.5 L 396 73.5 L 396 55.5 L 395.5 54 Z " /><path fill="rgb(1,172,237)" stroke="rgb(1,172,237)" stroke-width="1" opacity="1" d="M 477.5 57 L 478 61.5 L 477 61.5 L 477.5 57 Z " /><path fill="rgb(1,172,237)" stroke="rgb(1,172,237)" stroke-width="1" opacity="1" d="M 531.5 57 L 534.5 61 L 531.5 57 Z " /><path fill="rgb(1,172,237)" stroke="rgb(1,172,237)" stroke-width="1" opacity="1" d="M 503.5 58 L 497.5 65 L 503.5 58 Z " /><path fill="rgb(1,172,237)" stroke="rgb(1,172,237)" stroke-width="1" opacity="1" d="M 86.5 59 L 85.5 61 L 86.5 59 Z " /><path fill="rgb(1,172,237)" stroke="rgb(1,172,237)" stroke-width="1" opacity="1" d="M 265.5 60 L 266.5 62 L 265.5 60 Z " /><path fill="rgb(1,172,237)" stroke="rgb(1,172,237)" stroke-width="1" opacity="1" d="M 219.5 61 L 218.5 63 L 219.5 61 Z " /><path fill="rgb(1,172,237)" stroke="rgb(1,172,237)" stroke-width="1" opacity="1" d="M 372.5 63 L 374 67.5 L 372 68 L 372.5 63 Z " /><path fill="rgb(1,172,237)" stroke="rgb(1,172,237)" stroke-width="1" opacity="1" d="M 236.5 69 L 235.5 71 L 236.5 69 Z " /><path fill="rgb(1,172,237)" stroke="rgb(1,172,237)" stroke-width="1" opacity="1" d="M 426.5 71 L 424.5 74 L 426.5 71 Z " /><path fill="rgb(1,172,237)" stroke="rgb(1,172,237)" stroke-width="1" opacity="1" d="M 441.5 71 L 443.5 74 L 441.5 71 Z " /><path fill="rgb(1,172,237)" stroke="rgb(1,172,237)" stroke-width="1" opacity="1" d="M 161.5 73 L 159.5 76 L 161.5 73 Z " /><path fill="rgb(1,172,237)" stroke="rgb(1,172,237)" stroke-width="1" opacity="1" d="M 353.5 74 L 354 122.5 L 353 122.5 L 353.5 74 Z " /><path fill="rgb(1,172,237)" stroke="rgb(1,172,237)" stroke-width="1" opacity="1" d="M 379.5 77 L 378.5 79 L 379.5 77 Z " /><path fill="rgb(1,172,237)" stroke="rgb(1,172,237)" stroke-width="1" opacity="1" d="M 231.5 81 L 255 81.5 L 231.5 82 L 231.5 81 Z " /><path fill="rgb(1,172,237)" stroke="rgb(1,172,237)" stroke-width="1" opacity="1" d="M 468.5 82 L 469 84.5 L 468 84.5 L 468.5 82 Z " /><path fill="rgb(1,172,237)" stroke="rgb(1,172,237)" stroke-width="1" opacity="1" d="M 498.5 83 L 499 122.5 L 498 122.5 L 498.5 83 Z " /><path fill="rgb(1,172,237)" stroke="rgb(1,172,237)" stroke-width="1" opacity="1" d="M 275.5 84 L 276 93.5 L 275 93.5 L 275.5 84 Z " /><path fill="rgb(1,172,237)" stroke="rgb(1,172,237)" stroke-width="1" opacity="1" d="M 420.5 85 L 421 93.5 L 420 93.5 L 420.5 85 Z " /><path fill="rgb(1,172,237)" stroke="rgb(1,172,237)" stroke-width="1" opacity="1" d="M 447.5 85 L 448 92.5 L 447 92.5 L 447.5 85 Z " /><path fill="rgb(1,172,237)" stroke="rgb(1,172,237)" stroke-width="1" opacity="1" d="M 468.5 94 L 469 96.5 L 468 96.5 L 468.5 94 Z " /><path fill="rgb(1,172,237)" stroke="rgb(1,172,237)" stroke-width="1" opacity="1" d="M 87.5 98 L 89.5 101 L 87.5 98 Z " /><path fill="rgb(1,172,237)" stroke="rgb(1,172,237)" stroke-width="1" opacity="1" d="M 424.5 105 L 426.5 108 L 424.5 105 Z " /><path fill="rgb(1,172,237)" stroke="rgb(1,172,237)" stroke-width="1" opacity="1" d="M 103.5 106 L 106 106.5 L 103.5 107 L 103.5 106 Z " /><path fill="rgb(1,172,237)" stroke="rgb(1,172,237)" stroke-width="1" opacity="1" d="M 110.5 106 L 113 106.5 L 110.5 107 L 110.5 106 Z " /><path fill="rgb(1,172,237)" stroke="rgb(1,172,237)" stroke-width="1" opacity="1" d="M 442.5 106 L 441.5 108 L 442.5 106 Z " /><path fill="rgb(1,172,237)" stroke="rgb(1,172,237)" stroke-width="1" opacity="1" d="M 66.5 108 L 67.5 110 L 66.5 108 Z " /><path fill="rgb(1,172,237)" stroke="rgb(1,172,237)" stroke-width="1" opacity="1" d="M 246.5 109 L 254 109.5 L 246.5 110 L 246.5 109 Z " /><path fill="rgb(1,172,237)" stroke="rgb(1,172,237)" stroke-width="1" opacity="1" d="M 221.5 118 L 222.5 120 L 221.5 118 Z " /><path fill="rgb(1,172,237)" stroke="rgb(1,172,237)" stroke-width="1" opacity="1" d="M 58 142 L 158 174.5 L 154.5 175 L 134.5 194 L 133 194 Q 134.1 196.7 131.5 196 L 104.5 221 L 103 221 Q 104.1 223.7 101.5 223 L 100 226 L 93.5 230 L 59 261.5 L 58.5 267 L 58 142 Z " /><path fill="rgb(1,172,237)" stroke="rgb(1,172,237)" stroke-width="1" opacity="1" d="M 423.5 180 L 428.5 183 L 451.5 190 L 454.5 192 Q 456 189.5 457.5 193 L 472.5 197 L 480.5 201 L 482.5 201 L 539.5 221 L 540.5 208 L 541 240.5 L 540 241.5 L 540 248 L 533.5 249 L 533.5 248 L 535 247.5 L 533 247 L 534 244.5 L 532 244 Q 533.1 246.7 530.5 246 L 491.5 233 L 491.5 234 L 493 234.5 L 491.5 235 L 488 233.5 L 491 232.5 L 415.5 207 L 412.5 207 L 410.5 208 L 408 206.5 L 410 206 L 409.5 203 L 408.5 205 L 401 203 L 400.5 200 L 399.5 202 L 392.5 200 L 390.5 201 L 390.5 200 Q 393.1 200.8 392 197.5 L 391 197.5 L 390.5 199 L 383.5 197 L 381.5 198 L 381.5 197 Q 383.8 197.8 383 195.5 L 382.5 194 L 411.5 185 L 414.5 183 L 417.5 183 L 423.5 180 Z " /><path fill="rgb(1,172,237)" stroke="rgb(1,172,237)" stroke-width="1" opacity="1" d="M 379.5 195 L 380 197 L 378 196.5 L 379.5 195 Z " /><path fill="rgb(1,172,237)" stroke="rgb(1,172,237)" stroke-width="1" opacity="1" d="M 106.5 286 L 134.5 293 L 139.5 296 L 141.5 296 Q 146.7 295.8 148.5 299 L 150.5 299 L 156 300 L 156.5 302 L 158.5 301 L 165 303 L 165.5 305 L 167.5 304 L 174 306 L 174.5 308 L 176.5 307 L 183.5 311 L 185.5 310 L 192.5 314 L 194.5 313 L 262.5 337 L 277.5 341 L 279.5 343 L 286.5 344 L 288.5 346 L 290.5 346 Q 295.7 345.8 297.5 349 L 304.5 350 L 306.5 352 L 314.5 353 L 316.5 355 L 318.5 355 Q 323.7 354.8 325.5 358 L 327.5 358 Q 332.7 357.8 334.5 361 L 336.5 361 L 339.5 361 L 350 365.5 L 331 372 Q 332.3 369 328.5 370 Q 306 361 280.5 355 L 256.5 346 L 253.5 346 L 250.5 344 L 128.5 304 L 125.5 302 L 91 292.5 L 106.5 286 Z " /><path fill="rgb(220,30,58)" stroke="rgb(220,30,58)" stroke-width="1" opacity="1" d="M 137.5 355 L 152 360.5 L 151 363 Q 148 361.8 149 365.5 L 146 367.5 Q 148.3 368.8 145.5 370 Q 142.9 369.2 144 372.5 L 140 375.5 L 140.5 377 L 138 378.5 Q 140.3 379.8 137.5 381 Q 134.9 380.2 136 383.5 L 133 385 L 131.5 389 L 130 389.5 L 131 390.5 L 128 393.5 L 126.5 396 L 125 396.5 Q 127.7 398.2 123.5 400 L 122 400.5 L 122.5 402 L 120 403.5 Q 121.1 406.8 118.5 406 L 117 410 Q 114 408.8 115 412.5 L 111 415.5 Q 113.5 417 110 418.5 L 107.5 422 L 106 422.5 Q 108.3 423.7 105.5 425 Q 102.9 424.2 104 427.5 L 101 429.5 Q 103.3 430.8 100.5 432 L 98 433.5 L 98.5 435 Q 96.3 434.3 97 436.5 L 94.5 440 L 92 441.5 L 92.5 443 L 90 444.5 Q 92.3 445.8 89.5 447 L 87 448.5 Q 89.5 450 86 451.5 L 83.5 455 L 82 455.5 Q 84.3 456.8 81.5 458 Q 78.9 457.2 80 460.5 L 76.5 465 L 74 466.5 L 74.5 468 Q 71.9 467.2 73 470.5 L 69 473.5 L 69.5 475 L 67 476.5 Q 68.1 479.8 65.5 479 L 63.5 483 L 61 484.5 Q 63.8 486.3 59.5 488 L 58 487.5 L 58 462 Q 60.7 463.1 60 460.5 L 137.5 355 Z " /><path fill="rgb(220,30,58)" stroke="rgb(220,30,58)" stroke-width="1" opacity="1" d="M 432.5 365 L 433 367 L 442.5 369 L 445.5 371 L 448.5 371 L 522.5 396 L 525.5 396 Q 529.8 399.7 537.5 400 L 540 402.5 L 540 404.5 L 540 446.5 L 537.5 447 L 535 445.5 L 537.5 445 L 539 445.5 Q 539.8 441.8 537.5 441 L 370.5 387 L 368 388 L 368.5 386 Q 370 388.5 371.5 385 L 422.5 368 Q 424 370.5 425.5 367 L 427.5 368 L 432.5 365 Z " /><path fill="rgb(220,30,58)" stroke="rgb(220,30,58)" stroke-width="1" opacity="1" d="M 365.5 387 L 366 390 L 389 397.5 L 386.5 398 L 362 390 L 362.5 388 Q 364 390.5 365.5 387 Z " /><path fill="rgb(220,30,58)" stroke="rgb(220,30,58)" stroke-width="1" opacity="1" d="M 390.5 398 L 488 429 L 487.5 431 L 444.5 416 L 392.5 400 L 390.5 398 Z " /><path fill="rgb(220,30,58)" stroke="rgb(220,30,58)" stroke-width="1" opacity="1" d="M 489.5 430 L 497 432.5 L 494.5 433 L 490.5 432 L 489.5 430 Z " /><path fill="rgb(220,30,58)" stroke="rgb(220,30,58)" stroke-width="1" opacity="1" d="M 498.5 433 L 534 444.5 L 530.5 445 L 524.5 442 L 500.5 435 L 498.5 433 Z " /><path fill="rgb(220,30,58)" stroke="rgb(220,30,58)" stroke-width="1" opacity="1" d="M 178.5 449 L 185.5 452 L 189.5 452 L 200.5 456 L 208.5 457 L 208.5 456 L 184 449.5 L 187.5 449 L 211 455.5 L 210 457.5 Q 211.3 460.3 212.5 458 L 226.5 455 Q 227.8 457.3 232.5 456 L 236 458.5 L 234.5 458 L 232 458.5 Q 234.3 459.8 231.5 461 L 231.5 457 L 226 459.5 L 226.5 461 Q 224.3 456.8 222 461.5 L 223.5 462 L 225 461.5 Q 225.8 464.1 222.5 463 L 221.5 462 L 217.5 464 Q 205 464.5 198 470.5 L 201.5 475 L 338.5 521 L 352.5 523 L 353.5 522 L 365.5 521 L 379.5 514 L 380.5 515 L 383 513.5 L 383.5 515 L 389 513.5 L 388 511.5 L 391 512.5 L 390 510.5 L 392.5 510 Q 399 509 401 512.5 L 396.5 515 Q 395.3 512.8 394 515.5 L 393 517.5 L 396.5 518 L 398.5 517 L 408 520.5 L 405.5 521 L 397.5 518 L 396.5 520 L 421 528.5 L 388.5 540 L 378.5 543 L 373.5 543 Q 367 538.5 357.5 537 L 353.5 534 Q 348.7 535.3 347.5 533 L 346 533.5 L 345.5 532 L 343.5 533 L 335.5 529 L 323.5 526 L 320.5 524 L 317.5 524 L 265.5 506 L 262.5 506 L 259.5 504 L 244.5 500 L 241.5 498 L 235.5 497 L 175.5 476 L 173.5 477 L 155.5 470 L 148.5 468 L 142.5 468 L 135 464.5 L 178.5 449 Z " /><path fill="rgb(220,30,58)" stroke="rgb(220,30,58)" stroke-width="1" opacity="1" d="M 229.5 459 L 228.5 461 L 229.5 459 Z " /><path fill="rgb(220,30,58)" stroke="rgb(220,30,58)" stroke-width="1" opacity="1" d="M 409.5 521 L 424 526 L 423.5 528 L 409.5 522 L 409.5 521 Z " /><path fill="rgb(0,101,179)" stroke="rgb(0,101,179)" stroke-width="1" opacity="1" d="M 539.5 142 L 540 160 L 516 150.5 L 539.5 142 Z " /><path fill="rgb(0,101,179)" stroke="rgb(0,101,179)" stroke-width="1" opacity="1" d="M 277 216 L 284.5 217 L 297 221.5 L 259.5 234 L 262.5 230 L 277 217.5 L 277 216 Z " /><path fill="rgb(0,101,179)" stroke="rgb(0,101,179)" stroke-width="1" opacity="1" d="M 61.5 302 L 64.5 302 L 135.5 326 L 138.5 326 L 141.5 328 L 144.5 328 L 178.5 340 L 181.5 340 L 252.5 364 L 255.5 364 L 258.5 366 L 292.5 376 L 303 380.5 L 298.5 382 L 61.5 303 L 61.5 302 Z " /><path fill="rgb(0,174,239)" stroke="rgb(0,174,239)" stroke-width="1" opacity="1" d="M 381.5 194 L 383 197 L 390.5 199 L 391.5 197 L 392 200 L 399.5 202 L 400.5 200 L 401 203 L 408.5 205 L 409.5 203 L 410 206 L 532 246 Q 530.9 243.3 533.5 244 L 533 245.5 Q 532.3 247.8 534.5 247 L 540 248 L 540.5 241 L 541 301.5 L 539.5 303 L 350.5 366 L 348.5 364 L 335.5 360 Q 334 362.5 332.5 359 L 326.5 357 Q 325 359.5 323.5 356 L 317.5 354 Q 316 356.5 314.5 353 L 306.5 352 L 304.5 350 L 297.5 349 L 289.5 345 Q 288 347.5 286.5 344 L 279.5 343 L 277.5 341 L 262.5 337 L 239.5 328 L 236.5 328 L 193.5 313 Q 192 315.5 190.5 312 L 184.5 310 Q 183 312.5 181.5 309 L 175.5 307 L 174 307.5 Q 174.8 304.9 171.5 306 L 166.5 304 L 165 304.5 Q 165.8 301.9 162.5 303 L 157.5 301 L 156 301.5 Q 156.8 298.9 153.5 300 L 149.5 298 Q 148 300.5 146.5 297 L 140.5 295 Q 139 297.5 137.5 294 L 108 286.5 L 298.5 223 L 303.5 220 L 304.5 221 L 306.5 219 L 307.5 220 L 309.5 218 L 310.5 219 L 312.5 217 L 313.5 218 L 315.5 216 L 316.5 217 L 318.5 215 L 319.5 216 L 321.5 214 L 322.5 215 L 324.5 213 L 325.5 214 L 327.5 212 L 328.5 213 L 330.5 211 L 331.5 212 L 333.5 210 L 334.5 211 L 336.5 209 L 337.5 210 L 339.5 208 L 340.5 209 L 342.5 207 L 343.5 208 L 345.5 206 L 346.5 207 L 348.5 205 L 349.5 206 L 351.5 204 L 352.5 205 L 354.5 203 L 355.5 204 L 357.5 202 L 358.5 203 L 360.5 201 L 361.5 202 L 363.5 200 L 364.5 201 L 366.5 199 L 367.5 200 L 369.5 198 L 370.5 199 L 372.5 197 L 373.5 198 L 375.5 196 L 376.5 197 L 379 195.5 L 378.5 197 Q 380.8 197.8 380 195.5 L 381.5 194 Z M 489 233 L 489 234 L 491 234 L 489 233 Z " /><path fill="rgb(202,36,60)" stroke="rgb(202,36,60)" stroke-width="1" opacity="1" d="M 485.5 347 L 495.5 349 L 535.5 363 L 540 363 L 539 365.5 L 540 366.5 L 540 401.5 L 537.5 400 L 433 367 L 434.5 364 L 485.5 347 Z " /><path fill="rgb(202,36,60)" stroke="rgb(202,36,60)" stroke-width="1" opacity="1" d="M 152.5 360 L 171 366.5 L 88.5 479 L 58.5 489 L 58.5 488 L 61 486.5 Q 58.3 484.7 62.5 483 L 65 481.5 Q 62.8 480.3 65.5 479 Q 68.1 479.8 67 476.5 L 70 474.5 L 69.5 473 L 73 470.5 Q 71.9 467.2 74.5 468 L 75.5 465 L 78 463.5 L 80 458 L 83 456.5 L 82.5 455 L 86 452.5 L 88 449.5 Q 85.8 448.3 88.5 447 L 91 445.5 Q 88.8 444.3 91.5 443 L 93 442.5 Q 90.8 441.3 93.5 440 L 96 438.5 L 97 435 L 99 434.5 Q 96.8 433.3 99.5 432 L 102 430.5 L 101.5 429 L 104 427.5 Q 102.9 424.2 105.5 425 L 106.5 422 L 110 419.5 L 112 416.5 Q 109.7 415.3 112.5 414 L 114 413.5 L 113.5 412 L 115 412.5 L 115 410 Q 118 411.3 117 407.5 L 120 406 L 121.5 402 L 123 401.5 L 122.5 400 L 126 397.5 L 125.5 396 L 128 394.5 L 131 390.5 L 130.5 389 L 132 388.5 L 131.5 387 L 133 387.5 Q 131.9 384.2 134.5 385 L 136 381 L 138 380.5 Q 135.3 378.8 139.5 377 L 141 376.5 Q 138.8 375.3 141.5 374 L 144 372.5 Q 142.9 369.2 145.5 370 L 146.5 367 L 149 365.5 L 149 363 Q 151.7 364.1 151 361.5 L 152.5 360 Z " /><path fill="rgb(202,36,60)" stroke="rgb(202,36,60)" stroke-width="1" opacity="1" d="M 431.5 365 L 430.5 367 L 431.5 365 Z " /><path fill="rgb(202,36,60)" stroke="rgb(202,36,60)" stroke-width="1" opacity="1" d="M 428.5 366 L 427.5 368 L 428.5 366 Z " /><path fill="rgb(202,36,60)" stroke="rgb(202,36,60)" stroke-width="1" opacity="1" d="M 141.5 461 L 143 461.5 L 135 464.5 L 142.5 468 L 148.5 468 L 167.5 474 L 169 473.5 L 168.5 475 L 174.5 477 L 176.5 477 L 259.5 504 L 262.5 506 L 293.5 515 L 344.5 533 L 346 532.5 L 346.5 534 L 348.5 534 L 353.5 534 L 357.5 537 L 376 543.5 L 334.5 558 L 334 556 L 324.5 554 L 318.5 556 L 312.5 553 L 274.5 542 L 165.5 505 L 162.5 505 L 159.5 503 L 153.5 502 L 150.5 500 L 147.5 500 L 144.5 498 L 141.5 498 L 110.5 487 L 100 485 Q 98.8 482 102.5 483 L 105 481.5 L 94 479 Q 92.8 476 96.5 477 L 141.5 461 Z " /><path fill="rgb(174,47,64)" stroke="rgb(174,47,64)" stroke-width="1" opacity="1" d="M 539.5 329 L 540 360.5 L 539.5 363 L 535.5 363 L 520.5 357 L 489.5 348 L 488 346.5 L 539.5 329 Z " /><path fill="rgb(174,47,64)" stroke="rgb(174,47,64)" stroke-width="1" opacity="1" d="M 170.5 367 L 173.5 367 L 297 408.5 L 295.5 410 L 94 477 Q 92.7 480.3 97.5 479 L 105 481.5 L 100 483 Q 98.7 486.3 103.5 485 L 319.5 556 L 327.5 554 L 334 556 Q 335.3 559 331.5 558 L 301.5 569 L 297.5 569 L 60 490 Q 58.8 487 62.5 488 L 83.5 481 L 90 477.5 L 170.5 367 Z " /><path fill="rgb(227,76,83)" stroke="rgb(227,76,83)" stroke-width="1" opacity="1" d="M 540.5 328 L 541 488.5 L 537.5 491 L 407.5 534 L 407.5 533 L 540 489 L 540.5 328 Z " /><path fill="rgb(227,76,83)" stroke="rgb(227,76,83)" stroke-width="1" opacity="1" d="M 297.5 408 L 302 408.5 L 297.5 409 L 297.5 408 Z " /><path fill="rgb(227,76,83)" stroke="rgb(227,76,83)" stroke-width="1" opacity="1" d="M 221.5 463 L 225.5 463 Q 231.8 461.3 233.5 464 L 235.5 464 L 241.5 465 L 338.5 498 L 341.5 498 L 371.5 509 L 374.5 509 L 379 513.5 L 375.5 517 L 365.5 521 L 349.5 523 L 338.5 521 L 205.5 477 L 199 472.5 L 198 470.5 L 209.5 465 L 220.5 464 L 221.5 463 Z " /><path fill="rgb(227,76,83)" stroke="rgb(227,76,83)" stroke-width="1" opacity="1" d="M 403.5 534 L 406 534.5 L 398.5 537 L 398.5 536 L 403.5 534 Z " /><path fill="rgb(227,76,83)" stroke="rgb(227,76,83)" stroke-width="1" opacity="1" d="M 394.5 537 L 397 537.5 L 389.5 540 L 389.5 539 L 394.5 537 Z " /><path fill="rgb(227,76,83)" stroke="rgb(227,76,83)" stroke-width="1" opacity="1" d="M 385.5 540 L 388 540.5 L 362.5 549 L 362.5 548 L 385.5 540 Z " /><path fill="rgb(227,76,83)" stroke="rgb(227,76,83)" stroke-width="1" opacity="1" d="M 298.5 569 L 301 569.5 L 298.5 570 L 298.5 569 Z " /><path fill="rgb(228,24,55)" stroke="rgb(228,24,55)" stroke-width="1" opacity="1" d="M 62.5 331 L 67 332.5 L 64.5 333 L 62.5 331 Z " /><path fill="rgb(228,24,55)" stroke="rgb(228,24,55)" stroke-width="1" opacity="1" d="M 71.5 334 L 76 335.5 L 73.5 336 L 71.5 334 Z " /><path fill="rgb(228,24,55)" stroke="rgb(228,24,55)" stroke-width="1" opacity="1" d="M 77.5 336 L 88 339.5 L 85.5 340 L 77.5 337 L 77.5 336 Z " /><path fill="rgb(228,24,55)" stroke="rgb(228,24,55)" stroke-width="1" opacity="1" d="M 89.5 340 L 94 341.5 L 91.5 342 L 89.5 340 Z " /><path fill="rgb(228,24,55)" stroke="rgb(228,24,55)" stroke-width="1" opacity="1" d="M 95.5 342 L 100 343.5 L 97.5 344 L 95.5 342 Z " /><path fill="rgb(228,24,55)" stroke="rgb(228,24,55)" stroke-width="1" opacity="1" d="M 101.5 344 L 104 344.5 L 101.5 345 L 101.5 344 Z " /><path fill="rgb(228,24,55)" stroke="rgb(228,24,55)" stroke-width="1" opacity="1" d="M 105.5 345 L 109 346.5 L 106.5 347 L 105.5 345 Z " /><path fill="rgb(228,24,55)" stroke="rgb(228,24,55)" stroke-width="1" opacity="1" d="M 110.5 347 L 118 349.5 L 115.5 350 L 110.5 348 L 110.5 347 Z " /><path fill="rgb(228,24,55)" stroke="rgb(228,24,55)" stroke-width="1" opacity="1" d="M 119.5 350 L 122 350.5 L 119.5 351 L 119.5 350 Z " /><path fill="rgb(228,24,55)" stroke="rgb(228,24,55)" stroke-width="1" opacity="1" d="M 123.5 351 L 124 353.5 L 59.5 442 L 59 440.5 L 123.5 351 Z " /><path fill="rgb(228,24,55)" stroke="rgb(228,24,55)" stroke-width="1" opacity="1" d="M 129 353 L 131 353.5 L 128 355.5 L 129 353 Z " /><path fill="rgb(228,24,55)" stroke="rgb(228,24,55)" stroke-width="1" opacity="1" d="M 125.5 358 L 124.5 360 L 125.5 358 Z " /><path fill="rgb(228,24,55)" stroke="rgb(228,24,55)" stroke-width="1" opacity="1" d="M 120.5 365 L 119.5 367 L 120.5 365 Z " /><path fill="rgb(228,24,55)" stroke="rgb(228,24,55)" stroke-width="1" opacity="1" d="M 327.5 402 L 330 402.5 L 327.5 403 L 327.5 402 Z " /><path fill="rgb(228,24,55)" stroke="rgb(228,24,55)" stroke-width="1" opacity="1" d="M 331.5 403 L 339 405.5 L 336.5 406 L 331.5 404 L 331.5 403 Z " /><path fill="rgb(228,24,55)" stroke="rgb(228,24,55)" stroke-width="1" opacity="1" d="M 340.5 406 L 348 408.5 L 345.5 409 L 340.5 407 L 340.5 406 Z " /><path fill="rgb(228,24,55)" stroke="rgb(228,24,55)" stroke-width="1" opacity="1" d="M 301.5 409 L 301.5 412 L 297.5 411 L 207 441.5 L 208.5 443 Q 222.8 445.2 234 450.5 L 231.5 451 L 214.5 445 L 210.5 445 L 204.5 442 L 201.5 443 L 201.5 442 L 301.5 409 Z " /><path fill="rgb(228,24,55)" stroke="rgb(228,24,55)" stroke-width="1" opacity="1" d="M 349.5 409 L 357 411.5 L 354.5 412 L 349.5 410 L 349.5 409 Z " /><path fill="rgb(228,24,55)" stroke="rgb(228,24,55)" stroke-width="1" opacity="1" d="M 303.5 411 L 392 440.5 L 389.5 441 L 303 413 L 303.5 411 Z " /><path fill="rgb(228,24,55)" stroke="rgb(228,24,55)" stroke-width="1" opacity="1" d="M 361.5 413 L 369 415.5 L 367.5 416 L 361.5 414 L 361.5 413 Z " /><path fill="rgb(228,24,55)" stroke="rgb(228,24,55)" stroke-width="1" opacity="1" d="M 370.5 416 L 385 420.5 L 382.5 421 L 370.5 417 L 370.5 416 Z " /><path fill="rgb(228,24,55)" stroke="rgb(228,24,55)" stroke-width="1" opacity="1" d="M 386.5 421 L 391 422.5 L 388.5 423 L 386.5 421 Z " /><path fill="rgb(228,24,55)" stroke="rgb(228,24,55)" stroke-width="1" opacity="1" d="M 80.5 422 L 79.5 424 L 80.5 422 Z " /><path fill="rgb(228,24,55)" stroke="rgb(228,24,55)" stroke-width="1" opacity="1" d="M 392.5 423 L 397 424.5 L 394.5 425 L 392.5 423 Z " /><path fill="rgb(228,24,55)" stroke="rgb(228,24,55)" stroke-width="1" opacity="1" d="M 401.5 426 L 406 427.5 L 403.5 428 L 401.5 426 Z " /><path fill="rgb(228,24,55)" stroke="rgb(228,24,55)" stroke-width="1" opacity="1" d="M 410.5 429 L 418 431.5 L 416.5 432 L 410.5 430 L 410.5 429 Z " /><path fill="rgb(228,24,55)" stroke="rgb(228,24,55)" stroke-width="1" opacity="1" d="M 423.5 433 L 428 434.5 L 425.5 435 L 423.5 433 Z " /><path fill="rgb(228,24,55)" stroke="rgb(228,24,55)" stroke-width="1" opacity="1" d="M 432.5 436 L 437 437.5 L 434.5 438 L 432.5 436 Z " /><path fill="rgb(228,24,55)" stroke="rgb(228,24,55)" stroke-width="1" opacity="1" d="M 444.5 440 L 452 442.5 L 450.5 443 L 444.5 441 L 444.5 440 Z " /><path fill="rgb(228,24,55)" stroke="rgb(228,24,55)" stroke-width="1" opacity="1" d="M 393.5 441 L 429 452.5 L 426.5 453 L 401.5 444 L 395.5 443 L 393.5 441 Z " /><path fill="rgb(228,24,55)" stroke="rgb(228,24,55)" stroke-width="1" opacity="1" d="M 453.5 443 L 474 449.5 L 471.5 450 L 453.5 444 L 453.5 443 Z " /><path fill="rgb(228,24,55)" stroke="rgb(228,24,55)" stroke-width="1" opacity="1" d="M 197.5 444 L 198.5 446 L 197.5 444 Z " /><path fill="rgb(228,24,55)" stroke="rgb(228,24,55)" stroke-width="1" opacity="1" d="M 210.5 447 L 219 449.5 L 216.5 450 L 210.5 448 L 210.5 447 Z " /><path fill="rgb(228,24,55)" stroke="rgb(228,24,55)" stroke-width="1" opacity="1" d="M 220.5 450 L 225 451.5 L 223.5 452 L 220.5 451 L 220.5 450 Z " /><path fill="rgb(228,24,55)" stroke="rgb(228,24,55)" stroke-width="1" opacity="1" d="M 235.5 451 L 252 456 L 252.5 458 L 255.5 457 L 270.5 463 L 273.5 463 L 376 497 Q 377.1 499.7 374.5 499 L 368 497 L 367.5 495 L 365.5 496 L 255.5 459 L 248 457.5 L 248.5 456 L 244.5 457 L 244.5 456 L 246 455.5 L 243.5 455 L 241.5 456 L 241.5 455 L 243 454.5 L 240.5 454 L 239 454.5 L 239.5 453 L 233.5 454 L 232.5 452 L 236.5 453 L 236.5 452 L 235.5 451 Z " /><path fill="rgb(228,24,55)" stroke="rgb(228,24,55)" stroke-width="1" opacity="1" d="M 481.5 452 L 486 453.5 L 484.5 454 L 481.5 453 L 481.5 452 Z " /><path fill="rgb(228,24,55)" stroke="rgb(228,24,55)" stroke-width="1" opacity="1" d="M 430.5 453 L 438 455.5 L 435.5 456 L 430.5 454 L 430.5 453 Z " /><path fill="rgb(228,24,55)" stroke="rgb(228,24,55)" stroke-width="1" opacity="1" d="M 490.5 455 L 498 457.5 L 496.5 458 L 490.5 456 L 490.5 455 Z " /><path fill="rgb(228,24,55)" stroke="rgb(228,24,55)" stroke-width="1" opacity="1" d="M 439.5 456 L 447 458.5 L 444.5 459 L 439.5 457 L 439.5 456 Z " /><path fill="rgb(228,24,55)" stroke="rgb(228,24,55)" stroke-width="1" opacity="1" d="M 499.5 458 L 511 461.5 L 508.5 462 L 505.5 461 L 504 461.5 L 504.5 460 L 499.5 459 L 499.5 458 Z " /><path fill="rgb(228,24,55)" stroke="rgb(228,24,55)" stroke-width="1" opacity="1" d="M 448.5 459 L 451.5 459 L 484 470.5 L 481.5 471 L 456.5 462 L 453.5 462 L 448.5 460 L 448.5 459 Z " /><path fill="rgb(228,24,55)" stroke="rgb(228,24,55)" stroke-width="1" opacity="1" d="M 512.5 462 L 520 464.5 L 517.5 465 L 512.5 463 L 512.5 462 Z " /><path fill="rgb(228,24,55)" stroke="rgb(228,24,55)" stroke-width="1" opacity="1" d="M 521.5 465 L 526 466.5 L 523.5 467 L 521.5 465 Z " /><path fill="rgb(228,24,55)" stroke="rgb(228,24,55)" stroke-width="1" opacity="1" d="M 527.5 467 L 532 468.5 L 530.5 469 L 527.5 468 L 527.5 467 Z " /><path fill="rgb(228,24,55)" stroke="rgb(228,24,55)" stroke-width="1" opacity="1" d="M 485.5 470 L 493.5 474 L 495.5 474 L 538.5 488 L 540 487.5 Q 540.9 490.5 536.5 489 L 528.5 492 L 528.5 491 L 536 488.5 L 485 472 L 485.5 470 Z " /><path fill="rgb(228,24,55)" stroke="rgb(228,24,55)" stroke-width="1" opacity="1" d="M 536.5 470 L 540 471.5 L 539.5 474 L 539 471 Q 535.7 471.8 536.5 470 Z " /><path fill="rgb(228,24,55)" stroke="rgb(228,24,55)" stroke-width="1" opacity="1" d="M 539.5 482 L 540 485.5 L 539 485.5 L 539.5 482 Z " /><path fill="rgb(228,24,55)" stroke="rgb(228,24,55)" stroke-width="1" opacity="1" d="M 525.5 492 L 527 492.5 L 519.5 495 L 519.5 494 L 525.5 492 Z " /><path fill="rgb(228,24,55)" stroke="rgb(228,24,55)" stroke-width="1" opacity="1" d="M 516.5 495 L 518 495.5 L 513.5 497 L 513.5 496 L 516.5 495 Z " /><path fill="rgb(228,24,55)" stroke="rgb(228,24,55)" stroke-width="1" opacity="1" d="M 377 498 L 385 500 Q 386.1 502.7 383.5 502 L 377 500 L 377 498 Z " /><path fill="rgb(228,24,55)" stroke="rgb(228,24,55)" stroke-width="1" opacity="1" d="M 507.5 498 L 509 498.5 L 501.5 501 L 501.5 500 L 507.5 498 Z " /><path fill="rgb(228,24,55)" stroke="rgb(228,24,55)" stroke-width="1" opacity="1" d="M 386 501 L 404 506.5 L 399.5 508 L 386 503 L 386 501 Z " /><path fill="rgb(228,24,55)" stroke="rgb(228,24,55)" stroke-width="1" opacity="1" d="M 498.5 501 L 500 501.5 L 495.5 503 L 495.5 502 L 498.5 501 Z " /><path fill="rgb(228,24,55)" stroke="rgb(228,24,55)" stroke-width="1" opacity="1" d="M 489.5 504 L 491 504.5 L 483.5 507 L 483.5 506 L 489.5 504 Z " /><path fill="rgb(228,24,55)" stroke="rgb(228,24,55)" stroke-width="1" opacity="1" d="M 405.5 507 L 408.5 507 L 441.5 519 L 446.5 519 L 448.5 518 L 448.5 519 L 441 521 Q 442.3 517.7 437.5 519 L 431.5 516 L 410.5 510 L 408.5 511 L 408.5 510 L 410 509.5 Q 404.8 509.3 405.5 507 Z " /><path fill="rgb(228,24,55)" stroke="rgb(228,24,55)" stroke-width="1" opacity="1" d="M 480.5 507 L 482 507.5 L 474.5 510 L 474.5 509 L 480.5 507 Z " /><path fill="rgb(228,24,55)" stroke="rgb(228,24,55)" stroke-width="1" opacity="1" d="M 403.5 508 L 406 509.5 L 404.5 510 L 403.5 508 Z " /><path fill="rgb(228,24,55)" stroke="rgb(228,24,55)" stroke-width="1" opacity="1" d="M 471.5 510 L 473 510.5 L 456.5 516 L 456.5 515 L 471.5 510 Z " /><path fill="rgb(228,24,55)" stroke="rgb(228,24,55)" stroke-width="1" opacity="1" d="M 412.5 513 L 417 514.5 L 415.5 515 L 412.5 514 L 412.5 513 Z " /><path fill="rgb(228,24,55)" stroke="rgb(228,24,55)" stroke-width="1" opacity="1" d="M 421.5 516 L 426 517.5 L 424.5 518 L 421.5 517 L 421.5 516 Z " /><path fill="rgb(228,24,55)" stroke="rgb(228,24,55)" stroke-width="1" opacity="1" d="M 453.5 516 L 455 516.5 L 450.5 518 L 450.5 517 L 453.5 516 Z " /><path fill="rgb(228,24,55)" stroke="rgb(228,24,55)" stroke-width="1" opacity="1" d="M 426.5 519 L 434 521.5 L 432.5 522 L 426.5 520 L 426.5 519 Z " /><path fill="rgb(228,26,56)" stroke="rgb(228,26,56)" stroke-width="1" opacity="1" d="M 58 329 L 60 329.5 L 59.5 331 L 62.5 330 L 62.5 332 L 65.5 331 L 65.5 332 L 64 332.5 L 66.5 333 L 69 332 L 69.5 334 L 71.5 333 L 71.5 335 L 74.5 334 L 74.5 335 L 73 335.5 L 75.5 336 L 77.5 335 L 77.5 337 L 80.5 336 L 80.5 337 L 79 337.5 L 81.5 338 L 83.5 337 L 83.5 338 L 82 338.5 L 84.5 339 L 86.5 338 L 86.5 339 L 85 339.5 L 87.5 340 L 89.5 339 L 89.5 341 L 92.5 340 L 92.5 341 L 91 341.5 L 93.5 342 L 95.5 341 L 95.5 343 L 98.5 342 L 98.5 343 L 97 343.5 L 99.5 344 L 101.5 343 L 101.5 345 L 104.5 344 L 105.5 346 L 107.5 345 L 107.5 346 L 106 346.5 L 108.5 347 L 110.5 346 L 110.5 348 L 113.5 347 L 113.5 349 L 116.5 348 L 116.5 349 L 115 349.5 L 117.5 350 L 119.5 349 L 119.5 351 L 122.5 350 L 123 352.5 L 122 354.5 L 124 353.5 Q 122.9 350.2 125.5 351 L 129 353.5 L 129.5 355 L 133.5 354 L 137 355.5 L 60 462 L 58 461.5 L 58 329 Z M 122 355 L 119 359 L 122 357 L 122 355 Z M 119 359 L 116 363 L 119 361 L 119 359 Z M 116 363 L 114 366 L 116 365 L 116 363 Z M 114 366 L 111 370 L 114 368 L 114 366 Z M 110 371 L 108 374 L 110 373 L 110 371 Z M 108 374 L 106 377 L 108 376 L 108 374 Z M 106 377 L 104 380 L 106 379 L 106 377 Z M 103 381 L 98 387 L 99 388 L 103 383 L 103 381 Z M 98 388 L 95 392 L 98 390 L 98 388 Z M 95 392 L 92 396 L 95 394 L 95 392 Z M 92 396 L 90 399 L 92 398 L 92 396 Z M 90 399 L 87 403 L 90 401 L 90 399 Z M 87 403 L 84 407 L 87 405 L 87 403 Z M 84 407 L 82 410 L 84 409 L 84 407 Z M 82 410 L 80 413 L 82 412 L 82 410 Z M 79 414 L 74 420 L 75 421 L 79 416 L 79 414 Z M 74 421 L 71 425 L 74 423 L 74 421 Z M 71 425 L 69 428 L 71 427 L 71 425 Z M 69 428 L 66 432 L 69 430 L 69 428 Z M 66 432 L 63 436 L 66 434 L 66 432 Z M 63 436 L 61 439 L 63 438 L 63 436 Z " /><path fill="rgb(228,26,56)" stroke="rgb(228,26,56)" stroke-width="1" opacity="1" d="M 369.5 386 L 375.5 389 L 378.5 389 L 455.5 415 L 486.5 424 L 510.5 433 L 532.5 439 L 539 442.5 L 538.5 446 L 535.5 445 L 535.5 446 L 540 447 L 540 470.5 L 539 473.5 Q 541.8 475.3 540 481.5 L 539 485.5 Q 541.3 486.8 538.5 488 L 494.5 473 L 493.5 475 L 530.5 486 L 538 489.5 L 536.5 490 L 534.5 489 L 534.5 491 L 531.5 490 L 531.5 492 L 528.5 491 L 528.5 493 L 525.5 492 L 525.5 494 L 522.5 493 L 522.5 495 L 519.5 494 L 519.5 496 L 516.5 495 L 516.5 497 L 513.5 496 L 513.5 498 L 510.5 497 L 510.5 499 L 507.5 498 L 507.5 500 L 504.5 499 L 504.5 501 L 501.5 500 L 501.5 502 L 498.5 501 L 498.5 503 L 495.5 502 L 495.5 504 L 492.5 503 L 492.5 505 L 489.5 504 L 489.5 506 L 486.5 505 L 486.5 507 L 483.5 506 L 483.5 508 L 480.5 507 L 480.5 509 L 477.5 508 L 477.5 510 L 474.5 509 L 474.5 511 L 471.5 510 L 471.5 512 L 468.5 511 L 468.5 513 L 465.5 512 L 465.5 514 L 462.5 513 L 462.5 515 L 459.5 514 L 459.5 516 L 456.5 515 L 456.5 517 L 453.5 516 L 453.5 518 L 450.5 517 L 450.5 519 L 447.5 518 L 447.5 520 L 441 519 L 442 521.5 L 437.5 523 L 435.5 522 L 435.5 524 L 424.5 527 L 414.5 522 L 409.5 521 L 409.5 522 L 423 527.5 L 419.5 528 L 396 519.5 L 396.5 518 L 393 517.5 L 395.5 514 L 397.5 515 L 401 512.5 Q 399 509 392.5 510 L 392.5 512 L 391 511.5 L 392 513.5 L 389 512.5 L 388.5 514 L 387.5 513 L 385.5 515 L 383 514.5 L 382.5 513 L 380.5 515 L 374.5 509 L 371.5 509 L 368.5 507 L 362.5 506 L 359.5 504 L 353.5 503 L 350.5 501 L 347.5 501 L 341.5 498 L 338.5 498 L 234.5 463 L 232.5 463 L 228.5 462 L 224 463.5 L 225 461.5 L 223.5 462 L 222 462.5 L 222.5 464 L 220 463.5 L 222.5 459 L 226.5 459 L 231.5 457 L 234.5 458 L 234.5 457 L 223.5 455 L 211.5 459 L 210 456.5 L 210.5 455 L 200.5 453 L 200.5 454 L 209 456.5 L 205.5 457 L 180 449.5 L 200.5 442 L 203.5 443 L 203.5 441 Q 206.7 445.3 214.5 445 L 214.5 444 Q 208.1 444.4 206 440.5 L 207.5 441 L 210 440.5 L 209.5 439 L 213.5 440 L 216 438.5 L 215.5 437 L 218.5 438 L 218.5 436 L 222.5 437 L 225 435.5 L 224.5 434 L 227.5 435 L 227.5 433 L 231.5 434 L 234 432.5 L 233.5 431 L 236.5 432 L 236.5 430 L 240.5 431 L 243 429.5 L 242.5 428 L 245.5 429 L 245.5 427 L 248.5 428 L 248.5 426 L 251.5 427 L 251.5 425 L 254.5 426 L 254.5 424 L 257.5 425 L 257.5 423 L 260.5 424 L 260.5 422 L 263.5 423 L 263.5 421 L 266.5 422 L 266.5 420 L 269.5 421 L 269.5 419 L 272.5 420 L 272.5 418 L 275.5 419 L 275.5 417 L 278.5 418 L 278.5 416 L 281.5 417 L 281.5 415 L 284.5 416 L 284.5 414 L 287.5 415 L 287.5 413 L 290.5 414 L 290.5 412 L 293.5 413 L 293.5 411 L 296.5 412 L 296.5 410 L 301.5 412 L 300.5 410 L 299 409.5 L 300.5 409 L 302 409.5 Q 301.3 407.3 303.5 408 L 305.5 409 L 305.5 407 L 308.5 408 L 308.5 406 L 311.5 407 L 311.5 405 L 322.5 402 L 324 402.5 L 324.5 401 Q 326 403.5 327.5 400 L 361.5 389 L 367.5 392 L 370.5 392 L 370.5 391 L 366 390 Q 364.5 386.2 367.5 387 L 369.5 388 L 369.5 386 Z M 372 392 L 372 393 L 378 395 L 380 395 L 372 392 Z M 381 395 L 381 396 L 387 398 L 389 398 L 381 395 Z M 391 398 L 391 399 L 396 401 L 399 401 L 391 398 Z M 400 401 L 400 402 L 405 404 L 408 404 L 400 401 Z M 328 402 L 328 403 L 330 403 L 328 402 Z M 334 404 L 334 405 L 336 405 L 334 404 Z M 409 404 L 409 405 L 488 431 L 488 429 L 412 404 L 409 404 Z M 337 405 L 337 406 L 339 406 L 337 405 Z M 343 407 L 343 408 L 345 408 L 343 407 Z M 346 408 L 346 409 L 348 409 L 346 408 Z M 352 410 L 352 411 L 354 411 L 352 410 Z M 304 411 L 303 413 L 319 418 L 322 418 L 304 411 Z M 355 411 L 355 412 L 357 412 L 355 411 Z M 364 414 L 364 415 L 367 415 L 364 414 Z M 371 416 L 371 417 L 373 417 L 371 416 Z M 374 417 L 374 418 L 376 418 L 374 417 Z M 323 418 L 325 420 L 331 421 L 362 432 L 365 432 L 323 418 Z M 377 418 L 377 419 L 379 419 L 377 418 Z M 380 419 L 380 420 L 382 420 L 380 419 Z M 383 420 L 383 421 L 385 421 L 383 420 Z M 389 422 L 389 423 L 391 423 L 389 422 Z M 395 424 L 395 425 L 397 425 L 395 424 Z M 402 426 L 404 428 L 406 428 L 402 426 Z M 411 429 L 411 430 L 413 430 L 411 429 Z M 414 430 L 414 431 L 416 431 L 414 430 Z M 490 430 L 491 432 L 494 432 L 490 430 Z M 366 432 L 366 433 L 372 435 L 374 435 L 366 432 Z M 495 432 L 495 433 L 497 433 L 495 432 Z M 499 433 L 499 434 L 504 436 L 507 436 L 499 433 Z M 426 434 L 426 435 L 428 435 L 426 434 Z M 375 435 L 375 436 L 381 438 L 383 438 L 375 435 Z M 508 436 L 508 437 L 513 439 L 516 439 L 508 436 Z M 435 437 L 435 438 L 437 438 L 435 437 Z M 384 438 L 384 439 L 390 441 L 392 441 L 384 438 Z M 517 439 L 517 440 L 522 442 L 525 442 L 517 439 Z M 445 440 L 445 441 L 447 441 L 445 440 Z M 394 441 L 394 442 L 399 444 L 402 444 L 394 441 Z M 448 441 L 448 442 L 450 442 L 448 441 Z M 526 442 L 526 443 L 531 445 L 534 445 L 526 442 Z M 454 443 L 454 444 L 456 444 L 454 443 Z M 403 444 L 403 445 L 409 447 L 411 447 L 403 444 Z M 457 444 L 457 445 L 459 445 L 457 444 Z M 216 445 L 216 446 L 222 448 L 225 448 L 216 445 Z M 460 445 L 460 446 L 462 446 L 460 445 Z M 463 446 L 463 447 L 465 447 L 463 446 Z M 211 447 L 211 448 L 213 448 L 211 447 Z M 412 447 L 412 448 L 418 450 L 420 450 L 412 447 Z M 466 447 L 466 448 L 468 448 L 466 447 Z M 214 448 L 214 449 L 216 449 L 214 448 Z M 226 448 L 226 449 L 232 451 L 234 451 L 226 448 Z M 469 448 L 469 449 L 471 449 L 469 448 Z M 185 449 L 185 450 L 188 450 L 185 449 Z M 217 449 L 217 450 L 219 450 L 217 449 Z M 472 449 L 472 450 L 474 450 L 472 449 Z M 189 450 L 189 451 L 197 453 L 200 453 L 189 450 Z M 221 450 L 221 451 L 223 451 L 221 450 Z M 421 450 L 421 451 L 427 453 L 429 453 L 421 450 Z M 236 451 L 236 452 L 241 454 L 243 454 L 236 451 Z M 482 452 L 482 453 L 484 453 L 482 452 Z M 234 453 L 234 454 L 237 454 L 234 453 Z M 431 453 L 431 454 L 436 456 L 438 456 L 431 453 Z M 244 454 Q 243 456 246 456 L 245 456 L 245 457 L 249 456 L 249 458 Q 253 459 252 456 L 244 454 Z M 491 455 L 491 456 L 493 456 L 491 455 Z M 440 456 L 440 457 L 445 459 L 447 459 L 440 456 Z M 494 456 L 494 457 L 496 457 L 494 456 Z M 254 457 L 252 459 L 366 496 L 368 495 L 254 457 Z M 500 458 L 500 459 L 502 459 L 500 458 Z M 449 459 L 449 460 L 454 462 L 457 462 L 449 459 Z M 503 459 L 503 460 L 505 460 L 503 459 Z M 506 460 L 506 461 L 508 461 L 506 460 Z M 509 461 L 509 462 L 511 462 L 509 461 Z M 458 462 L 458 463 L 482 471 L 484 471 L 461 462 L 458 462 Z M 515 463 L 515 464 L 517 464 L 515 463 Z M 518 464 L 518 465 L 520 465 L 518 464 Z M 524 466 L 524 467 L 526 467 L 524 466 Z M 528 467 L 528 468 L 530 468 L 528 467 Z M 486 470 L 485 472 L 488 472 L 486 470 Z M 537 470 L 537 471 L 539 471 L 537 470 Z M 489 472 L 491 474 L 493 474 L 489 472 Z M 368 495 L 368 497 L 375 499 Q 377 500 376 497 L 368 495 Z M 377 498 L 377 500 L 384 502 Q 386 503 385 500 L 377 498 Z M 386 501 L 386 503 L 393 505 L 395 504 L 386 501 Z M 396 504 L 394 506 L 398 507 L 400 506 L 400 508 L 404 507 L 396 504 Z M 406 507 L 406 508 L 411 510 L 414 510 L 406 507 Z M 415 510 L 415 511 L 420 513 L 423 513 L 415 510 Z M 413 513 L 413 514 L 415 514 L 413 513 Z M 424 513 L 424 514 L 430 516 L 432 516 L 424 513 Z M 422 516 L 422 517 L 424 517 L 422 516 Z M 433 516 L 433 517 L 438 519 L 441 519 L 433 516 Z M 400 518 L 400 519 L 406 521 L 408 521 L 400 518 Z M 427 519 L 427 520 L 429 520 L 427 519 Z M 430 520 L 430 521 L 432 521 L 430 520 Z " /><path fill="rgb(228,26,56)" stroke="rgb(228,26,56)" stroke-width="1" opacity="1" d="M 216.5 462 L 219 463.5 L 217.5 463 L 216.5 462 Z " /></svg>