<?xml version="1.0" encoding="utf-8"?>
<!-- Generator: Adobe Illustrator 27.1.0, SVG Export Plug-In . SVG Version: 6.00 Build 0)  -->
<svg version="1.1" id="Layer_1" xmlns="http://www.w3.org/2000/svg" xmlns:xlink="http://www.w3.org/1999/xlink" x="0px" y="0px"
	 viewBox="0 0 255 154" style="enable-background:new 0 0 255 154;" xml:space="preserve">
<style type="text/css">
	.st0{fill:#C10230;}
	.st1{fill:#111C4E;}
</style>
<path class="st0" d="M71.8,33.9l27.1,0l28.7-17.6L156.1,34h26.9L132,3.2c-2.7-1.6-6.1-1.6-8.8,0L71.8,33.9L71.8,33.9z"/>
<path class="st0" d="M183.2,120.4l-27.1,0l-28.7,17.6l-28.7-17.7h-27l51.2,30.9c2.7,1.6,6.1,1.7,8.8,0L183.2,120.4L183.2,120.4z"/>
<path class="st1" d="M0.6,57.9c0-2.1,0.1-4.9,2.7-7.2c1.2-1,2.9-1.7,4.8-1.7c4,0,7.7,3.2,7.7,9.2l-0.1,37.5c0,1.4-0.2,3.3-1.4,5.2
	c-1.4,2.1-3.7,3.3-6.2,3.3c-2.3,0-4.7-1.1-6.1-3c-1.3-1.9-1.6-3.8-1.6-5.5L0.6,57.9z"/>
<path class="st1" d="M48.4,61.6c2.3,0.1,5.1,0.3,6.6,2.8c0.5,0.8,0.7,1.9,0.7,2.9c0,2-0.8,3.3-1.8,4c-1.5,1.3-3.8,1.3-5.6,1.3h-7.9
	l0-11L48.4,61.6L48.4,61.6z M25,95.3c0,1.9,0.2,4.4,2.3,6.5c1.4,1.5,3.3,2.5,5.5,2.5s4.5-1,5.8-2.7c1.6-2,1.8-4.2,1.8-6.1V84.3h5.8
	c2.4,0.1,6.1,0.2,7.8,3.8c0.6,1.3,0.8,2.7,1.1,4.1c0.6,4.3,1,7.5,4.1,10.2c0.7,0.6,2.3,2,5.2,2.1c4.2,0,8-2.6,8-6.3
	c0-1.3-0.7-2.5-1.2-3.7c-0.6-1.5-1-4.4-1.2-6c-1.5-9.7-5.7-10.5-9.8-11c1.9-0.4,4.7-0.8,7.3-3.8c1.2-1.3,3.2-4.2,3.2-9
	c0-4.1-1.2-7.8-4.3-10.6c-4.2-3.7-9.3-4.2-15.6-4.2l-17.7,0c-1.8,0-5.2,0.3-6.9,3.5c-0.9,1.5-0.9,3-1,4.3C25.1,57.6,25,95.3,25,95.3
	z"/>
<path class="st1" d="M93.3,72c1.9,7.1,2.3,8.8,3.4,15.3c0.8-3.8,1.1-5.2,2.2-9.3l6.5-22.4c0.8-2.3,2.1-6.2,7.1-6.1
	c4.6,0,7.3,3.7,7.3,7.2c0,1.9-0.7,3.8-1.3,5.6l-12.3,34.2c-2,5.7-3,7.8-9.9,7.8c-6,0-7.1-2.6-8.9-7.4l-13-37.4c-0.3-1-0.5-1.8-0.5-3
	c0-4.3,3.3-7.2,7.5-7.2c5.3,0,6.7,4,7.5,6.6L93.3,72L93.3,72z"/>
<path class="st1" d="M124,57.9c0-2.1,0.1-4.9,2.7-7.2c1.2-1,2.9-1.7,4.8-1.7c4,0,7.7,3.2,7.7,9.2l0,37.6c0,1.5-0.2,3.3-1.3,5.2
	c-1.3,2.1-3.7,3.3-6.2,3.3c-2.4,0-4.7-1.1-6.1-3.1c-1.4-1.9-1.6-3.8-1.6-5.5L124,57.9L124,57.9z"/>
<path class="st1" d="M149.1,56.9c0-1.6,0.3-4,2.2-5.9c1.8-1.7,4.1-1.8,6.2-1.8c4.3,0,5.8,1.4,7.5,4.1c2.7,4.5,5.4,9,8.1,13.6
	c3.2,5.5,6.2,11,9.3,16.5l-0.6-26.3c0-1.5,0.1-3.1,1.1-4.7c1.8-3,4.8-3.1,5.8-3.1c1.8,0,3.6,0.7,5.1,2.2c2,2.2,2,4.8,2.1,6.7
	l-0.1,38.1c0,1.8-0.1,8.3-7.8,8.2c-2.5,0-5.6-0.9-9.5-6.4c-2.7-3.8-10.6-17.7-16-27.2l0.6,25.3c-0.1,1.7-0.1,3.3-1.2,5.1
	c-1.3,2-3.6,3.2-5.8,3.2c-1.1,0-2.3-0.3-3.3-0.9c-3.6-1.9-3.8-5.5-3.8-8.3L149.1,56.9L149.1,56.9z"/>
<path class="st1" d="M239.5,103.3c-4.8,1.5-8,1.7-12,1.7c-4.8-0.1-10.9-1.3-16.6-6.5c-6.7-6-8.6-14.2-8.6-21.9
	c0-16.9,10.5-28.5,27.4-28.4c13.2,0,19.1,5.8,21.5,9.4c0.7,1.2,1.2,2.8,0.7,5.1c-0.7,2.5-3.7,5.2-8,4.4c-2.5-0.6-4.5-2.7-5.7-3.8
	c-1.1-1-3-2.8-7.8-2.9c-9,0-12.9,7.2-13,15.8c0,10.4,4.9,16.1,11.8,16.2c1.9,0,4.5-0.4,6.5-1.7c2.8-1.5,4.3-3.8,4.7-6.8h-5.1
	c-1.6,0-3.4,0-4.8-0.8c-1.9-1-3-2.9-3-5c0-2.1,1-3.6,2.5-4.5c1.3-0.9,2.6-1,4-1l14,0c1.4,0,2.9,0.1,4.3,0.9c2,1.4,2.1,3.7,2.2,6.3
	C253.9,99.9,239.4,103.3,239.5,103.3"/>
</svg>
