<svg width="325" height="225" version="1.1" xmlns="http://www.w3.org/2000/svg" desc="Created with imagetracer.js version 1.2.6" ><path fill="rgb(196,210,234)" stroke="rgb(196,210,234)" stroke-width="1" opacity="1" d="M 64.5 80 L 63.5 82 L 64.5 80 Z " /><path fill="rgb(196,210,234)" stroke="rgb(196,210,234)" stroke-width="1" opacity="1" d="M 69.5 80 L 70.5 82 L 69.5 80 Z " /><path fill="rgb(196,210,234)" stroke="rgb(196,210,234)" stroke-width="1" opacity="1" d="M 220.5 81 L 221 145.5 L 220 145.5 L 220.5 81 Z " /><path fill="rgb(196,210,234)" stroke="rgb(196,210,234)" stroke-width="1" opacity="1" d="M 270.5 81 L 271 144.5 L 269 143.5 L 270 142.5 L 270.5 81 Z " /><path fill="rgb(196,210,234)" stroke="rgb(196,210,234)" stroke-width="1" opacity="1" d="M 58.5 85 L 50.5 94 L 58.5 85 Z " /><path fill="rgb(196,210,234)" stroke="rgb(196,210,234)" stroke-width="1" opacity="1" d="M 257.5 85 L 258.5 87 L 257.5 85 Z " /><path fill="rgb(196,210,234)" stroke="rgb(196,210,234)" stroke-width="1" opacity="1" d="M 76.5 86 L 82.5 93 L 76.5 86 Z " /><path fill="rgb(196,210,234)" stroke="rgb(196,210,234)" stroke-width="1" opacity="1" d="M 207.5 88 L 211.5 93 L 207.5 88 Z " /><path fill="rgb(196,210,234)" stroke="rgb(196,210,234)" stroke-width="1" opacity="1" d="M 47.5 97 L 46.5 99 L 47.5 97 Z " /><path fill="rgb(196,210,234)" stroke="rgb(196,210,234)" stroke-width="1" opacity="1" d="M 86.5 97 L 87.5 99 L 86.5 97 Z " /><path fill="rgb(196,210,234)" stroke="rgb(196,210,234)" stroke-width="1" opacity="1" d="M 150.5 98 L 146.5 103 L 150.5 98 Z " /><path fill="rgb(196,210,234)" stroke="rgb(196,210,234)" stroke-width="1" opacity="1" d="M 248.5 98 L 250.5 101 L 248.5 98 Z " /><path fill="rgb(196,210,234)" stroke="rgb(196,210,234)" stroke-width="1" opacity="1" d="M 66.5 99 L 64.5 102 L 66.5 99 Z " /><path fill="rgb(196,210,234)" stroke="rgb(196,210,234)" stroke-width="1" opacity="1" d="M 197.5 100 L 199.5 103 L 197.5 100 Z " /><path fill="rgb(196,210,234)" stroke="rgb(196,210,234)" stroke-width="1" opacity="1" d="M 155.5 103 L 156.5 105 L 155.5 103 Z " /><path fill="rgb(196,210,234)" stroke="rgb(196,210,234)" stroke-width="1" opacity="1" d="M 73.5 106 L 74.5 108 L 73.5 106 Z " /><path fill="rgb(196,210,234)" stroke="rgb(196,210,234)" stroke-width="1" opacity="1" d="M 59.5 107 L 58.5 109 L 59.5 107 Z " /><path fill="rgb(196,210,234)" stroke="rgb(196,210,234)" stroke-width="1" opacity="1" d="M 236.5 109 L 244 109.5 L 236.5 110 L 236.5 109 Z " /><path fill="rgb(196,210,234)" stroke="rgb(196,210,234)" stroke-width="1" opacity="1" d="M 76.5 110 L 77.5 112 L 76.5 110 Z " /><path fill="rgb(196,210,234)" stroke="rgb(196,210,234)" stroke-width="1" opacity="1" d="M 203.5 111 L 204 115.5 L 203 115.5 L 203.5 111 Z " /><path fill="rgb(196,210,234)" stroke="rgb(196,210,234)" stroke-width="1" opacity="1" d="M 263.5 114 L 262.5 116 L 263.5 114 Z " /><path fill="rgb(196,210,234)" stroke="rgb(196,210,234)" stroke-width="1" opacity="1" d="M 160.5 117 L 157.5 121 L 160.5 117 Z " /><path fill="rgb(196,210,234)" stroke="rgb(196,210,234)" stroke-width="1" opacity="1" d="M 53.5 118 L 54 121.5 L 53 121.5 L 53.5 118 Z " /><path fill="rgb(196,210,234)" stroke="rgb(196,210,234)" stroke-width="1" opacity="1" d="M 80.5 118 L 81 120.5 L 80 120.5 L 80.5 118 Z " /><path fill="rgb(196,210,234)" stroke="rgb(196,210,234)" stroke-width="1" opacity="1" d="M 257.5 120 L 256.5 122 L 257.5 120 Z " /><path fill="rgb(196,210,234)" stroke="rgb(196,210,234)" stroke-width="1" opacity="1" d="M 148.5 122 L 153 122.5 L 148.5 123 L 148.5 122 Z " /><path fill="rgb(196,210,234)" stroke="rgb(196,210,234)" stroke-width="1" opacity="1" d="M 200.5 123 L 197.5 127 L 200.5 123 Z " /><path fill="rgb(196,210,234)" stroke="rgb(196,210,234)" stroke-width="1" opacity="1" d="M 55.5 125 L 56.5 127 L 55.5 125 Z " /><path fill="rgb(196,210,234)" stroke="rgb(196,210,234)" stroke-width="1" opacity="1" d="M 65.5 130 L 69 130.5 L 65.5 131 L 65.5 130 Z " /><path fill="rgb(196,210,234)" stroke="rgb(196,210,234)" stroke-width="1" opacity="1" d="M 184.5 130 L 188 130.5 L 184.5 131 L 184.5 130 Z " /><path fill="rgb(196,210,234)" stroke="rgb(196,210,234)" stroke-width="1" opacity="1" d="M 155.5 132 L 156 145.5 L 155 145.5 L 155.5 132 Z " /><path fill="rgb(196,210,234)" stroke="rgb(196,210,234)" stroke-width="1" opacity="1" d="M 212.5 133 L 211.5 135 L 212.5 133 Z " /><path fill="rgb(196,210,234)" stroke="rgb(196,210,234)" stroke-width="1" opacity="1" d="M 43.5 135 L 47.5 140 L 43.5 135 Z " /><path fill="rgb(196,210,234)" stroke="rgb(196,210,234)" stroke-width="1" opacity="1" d="M 90.5 135 L 86.5 140 L 90.5 135 Z " /><path fill="rgb(196,210,234)" stroke="rgb(196,210,234)" stroke-width="1" opacity="1" d="M 207.5 138 L 206.5 140 L 207.5 138 Z " /><path fill="rgb(254,254,254)" stroke="rgb(254,254,254)" stroke-width="1" opacity="1" d="M 61.5 82 L 59.5 85 L 61.5 82 Z " /><path fill="rgb(254,254,254)" stroke="rgb(254,254,254)" stroke-width="1" opacity="1" d="M 72.5 82 L 75.5 86 L 72.5 82 Z " /><path fill="rgb(254,254,254)" stroke="rgb(254,254,254)" stroke-width="1" opacity="1" d="M 205.5 86 L 206.5 88 L 205.5 86 Z " /><path fill="rgb(254,254,254)" stroke="rgb(254,254,254)" stroke-width="1" opacity="1" d="M 260.5 87 L 261.5 89 L 260.5 87 Z " /><path fill="rgb(254,254,254)" stroke="rgb(254,254,254)" stroke-width="1" opacity="1" d="M 83.5 93 L 85.5 96 L 83.5 93 Z " /><path fill="rgb(254,254,254)" stroke="rgb(254,254,254)" stroke-width="1" opacity="1" d="M 212.5 93 L 213.5 95 L 212.5 93 Z " /><path fill="rgb(254,254,254)" stroke="rgb(254,254,254)" stroke-width="1" opacity="1" d="M 49.5 94 L 48.5 96 L 49.5 94 Z " /><path fill="rgb(254,254,254)" stroke="rgb(254,254,254)" stroke-width="1" opacity="1" d="M 151.5 98 L 154.5 102 L 151.5 98 Z " /><path fill="rgb(254,254,254)" stroke="rgb(254,254,254)" stroke-width="1" opacity="1" d="M 195.5 99 L 196.5 101 L 195.5 99 Z " /><path fill="rgb(254,254,254)" stroke="rgb(254,254,254)" stroke-width="1" opacity="1" d="M 70.5 103 L 72.5 106 L 70.5 103 Z " /><path fill="rgb(254,254,254)" stroke="rgb(254,254,254)" stroke-width="1" opacity="1" d="M 145.5 103 L 144.5 105 L 145.5 103 Z " /><path fill="rgb(254,254,254)" stroke="rgb(254,254,254)" stroke-width="1" opacity="1" d="M 62.5 104 L 60.5 107 L 62.5 104 Z " /><path fill="rgb(254,254,254)" stroke="rgb(254,254,254)" stroke-width="1" opacity="1" d="M 157.5 105 L 158.5 107 L 157.5 105 Z " /><path fill="rgb(254,254,254)" stroke="rgb(254,254,254)" stroke-width="1" opacity="1" d="M 262.5 116 L 259.5 120 L 262.5 116 Z " /><path fill="rgb(254,254,254)" stroke="rgb(254,254,254)" stroke-width="1" opacity="1" d="M 210.5 136 L 209.5 138 L 210.5 136 Z " /><path fill="rgb(254,254,254)" stroke="rgb(254,254,254)" stroke-width="1" opacity="1" d="M 119.5 143 L 121.5 146 L 119.5 143 Z " /><path fill="rgb(255,255,255)" stroke="rgb(255,255,255)" stroke-width="1" opacity="1" d="M 0 0 L 325 0 L 325 225 L 0 225 L 0 0 Z M 66 79 L 62 82 Q 46 94 38 114 Q 36 128 42 135 Q 48 143 60 146 L 75 146 L 86 141 Q 93 136 96 127 L 96 114 Q 92 103 86 96 L 73 82 L 69 79 L 66 79 Z M 98 81 L 98 146 L 99 146 L 114 146 L 114 82 L 114 81 L 98 81 Z M 118 81 L 118 142 L 119 144 L 122 146 L 156 146 L 156 131 L 134 131 L 134 81 L 118 81 Z M 168 81 L 168 146 L 195 146 Q 204 144 210 138 Q 216 132 219 122 L 219 106 L 214 95 Q 208 86 198 82 L 194 81 L 168 81 Z M 220 81 L 220 146 L 221 146 L 236 146 L 237 119 L 252 145 L 253 146 L 286 146 L 286 82 L 286 81 L 270 81 L 270 143 L 257 122 L 260 120 Q 265 116 267 108 L 267 99 L 262 89 Q 257 83 250 81 L 220 81 Z M 151 98 Q 144 103 140 112 L 141 119 L 148 123 Q 158 124 161 118 L 161 111 L 155 102 L 151 98 Z " /><path fill="rgb(255,255,255)" stroke="rgb(255,255,255)" stroke-width="1" opacity="1" d="M 184 97 Q 195.1 96.5 200 103.5 L 203 109.5 L 203 117.5 L 196.5 127 Q 192.3 131.2 184 130 L 184 97 Z " /><path fill="rgb(255,255,255)" stroke="rgb(255,255,255)" stroke-width="1" opacity="1" d="M 236 97 Q 246 95.3 250 100.5 L 251 103.5 L 247.5 108 L 245.5 109 L 236 109 L 236 97 Z " /><path fill="rgb(255,255,255)" stroke="rgb(255,255,255)" stroke-width="1" opacity="1" d="M 66.5 100 L 70 102.5 L 79 114.5 L 80 122.5 L 76.5 127 Q 72.7 131.2 63.5 130 L 55 124.5 L 54 116.5 Q 58.7 106.7 66.5 100 Z " /><path fill="rgb(71,114,190)" stroke="rgb(71,114,190)" stroke-width="1" opacity="1" d="M 66.5 79 L 69 80.5 L 67.5 80 L 66.5 79 Z " /><path fill="rgb(71,114,190)" stroke="rgb(71,114,190)" stroke-width="1" opacity="1" d="M 99.5 81 L 113.5 81 L 114 81.5 L 114 145.5 L 113 145.5 L 113 82.5 L 112.5 82 L 99 82 L 98.5 146 L 98 82.5 L 99.5 81 Z " /><path fill="rgb(71,114,190)" stroke="rgb(71,114,190)" stroke-width="1" opacity="1" d="M 118 81 L 132.5 81 L 134 82.5 L 134 131 L 154.5 131 L 154.5 132 L 133 132 L 133 82.5 L 132.5 82 L 119 82 L 118.5 140 L 118 81 Z " /><path fill="rgb(71,114,190)" stroke="rgb(71,114,190)" stroke-width="1" opacity="1" d="M 168 81 L 191 81.5 L 169 82 L 168.5 146 L 168 81 Z " /><path fill="rgb(71,114,190)" stroke="rgb(71,114,190)" stroke-width="1" opacity="1" d="M 221.5 81 L 247 81.5 L 221.5 82 L 221.5 81 Z " /><path fill="rgb(71,114,190)" stroke="rgb(71,114,190)" stroke-width="1" opacity="1" d="M 271.5 81 L 286 81.5 L 271.5 82 L 271.5 81 Z " /><path fill="rgb(71,114,190)" stroke="rgb(71,114,190)" stroke-width="1" opacity="1" d="M 62.5 82 L 60.5 85 L 62.5 82 Z " /><path fill="rgb(71,114,190)" stroke="rgb(71,114,190)" stroke-width="1" opacity="1" d="M 71.5 82 L 74.5 86 L 71.5 82 Z " /><path fill="rgb(71,114,190)" stroke="rgb(71,114,190)" stroke-width="1" opacity="1" d="M 255.5 84 L 256.5 86 L 255.5 84 Z " /><path fill="rgb(71,114,190)" stroke="rgb(71,114,190)" stroke-width="1" opacity="1" d="M 259.5 87 L 261.5 90 L 259.5 87 Z " /><path fill="rgb(71,114,190)" stroke="rgb(71,114,190)" stroke-width="1" opacity="1" d="M 83.5 94 L 85.5 97 L 83.5 94 Z " /><path fill="rgb(71,114,190)" stroke="rgb(71,114,190)" stroke-width="1" opacity="1" d="M 212.5 94 L 213.5 96 L 212.5 94 Z " /><path fill="rgb(71,114,190)" stroke="rgb(71,114,190)" stroke-width="1" opacity="1" d="M 49.5 95 L 48.5 97 L 49.5 95 Z " /><path fill="rgb(71,114,190)" stroke="rgb(71,114,190)" stroke-width="1" opacity="1" d="M 183 96 L 189 96.5 L 184 97 L 183.5 131 L 183 96 Z " /><path fill="rgb(71,114,190)" stroke="rgb(71,114,190)" stroke-width="1" opacity="1" d="M 236.5 96 L 245 96.5 L 236.5 97 L 236.5 96 Z " /><path fill="rgb(71,114,190)" stroke="rgb(71,114,190)" stroke-width="1" opacity="1" d="M 67.5 99 L 73.5 106 L 67.5 99 Z " /><path fill="rgb(71,114,190)" stroke="rgb(71,114,190)" stroke-width="1" opacity="1" d="M 87.5 99 L 88.5 101 L 87.5 99 Z " /><path fill="rgb(71,114,190)" stroke="rgb(71,114,190)" stroke-width="1" opacity="1" d="M 151.5 99 L 154.5 103 L 151.5 99 Z " /><path fill="rgb(71,114,190)" stroke="rgb(71,114,190)" stroke-width="1" opacity="1" d="M 266.5 101 L 267 104.5 L 266 104.5 L 266.5 101 Z " /><path fill="rgb(71,114,190)" stroke="rgb(71,114,190)" stroke-width="1" opacity="1" d="M 63.5 102 L 60.5 106 L 63.5 102 Z " /><path fill="rgb(71,114,190)" stroke="rgb(71,114,190)" stroke-width="1" opacity="1" d="M 145.5 104 L 144.5 106 L 145.5 104 Z " /><path fill="rgb(71,114,190)" stroke="rgb(71,114,190)" stroke-width="1" opacity="1" d="M 75.5 108 L 76.5 110 L 75.5 108 Z " /><path fill="rgb(71,114,190)" stroke="rgb(71,114,190)" stroke-width="1" opacity="1" d="M 218.5 108 L 219 110.5 L 218 110.5 L 218.5 108 Z " /><path fill="rgb(71,114,190)" stroke="rgb(71,114,190)" stroke-width="1" opacity="1" d="M 95.5 115 L 96 117.5 L 95 117.5 L 95.5 115 Z " /><path fill="rgb(71,114,190)" stroke="rgb(71,114,190)" stroke-width="1" opacity="1" d="M 218.5 116 L 219 118.5 L 218 118.5 L 218.5 116 Z " /><path fill="rgb(71,114,190)" stroke="rgb(71,114,190)" stroke-width="1" opacity="1" d="M 261.5 116 L 258.5 120 L 261.5 116 Z " /><path fill="rgb(71,114,190)" stroke="rgb(71,114,190)" stroke-width="1" opacity="1" d="M 38.5 122 L 39 124.5 L 38 124.5 L 38.5 122 Z " /><path fill="rgb(71,114,190)" stroke="rgb(71,114,190)" stroke-width="1" opacity="1" d="M 95.5 122 L 96 124.5 L 95 124.5 L 95.5 122 Z " /><path fill="rgb(71,114,190)" stroke="rgb(71,114,190)" stroke-width="1" opacity="1" d="M 79.5 124 L 78.5 126 L 79.5 124 Z " /><path fill="rgb(71,114,190)" stroke="rgb(71,114,190)" stroke-width="1" opacity="1" d="M 57.5 127 L 58.5 129 L 57.5 127 Z " /><path fill="rgb(71,114,190)" stroke="rgb(71,114,190)" stroke-width="1" opacity="1" d="M 76.5 127 L 75.5 129 L 76.5 127 Z " /><path fill="rgb(71,114,190)" stroke="rgb(71,114,190)" stroke-width="1" opacity="1" d="M 196.5 127 L 195.5 129 L 196.5 127 Z " /><path fill="rgb(71,114,190)" stroke="rgb(71,114,190)" stroke-width="1" opacity="1" d="M 188.5 130 L 191 130.5 L 188.5 131 L 188.5 130 Z " /><path fill="rgb(71,114,190)" stroke="rgb(71,114,190)" stroke-width="1" opacity="1" d="M 210.5 135 L 208.5 138 L 210.5 135 Z " /><path fill="rgb(71,114,190)" stroke="rgb(71,114,190)" stroke-width="1" opacity="1" d="M 119.5 142 L 121.5 145 L 119.5 142 Z " /><path fill="rgb(71,114,190)" stroke="rgb(71,114,190)" stroke-width="1" opacity="1" d="M 269.5 144 L 270.5 146 L 269.5 144 Z " /><path fill="rgb(71,114,190)" stroke="rgb(71,114,190)" stroke-width="1" opacity="1" d="M 61.5 145 L 64 145.5 L 61.5 146 L 61.5 145 Z " /><path fill="rgb(71,114,190)" stroke="rgb(71,114,190)" stroke-width="1" opacity="1" d="M 70.5 145 L 73 145.5 L 70.5 146 L 70.5 145 Z " /><path fill="rgb(71,114,190)" stroke="rgb(71,114,190)" stroke-width="1" opacity="1" d="M 189.5 145 L 192 145.5 L 189.5 146 L 189.5 145 Z " /><path fill="rgb(1,60,166)" stroke="rgb(1,60,166)" stroke-width="1" opacity="1" d="M 65.5 80 L 69.5 81 L 83 93.5 Q 90 100.5 94 110.5 L 96 121.5 L 93 131.5 L 85.5 140 Q 78 146 64.5 146 L 51.5 142 L 43 134.5 Q 37.9 128.6 38 117.5 L 39 112.5 L 44 102.5 L 59.5 85 L 65.5 80 Z M 67 99 Q 58 106 53 117 L 54 125 Q 57 129 64 131 Q 72 132 76 129 L 81 123 L 80 115 L 74 106 L 67 99 Z " /><path fill="rgb(1,60,166)" stroke="rgb(1,60,166)" stroke-width="1" opacity="1" d="M 99 82 L 112.5 82 L 113 82.5 L 113 146 L 99.5 146 L 99 145.5 L 99 82 Z " /><path fill="rgb(1,60,166)" stroke="rgb(1,60,166)" stroke-width="1" opacity="1" d="M 119 82 L 132.5 82 L 133 82.5 L 133 132 L 155 132 L 155 146 L 124.5 146 L 119 141.5 L 119 82 Z " /><path fill="rgb(1,60,166)" stroke="rgb(1,60,166)" stroke-width="1" opacity="1" d="M 169 82 L 193.5 82 L 197.5 83 Q 206.5 86.5 212 93.5 Q 219 101 219 115.5 L 217 124.5 L 213 132.5 L 205.5 140 L 194.5 145 L 169 146 L 169 82 Z M 183 96 L 183 131 Q 191 132 196 129 Q 202 125 204 118 Q 205 108 201 104 Q 196 95 183 96 Z " /><path fill="rgb(1,60,166)" stroke="rgb(1,60,166)" stroke-width="1" opacity="1" d="M 221 82 L 249.5 82 Q 258.2 84.8 263 91.5 Q 267.4 96.6 266 107.5 Q 263.1 117.1 256 122.5 L 270 145.5 L 253 146 L 236.5 117 L 236 146 L 221.5 146 L 221 145.5 L 221 82 Z M 236 96 L 236 110 Q 246 111 250 108 L 252 104 L 251 101 Q 247 94 236 96 Z " /><path fill="rgb(1,60,166)" stroke="rgb(1,60,166)" stroke-width="1" opacity="1" d="M 271 82 L 285.5 82 L 286 82.5 L 286 146 L 271.5 146 L 271 145.5 L 271 82 Z " /><path fill="rgb(1,60,166)" stroke="rgb(1,60,166)" stroke-width="1" opacity="1" d="M 150.5 99 Q 159.1 103.9 161 115.5 L 157.5 120 Q 154.5 123 147.5 122 L 142 118.5 L 141 111.5 L 150.5 99 Z " /></svg>