<svg width="359" height="365" version="1.1" xmlns="http://www.w3.org/2000/svg" desc="Created with imagetracer.js version 1.2.6" ><path fill="rgb(219,185,182)" stroke="rgb(219,185,182)" stroke-width="1" opacity="1" d="M 71.5 157 Q 75.5 156.5 76 159.5 L 76 163.5 L 74 169 L 65.5 169 L 65 167.5 Q 67.3 166.3 64.5 165 Q 56.8 163.3 55 167.5 Q 53.3 172.3 57.5 171 L 57.5 172 Q 52.8 172.8 52 169.5 L 52 166.5 L 56.5 162 Q 65 160 67 164.5 Q 66.1 167.5 70.5 166 Q 73.6 164.6 73 159.5 L 71.5 157 Z " /><path fill="rgb(219,185,182)" stroke="rgb(219,185,182)" stroke-width="1" opacity="1" d="M 257.5 157 Q 261.5 156.5 262 159.5 Q 261.6 175.7 252.5 183 Q 246.2 186.9 235 185 Q 234.5 191.8 230.5 196 Q 224.5 197.5 223 194.5 Q 222.2 191.9 225.5 193 L 230 190.5 L 233.5 183 L 249.5 181 L 255 175.5 L 259 165.5 L 259 159.5 L 257.5 157 Z " /><path fill="rgb(219,185,182)" stroke="rgb(219,185,182)" stroke-width="1" opacity="1" d="M 99 160 Q 102.8 158.5 102 161.5 L 98.5 168 L 85.5 168 L 85 169.5 L 83 174 L 85 174.5 L 82.5 175 Q 80 174 81 169.5 L 84.5 165 L 96.5 165 L 99 162.5 L 99 160 Z " /><path fill="rgb(219,185,182)" stroke="rgb(219,185,182)" stroke-width="1" opacity="1" d="M 122.5 160 L 128 162.5 Q 128.3 174.8 121.5 180 L 118 181.5 L 121 183.5 Q 120.5 191.5 116.5 196 L 109 195 Q 107.8 192 111.5 193 L 116 190.5 L 118 184.5 Q 115.3 183.8 116 179.5 L 122 174.5 L 125 168.5 L 125 162.5 L 122.5 160 Z " /><path fill="rgb(219,185,182)" stroke="rgb(219,185,182)" stroke-width="1" opacity="1" d="M 136 160 Q 140.9 158.2 139 164.5 L 135 186 Q 131.5 187.1 133 179.5 L 134 178.5 L 136 160 Z " /><path fill="rgb(219,185,182)" stroke="rgb(219,185,182)" stroke-width="1" opacity="1" d="M 157 160 Q 161.1 158.3 160 162.5 L 137.5 196 Q 129.8 196.8 126 195 L 126.5 192 L 136.5 192 L 157 160 Z " /><path fill="rgb(219,185,182)" stroke="rgb(219,185,182)" stroke-width="1" opacity="1" d="M 168 160 Q 171.7 158.5 171 161.5 L 159 192.5 L 156.5 196 Q 151.3 197.3 150 194.5 Q 149.2 191.9 152.5 193 L 156 190.5 L 168 160 Z " /><path fill="rgb(219,185,182)" stroke="rgb(219,185,182)" stroke-width="1" opacity="1" d="M 192.5 160 L 198 162.5 Q 198.9 170.1 196 173 L 188 173 L 188 168 L 181.5 168 L 179 169 L 173 185.5 L 174.5 188 L 171 187 L 170 182.5 L 176 168.5 L 178.5 166 L 186.5 165 L 189 166 L 190.5 170 Q 194.5 170.5 195 167.5 Q 196.3 162.3 193.5 161 L 192.5 160 Z " /><path fill="rgb(219,185,182)" stroke="rgb(219,185,182)" stroke-width="1" opacity="1" d="M 222 160 Q 226.1 158.3 225 162.5 L 221.5 168 L 209.5 168 L 208 169.5 L 206 173.5 L 209 174.5 L 205.5 175 Q 203.3 174.3 204 170.5 L 207.5 165 L 219.5 165 L 222 162.5 L 222 160 Z " /><path fill="rgb(219,185,182)" stroke="rgb(219,185,182)" stroke-width="1" opacity="1" d="M 284.5 160 L 290 162.5 Q 290.4 175.4 282.5 180 L 280 181.5 L 282 182 L 283 185.5 L 279 196 L 272.5 196 L 271 194.5 Q 270.1 191.5 274.5 193 L 278 190.5 L 280 184.5 L 277 180.5 L 284 174.5 L 287 167.5 L 287 162.5 L 284.5 160 Z " /><path fill="rgb(219,185,182)" stroke="rgb(219,185,182)" stroke-width="1" opacity="1" d="M 313.5 160 Q 319.1 160.5 321 164.5 Q 317.9 181.4 308.5 192 L 299.5 196 L 291.5 196 L 286 192.5 L 285 187.5 L 286 187.5 L 288.5 191 Q 292.3 193.7 300.5 192 Q 307 190.5 310 185.5 L 318 165.5 L 314.5 161 L 313.5 160 Z " /><path fill="rgb(219,185,182)" stroke="rgb(219,185,182)" stroke-width="1" opacity="1" d="M 241.5 163 L 251.5 163 L 253 164.5 L 252.5 167 L 251.5 166 L 243.5 166 L 239 176 L 241 176.5 L 237 177 Q 236 167.5 241.5 163 Z " /><path fill="rgb(219,185,182)" stroke="rgb(219,185,182)" stroke-width="1" opacity="1" d="M 110.5 165 Q 116.6 164.3 119 166 L 120 168.5 L 118.5 169 Q 116.8 166.3 110.5 168 L 106 176.5 L 106.5 178 Q 101.9 179.3 104 173.5 L 108.5 166 L 110.5 165 Z " /><path fill="rgb(219,185,182)" stroke="rgb(219,185,182)" stroke-width="1" opacity="1" d="M 272.5 165 Q 278.6 164.3 281 166 L 282 168.5 L 280 169.5 L 279.5 168 L 272.5 168 L 268 176.5 L 268.5 178 Q 263.9 179.3 266 173.5 L 270.5 166 L 272.5 165 Z " /><path fill="rgb(219,185,182)" stroke="rgb(219,185,182)" stroke-width="1" opacity="1" d="M 302.5 165 Q 309.8 163.8 312 167.5 L 311.5 170 Q 310 166.5 303.5 168 L 300 170.5 Q 296 176.5 295 185.5 L 296.5 188 Q 292.5 188.5 292 185.5 Q 293.1 172.6 300.5 166 L 302.5 165 Z " /><path fill="rgb(219,185,182)" stroke="rgb(219,185,182)" stroke-width="1" opacity="1" d="M 65.5 172 L 71 174.5 Q 70.5 186.5 63.5 192 L 54.5 196 L 44.5 196 L 39 192.5 L 39.5 189 L 40 191 L 50.5 193 L 58.5 191 L 64 186.5 Q 67.5 182 68 174.5 L 65.5 172 Z " /><path fill="rgb(219,185,182)" stroke="rgb(219,185,182)" stroke-width="1" opacity="1" d="M 45.5 174 L 47.5 176 L 59.5 177 L 62 179.5 Q 62.8 181.8 60.5 181 L 59.5 180 L 47.5 179 L 45 176.5 L 45.5 174 Z " /><path fill="rgb(219,185,182)" stroke="rgb(219,185,182)" stroke-width="1" opacity="1" d="M 93 174 Q 96.8 172.5 96 175.5 L 92.5 181 L 80.5 181 L 80 182.5 L 78 187 L 81 187.5 L 77.5 188 Q 75 187 76 182.5 L 79.5 178 Q 83.3 175.3 91.5 177 L 93 175.5 L 93 174 Z " /><path fill="rgb(219,185,182)" stroke="rgb(219,185,182)" stroke-width="1" opacity="1" d="M 216 174 Q 220.1 172.3 219 176.5 L 215.5 181 L 203.5 181 L 203 183.5 L 201 186.5 L 203 187.5 L 200.5 188 Q 198.3 187.3 199 183.5 L 202.5 178 L 216 177 L 216 174 Z " /><path fill="rgb(219,185,182)" stroke="rgb(219,185,182)" stroke-width="1" opacity="1" d="M 46 182 Q 49.8 180.5 49 183.5 L 48 184.5 L 49.5 187 L 46 185.5 L 46 182 Z " /><path fill="rgb(219,185,182)" stroke="rgb(219,185,182)" stroke-width="1" opacity="1" d="M 189 182 Q 192.8 180.5 192 183.5 L 186.5 192 L 178.5 196 L 168.5 196 L 164 192.5 L 163 189 L 165 189 Q 163.9 191.7 166.5 191 L 173.5 193 Q 174.8 190.7 179.5 192 L 187 186.5 L 189 182 Z " /><path fill="rgb(219,185,182)" stroke="rgb(219,185,182)" stroke-width="1" opacity="1" d="M 102.5 183 Q 111 181 113 185.5 Q 113.8 187.8 111.5 187 Q 109.7 184.3 103.5 186 L 98.5 196 L 91 194.5 L 98 190.5 L 102.5 183 Z " /><path fill="rgb(219,185,182)" stroke="rgb(219,185,182)" stroke-width="1" opacity="1" d="M 263.5 183 L 272.5 183 L 274 184.5 L 273.5 187 Q 271.7 184.3 265.5 186 L 261 196 L 253 194.5 L 260 190.5 L 263.5 183 Z " /><path fill="rgb(219,185,182)" stroke="rgb(219,185,182)" stroke-width="1" opacity="1" d="M 89 187 Q 92.3 185.7 91 190.5 L 89 196 L 67.5 196 L 67 193 L 71.5 192 L 87 192 L 89 187 Z " /><path fill="rgb(219,185,182)" stroke="rgb(219,185,182)" stroke-width="1" opacity="1" d="M 212 187 Q 215.7 185.5 215 188.5 L 212 196 L 194.5 196 L 190 195 Q 188.7 191.7 193.5 193 L 194.5 192 L 209.5 192 L 212 189.5 L 212 187 Z " /><path fill="rgb(219,185,182)" stroke="rgb(219,185,182)" stroke-width="1" opacity="1" d="M 38.5 201 L 302.5 201 L 303.5 202 L 314.5 203 L 321 208.5 L 321 212.5 L 315.5 218 Q 307.3 223.3 295.5 225 L 296.5 223 Q 304.4 220.9 308 214.5 L 309 211.5 L 304.5 206 L 300.5 204 L 290.5 203 L 293 206.5 L 294 209.5 L 288.5 216 L 276.5 222 L 258.5 227 L 243.5 227 L 242 223.5 L 243 220.5 L 240.5 218 L 230.5 214 L 219.5 212 L 211.5 212 L 210.5 211 L 202.5 211 L 201.5 210 L 182.5 209 L 181.5 208 L 142.5 206 L 141.5 205 L 125.5 205 L 124.5 204 L 44.5 203 L 43.5 202 L 39.5 203 L 38.5 201 Z " /><path fill="rgb(219,185,182)" stroke="rgb(219,185,182)" stroke-width="1" opacity="1" d="M 0.5 364 L 359 364.5 L 0.5 365 L 0.5 364 Z " /><path fill="rgb(254,254,254)" stroke="rgb(254,254,254)" stroke-width="1" opacity="1" d="M 55.5 156 L 73 156.5 L 71 157.5 Q 73.8 158.3 73 162.5 L 70.5 166 Q 66.1 167.5 67 164.5 Q 65 160 56.5 162 L 52 166.5 L 52 169.5 Q 52.8 172.8 57.5 172 L 57.5 171 L 55 170.5 L 58.5 170 L 67 171.5 L 65 172.5 L 68 174.5 Q 67.3 185.3 60.5 190 Q 55.1 193.1 46.5 193 L 40 191 L 39.5 189 L 39 192.5 L 39.5 194 Q 36.5 192.5 38 186.5 L 40.5 182 Q 47.8 179.4 46 185.5 L 49.5 187 Q 51 184.5 56.5 186 L 59 183.5 L 60.5 181 Q 62.8 181.8 62 179.5 L 59.5 177 L 47.5 176 L 45.5 174 L 45 176.5 L 46.5 179 Q 42.5 177.5 44 170.5 Q 46.3 162.8 51.5 158 L 55.5 156 Z " /><path fill="rgb(254,254,254)" stroke="rgb(254,254,254)" stroke-width="1" opacity="1" d="M 237.5 156 L 259 156.5 L 257 157.5 Q 260.5 159 259 165.5 Q 256.9 175.9 249.5 181 Q 244.4 183.4 235.5 182 L 232 184.5 L 228.5 192 L 223 193 L 224 195.5 L 222 196 L 222 192.5 L 235 159.5 L 237.5 156 Z M 242 163 Q 236 168 237 177 L 241 177 L 239 176 L 240 174 Q 241 177 248 175 Q 252 173 251 167 L 253 167 L 253 165 L 252 163 L 242 163 Z " /><path fill="rgb(254,254,254)" stroke="rgb(254,254,254)" stroke-width="1" opacity="1" d="M 322.5 156 L 326 157.5 Q 327.8 162.8 322.5 161 L 321 157.5 L 322.5 156 Z " /><path fill="rgb(254,254,254)" stroke="rgb(254,254,254)" stroke-width="1" opacity="1" d="M 260.5 157 L 261.5 159 L 260.5 157 Z " /><path fill="rgb(254,254,254)" stroke="rgb(254,254,254)" stroke-width="1" opacity="1" d="M 80.5 159 L 102.5 159 L 103 160.5 L 104 160.5 L 104.5 159 L 123.5 159 L 129 162.5 L 129.5 166 L 130 159 L 139.5 159 L 140 160.5 L 138.5 160 Q 134.3 158.7 136 163.5 L 135 164.5 L 133 186 L 135 186 Q 133.9 183.3 136.5 184 L 152 159 L 160.5 159 L 161 161.5 L 162 161.5 L 163.5 159 L 171.5 159 L 172 160.5 L 170.5 160 Q 167.2 158.9 168 161.5 L 166 163.5 L 158 186.5 L 154.5 192 L 150 193 L 151 195.5 L 149 196 L 161 162.5 L 160 160 Q 156.2 158.5 157 161.5 L 136.5 192 L 126.5 192 L 126 195 L 129 195.5 L 125 196 L 128 171.5 L 127 169.5 L 128 169.5 L 128.5 171 L 129 167.5 L 126.5 161 L 124 161.5 Q 126.5 163 125 168.5 L 118.5 178 L 116 179.5 Q 115.4 184.1 118 185.5 L 114.5 192 L 109.5 193 L 110 191.5 L 111 187 Q 113.7 188.1 113 185.5 Q 111 181 102.5 183 L 96.5 192 L 91.5 194 L 90 191.5 L 92 191.5 L 101 166.5 L 100.5 165 L 102 165.5 L 103 161.5 L 99 160 Q 99.8 163.8 96.5 165 L 84.5 165 L 82 167.5 L 81 173.5 L 84.5 175 L 84.5 174 Q 82.3 174.8 83 172.5 L 84.5 173 L 96.5 173 L 97 174.5 L 95.5 174 Q 92.2 172.9 93 175.5 L 91.5 177 L 81.5 177 L 77 180.5 L 76 186.5 Q 76.8 188.8 80.5 188 L 80.5 187 Q 77.2 188.1 78 185.5 L 79.5 186 L 91.5 186 L 92 188.5 L 91 188.5 Q 91.7 185.9 89 187 L 87 192 L 71.5 192 L 67 193 L 66.5 196 L 66 193.5 L 69 185.5 L 68.5 184 L 70 184.5 L 69 182.5 L 71 182.5 L 70 179.5 L 72 179.5 L 78 162.5 L 80.5 159 Z M 111 165 L 109 166 L 104 174 Q 102 179 107 178 L 107 176 Q 108 179 114 177 L 118 169 L 111 169 L 110 170 L 111 168 Q 117 166 119 169 L 120 169 L 119 166 Q 117 164 111 165 Z " /><path fill="rgb(254,254,254)" stroke="rgb(254,254,254)" stroke-width="1" opacity="1" d="M 183.5 159 L 194 159.5 L 192 160.5 L 195 162.5 Q 196.3 168.8 192.5 170 L 189 168.5 Q 190.1 165.2 187.5 166 Q 186 163.5 180.5 165 L 176 168.5 L 170 184.5 L 171 187 L 174.5 188 L 173.5 185 Q 175 187.5 180.5 186 L 183 181 L 192.5 181 L 193 182.5 L 191.5 182 Q 188.2 180.9 189 183.5 L 183.5 190 L 179.5 192 L 172.5 193 L 165 191 Q 166 188 163 189 L 163 185.5 L 171 166.5 L 176.5 161 L 183.5 159 Z " /><path fill="rgb(254,254,254)" stroke="rgb(254,254,254)" stroke-width="1" opacity="1" d="M 203 159 L 225.5 159 L 226 161.5 L 225 161.5 Q 225.7 158.5 222 160 Q 222.8 163.8 219.5 165 L 207.5 165 L 206 166.5 L 204 173.5 Q 204.8 175.8 208.5 175 L 208.5 174 L 206 173.5 L 220 173 L 219.5 175 L 216 174 L 215.5 177 L 205.5 177 L 201 179.5 L 199 186.5 L 202.5 188 L 202.5 187 L 201 186.5 L 216 186 L 215.5 188 L 212 187 Q 212.8 190.8 209.5 192 Q 198 190.5 190.5 193 L 191 191.5 L 203 159 Z " /><path fill="rgb(254,254,254)" stroke="rgb(254,254,254)" stroke-width="1" opacity="1" d="M 266 159 L 285.5 159 L 288 160.5 L 286 161.5 Q 288.3 162.8 287 167.5 L 281.5 177 L 277 180.5 L 280 184.5 L 276.5 192 L 271 193 L 272 195.5 L 270 196 L 273 187.5 L 272.5 186 L 274 186.5 L 272.5 183 L 263.5 183 L 262 184.5 L 258.5 192 L 253 194.5 L 257 195.5 L 252 196 L 259 176.5 L 258.5 175 L 260 175.5 L 261 171.5 L 260.5 170 L 262 170.5 L 266 159 Z M 273 165 L 271 166 L 266 174 Q 264 179 269 178 L 269 176 Q 270 179 276 177 L 282 169 L 281 166 Q 279 164 273 165 Z " /><path fill="rgb(254,254,254)" stroke="rgb(254,254,254)" stroke-width="1" opacity="1" d="M 304.5 159 Q 313.4 157.1 317 160.5 L 315 161.5 L 318 165.5 L 310 185.5 L 305.5 190 Q 300.4 193.4 290.5 192 L 286 188.5 L 285.5 187 L 285 190.5 L 285.5 192 Q 283 191 284 186.5 L 288 175.5 L 287.5 174 L 289 174.5 L 288 172.5 L 290 172.5 L 295.5 163 L 304.5 159 Z M 303 165 L 301 166 Q 293 173 292 186 Q 293 189 297 188 L 296 187 L 303 186 L 305 184 L 310 172 Q 311 168 309 169 L 309 168 L 312 170 L 312 168 Q 310 164 303 165 Z " /><path fill="rgb(254,254,254)" stroke="rgb(254,254,254)" stroke-width="1" opacity="1" d="M 262.5 160 L 263 163.5 L 262 163.5 L 262.5 160 Z " /><path fill="rgb(254,254,254)" stroke="rgb(254,254,254)" stroke-width="1" opacity="1" d="M 318.5 161 L 320.5 164 L 318.5 161 Z " /><path fill="rgb(254,254,254)" stroke="rgb(254,254,254)" stroke-width="1" opacity="1" d="M 198.5 163 L 199 166.5 L 198 166.5 L 198.5 163 Z " /><path fill="rgb(254,254,254)" stroke="rgb(254,254,254)" stroke-width="1" opacity="1" d="M 290.5 163 L 291 166.5 L 290 166.5 L 290.5 163 Z " /><path fill="rgb(254,254,254)" stroke="rgb(254,254,254)" stroke-width="1" opacity="1" d="M 138.5 165 L 139 167.5 L 138 167.5 L 138.5 165 Z " /><path fill="rgb(254,254,254)" stroke="rgb(254,254,254)" stroke-width="1" opacity="1" d="M 65.5 166 L 65 167.5 L 64.5 169 L 64 167.5 L 65.5 166 Z " /><path fill="rgb(254,254,254)" stroke="rgb(254,254,254)" stroke-width="1" opacity="1" d="M 272.5 168 L 280 168.5 L 271.5 170 L 272.5 168 Z " /><path fill="rgb(254,254,254)" stroke="rgb(254,254,254)" stroke-width="1" opacity="1" d="M 320.5 168 L 321 169.5 L 319 170.5 L 320.5 168 Z " /><path fill="rgb(254,254,254)" stroke="rgb(254,254,254)" stroke-width="1" opacity="1" d="M 155.5 169 L 154.5 171 L 155.5 169 Z " /><path fill="rgb(254,254,254)" stroke="rgb(254,254,254)" stroke-width="1" opacity="1" d="M 187.5 170 L 188 172.5 L 187 172.5 L 187.5 170 Z " /><path fill="rgb(254,254,254)" stroke="rgb(254,254,254)" stroke-width="1" opacity="1" d="M 285.5 177 L 283.5 180 L 285.5 177 Z " /><path fill="rgb(254,254,254)" stroke="rgb(254,254,254)" stroke-width="1" opacity="1" d="M 50.5 179 L 53 179.5 L 50.5 180 L 50.5 179 Z " /><path fill="rgb(254,254,254)" stroke="rgb(254,254,254)" stroke-width="1" opacity="1" d="M 136.5 179 L 137 181.5 L 136 181.5 L 136.5 179 Z " /><path fill="rgb(254,254,254)" stroke="rgb(254,254,254)" stroke-width="1" opacity="1" d="M 217.5 179 L 216.5 181 L 217.5 179 Z " /><path fill="rgb(254,254,254)" stroke="rgb(254,254,254)" stroke-width="1" opacity="1" d="M 281.5 180 L 280.5 182 L 281.5 180 Z " /><path fill="rgb(254,254,254)" stroke="rgb(254,254,254)" stroke-width="1" opacity="1" d="M 48.5 181 L 49.5 183 L 48.5 181 Z " /><path fill="rgb(254,254,254)" stroke="rgb(254,254,254)" stroke-width="1" opacity="1" d="M 146.5 183 L 145.5 185 L 146.5 183 Z " /><path fill="rgb(254,254,254)" stroke="rgb(254,254,254)" stroke-width="1" opacity="1" d="M 235.5 185 L 241 185.5 L 235.5 186 L 235.5 185 Z " /><path fill="rgb(254,254,254)" stroke="rgb(254,254,254)" stroke-width="1" opacity="1" d="M 41.5 194 L 44 195.5 L 42.5 196 L 41.5 194 Z " /><path fill="rgb(254,254,254)" stroke="rgb(254,254,254)" stroke-width="1" opacity="1" d="M 57.5 194 L 59 194.5 L 55.5 196 L 55.5 195 L 57.5 194 Z " /><path fill="rgb(254,254,254)" stroke="rgb(254,254,254)" stroke-width="1" opacity="1" d="M 108.5 194 L 113 195.5 L 108 196 L 108.5 194 Z " /><path fill="rgb(254,254,254)" stroke="rgb(254,254,254)" stroke-width="1" opacity="1" d="M 166.5 194 L 167.5 196 L 166.5 194 Z " /><path fill="rgb(254,254,254)" stroke="rgb(254,254,254)" stroke-width="1" opacity="1" d="M 181.5 194 L 180.5 196 L 179 195.5 L 181.5 194 Z " /><path fill="rgb(254,254,254)" stroke="rgb(254,254,254)" stroke-width="1" opacity="1" d="M 189.5 194 L 194 195.5 L 189 196 L 189.5 194 Z " /><path fill="rgb(254,254,254)" stroke="rgb(254,254,254)" stroke-width="1" opacity="1" d="M 288.5 194 L 291 195.5 L 289.5 196 L 288.5 194 Z " /><path fill="rgb(254,254,254)" stroke="rgb(254,254,254)" stroke-width="1" opacity="1" d="M 91.5 195 L 97 195.5 L 91.5 196 L 91.5 195 Z " /><path fill="rgb(254,254,254)" stroke="rgb(254,254,254)" stroke-width="1" opacity="1" d="M 96.5 203 L 102 203.5 L 96.5 204 L 96.5 203 Z " /><path fill="rgb(254,254,254)" stroke="rgb(254,254,254)" stroke-width="1" opacity="1" d="M 293 203 L 295.5 203 L 300 206.5 L 297.5 207 L 293 205 L 293 203 Z " /><path fill="rgb(254,254,254)" stroke="rgb(254,254,254)" stroke-width="1" opacity="1" d="M 121.5 204 L 125 204.5 L 121.5 205 L 121.5 204 Z " /><path fill="rgb(254,254,254)" stroke="rgb(254,254,254)" stroke-width="1" opacity="1" d="M 139.5 205 L 142 205.5 L 139.5 206 L 139.5 205 Z " /><path fill="rgb(254,254,254)" stroke="rgb(254,254,254)" stroke-width="1" opacity="1" d="M 154.5 206 L 157 206.5 L 154.5 207 L 154.5 206 Z " /><path fill="rgb(254,254,254)" stroke="rgb(254,254,254)" stroke-width="1" opacity="1" d="M 299.5 208 Q 304.1 206.7 302 212.5 L 297 216 L 300 209.5 L 299.5 208 Z " /><path fill="rgb(254,254,254)" stroke="rgb(254,254,254)" stroke-width="1" opacity="1" d="M 294.5 217 Q 297.1 216.3 296 219 L 286.5 224 L 278.5 225 L 278.5 224 L 283.5 223 L 294.5 217 Z " /><path fill="rgb(254,254,254)" stroke="rgb(254,254,254)" stroke-width="1" opacity="1" d="M 242.5 220 L 243 222.5 L 242 222.5 L 242.5 220 Z " /><path fill="rgb(254,254,254)" stroke="rgb(254,254,254)" stroke-width="1" opacity="1" d="M 295.5 223 L 295.5 226 Q 293.3 226.8 294 224.5 L 295.5 223 Z " /><path fill="rgb(255,255,255)" stroke="rgb(255,255,255)" stroke-width="1" opacity="1" d="M 0 0 L 359 0 L 359 364 L 0 364 L 0 0 Z M 56 156 L 52 158 Q 44 164 44 177 Q 49 182 60 180 L 57 186 L 50 186 L 49 184 Q 51 182 49 181 Q 47 184 41 182 Q 37 185 38 193 L 43 196 L 57 196 L 63 193 Q 71 188 71 175 L 67 171 L 55 170 L 56 166 Q 59 164 65 165 L 64 168 L 65 169 L 74 169 L 76 165 Q 77 159 75 157 L 73 156 L 56 156 Z M 238 156 L 235 160 L 222 193 L 222 196 L 232 196 L 235 186 L 252 184 Q 261 177 263 164 L 262 159 L 259 156 L 238 156 Z M 323 156 L 321 158 L 323 161 Q 328 163 326 158 L 323 156 Z M 81 159 L 78 163 L 66 194 L 67 196 L 89 196 L 92 189 L 92 186 L 79 186 L 80 184 L 81 181 L 94 181 L 97 175 L 97 173 L 84 173 L 85 170 L 87 168 L 100 168 L 103 161 L 103 159 L 81 159 Z M 104 159 L 91 193 L 91 196 L 100 196 L 103 188 L 104 186 L 111 186 L 108 195 L 109 196 L 118 196 L 121 188 L 121 182 L 119 182 L 121 181 Q 127 177 128 168 L 129 168 L 126 192 L 125 193 L 126 196 L 139 196 L 161 162 L 161 159 L 152 159 L 138 183 L 136 184 L 140 161 L 140 159 L 130 159 L 130 166 L 129 163 L 124 159 L 104 159 Z M 164 159 L 160 165 L 149 194 L 150 196 L 158 196 L 167 171 L 172 161 L 172 159 L 164 159 Z M 184 159 L 177 161 L 171 167 L 163 186 Q 162 194 168 196 L 181 196 L 186 193 L 193 183 L 193 181 L 183 181 L 181 186 Q 174 187 173 185 L 178 172 L 184 168 L 188 169 L 187 171 L 188 173 L 196 173 L 199 167 L 198 161 Q 194 158 184 159 Z M 203 159 L 189 195 L 190 196 L 213 196 L 216 186 L 202 186 L 203 183 L 205 181 L 217 181 L 220 173 L 207 173 L 209 170 L 210 168 L 223 168 L 226 162 L 226 159 L 203 159 Z M 266 159 L 252 195 L 253 196 L 262 196 L 265 186 L 272 186 L 273 188 L 270 194 L 271 196 L 279 196 L 283 188 Q 284 183 281 182 L 284 180 Q 290 175 291 164 L 286 159 L 266 159 Z M 305 159 L 296 163 Q 288 173 284 187 L 284 191 L 286 194 L 290 196 Q 302 198 308 193 Q 313 189 316 182 L 319 172 L 321 170 L 321 164 Q 317 157 305 159 Z M 38 201 L 38 203 L 96 203 L 97 204 L 121 204 L 122 205 L 139 205 L 140 206 L 168 207 L 169 208 L 180 208 L 181 209 L 218 212 L 234 215 L 241 218 Q 244 220 242 226 L 244 227 L 260 227 L 268 225 L 286 218 L 294 211 Q 295 206 292 206 Q 293 203 291 204 L 291 203 Q 294 202 293 205 L 298 207 L 300 207 L 298 205 L 298 204 L 305 206 Q 309 207 308 215 Q 304 221 296 223 L 294 226 L 315 219 L 321 213 L 321 207 L 315 203 L 305 201 L 38 201 Z M 300 208 L 300 210 L 297 216 L 302 213 Q 304 207 300 208 Z M 295 217 L 284 223 L 279 224 L 279 225 L 287 224 L 296 219 Q 297 216 295 217 Z " /><path fill="rgb(255,255,255)" stroke="rgb(255,255,255)" stroke-width="1" opacity="1" d="M 243 166 L 251 166 L 251 169.5 L 247.5 175 L 240.5 175 L 240 173.5 L 243 166 Z " /><path fill="rgb(255,255,255)" stroke="rgb(255,255,255)" stroke-width="1" opacity="1" d="M 305.5 168 L 310 169 Q 308.9 179.6 302.5 186 L 295.5 186 L 295 183.5 L 301.5 169 L 305.5 168 Z " /><path fill="rgb(255,255,255)" stroke="rgb(255,255,255)" stroke-width="1" opacity="1" d="M 110.5 169 L 117.5 169 L 118 170.5 L 113.5 177 Q 106.5 178.5 107 175.5 L 110.5 169 Z " /><path fill="rgb(255,255,255)" stroke="rgb(255,255,255)" stroke-width="1" opacity="1" d="M 272.5 169 L 279.5 169 L 280 170.5 L 275.5 177 Q 268.5 178.5 269 175.5 L 272.5 169 Z " /></svg>