<?xml version="1.0" encoding="UTF-8"?>
<svg id="Layer_1" data-name="Layer 1" xmlns="http://www.w3.org/2000/svg" viewBox="0 0 488.71 362.28">
  <defs>
    <style>
      .cls-1 {
        fill: #ef3e42;
      }

      .cls-2 {
        fill: #004785;
      }

      .cls-3 {
        fill: #ffdf00;
      }
    </style>
  </defs>
  <g>
    <path class="cls-3" d="M85.45,313.37v.12l13.37,3.19-37.49,43.24,4.32-14.87c1.39-4.82-1.19-6.47-5.11-6.6l.28-.66c5.56-1.05,11-5.02,13.7-11.29,4.53-10.56-1.28-13.13-12.46-13.13H18.11v.12l13.38,3.19-19.04,44.34h17.25l7.43-17.3h5.22c5.9,0,6.3.79,4.57,6.67l-3.14,10.63h33.52l6.58-7.92h21.16l-.4,7.92h19.01l-.42-47.66h-37.77ZM56.69,328.68c-1.93,4.49-5.33,5.81-9.02,5.81h-6.58l4.93-11.49h6.3c4.2,0,6.18,1.45,4.37,5.68ZM105.48,342.67h-12.99l13.78-16.64-.79,16.64Z"/>
    <path class="cls-3" d="M162.52,342.87c-2.81,6.14-6.58,8.98-11.8,8.98-6.69,0-6.07-6.73-2.67-14.65,3.4-7.92,8.56-14.65,15.26-14.65,4.65,0,5.67,2.64,3.6,8.51h17.59c2.95-7,3.34-9.9,2.01-12.74-1.87-3.96-8.06-6.2-18.33-6.2-22.92,0-33.21,13.79-38.06,25.08-6.55,15.25-4.02,25.08,16.52,25.08,8.8,0,17.81-2.24,24.62-7.39,4.71-3.57,6.89-7.72,8.85-12.02h-17.59Z"/>
    <polygon class="cls-3" points="176.22 361.02 215.71 361.02 220.02 350.99 197.21 350.99 200.98 342.21 222.14 342.21 226.45 332.17 205.29 332.17 209.06 323.4 231.63 323.4 235.94 313.37 196.68 313.37 176.22 361.02"/>
    <polygon class="cls-3" points="246.54 313.37 246.54 313.49 259.87 316.68 240.88 361.02 258.13 361.02 265.73 343.33 285.13 343.33 289.43 333.3 270.03 333.3 274.28 323.4 294.71 323.4 299.02 313.37 246.54 313.37"/>
    <path class="cls-3" d="M350.91,313.37h-16.34l-11.22,26.14c-3.91,9.11-7.85,11.95-13.08,11.95s-6.72-2.84-2.81-11.95l11.22-26.14h-16.68l-11.96,27.85c-3.23,7.53-3.34,10.69-2.07,13.93,1.99,5.02,8.23,7.13,17.48,7.13s17.3-2.11,23.6-7.13c4.05-3.23,6.66-6.4,9.89-13.93l11.96-27.85Z"/>
    <polygon class="cls-3" points="361.1 342.21 382.27 342.21 386.58 332.17 365.41 332.17 369.18 323.4 391.76 323.4 396.07 313.37 356.81 313.37 336.35 361.02 375.84 361.02 380.14 350.99 357.34 350.99 361.1 342.21"/>
    <polygon class="cls-3" points="418.3 313.37 401.05 313.37 380.59 361.02 416.73 361.02 421.72 349.4 402.83 349.4 418.3 313.37"/>
    <path class="cls-3" d="M479.94,327.55c4-9.84,1.13-15.45-16.29-15.45-16.4,0-26.63,4.69-31.11,15.12-1.16,2.71-1.93,6.07-.68,8.32,3.09,5.61,21.7,7.86,22.72,10.89.2.59.17,1.32-.2,2.18-1.64,3.83-5.92,4.82-9.5,4.82-2.27,0-3.51-.66-4.11-1.91-.54-1.26-.17-3.17.9-5.81h-17.59c-3.45,8.85-5.7,16.57,16.54,16.57,18.67,0,28.42-6.07,32.47-15.51,1.98-4.62,1.45-7.2.56-8.85-3.01-5.68-21.05-7.79-22.44-10.76-.28-.53-.12-1.45.2-2.18,1.05-2.44,3.66-4.03,7.29-4.03,2.16,0,3.72.33,4.48,1.32.82.99.85,2.64-.17,5.28h16.91Z"/>
  </g>
  <g>
    <g>
      <g>
        <polygon class="cls-2" points="111.06 93.81 123.92 103.45 132.25 99.81 167.47 84.73 175.85 81.15 140.43 54.75 140.86 46.08 78.68 0 75.32 36.32 41.48 49.9 103.48 95.87 111.06 93.81"/>
        <polygon class="cls-2" points="378.7 231.49 355.33 214.23 346.94 217.8 311.69 232.87 303.3 236.45 349.6 270.75 339.3 284.65 434.48 302.55 389.57 216.81 378.7 231.49"/>
      </g>
      <g>
        <polygon class="cls-1" points="380.33 242.54 346.94 217.8 311.69 232.87 360.64 269.12 353.15 279.23 419.93 291.78 388.42 231.63 380.33 242.54"/>
        <polygon class="cls-1" points="112.69 85.19 132.25 99.81 167.47 84.73 132.33 58.57 132.77 49.9 85.25 14.7 82.74 41.86 57.53 51.97 105.11 87.24 112.69 85.19"/>
      </g>
      <path class="cls-2" d="M303.3,236.45l8.39-3.58,35.24-15.05,8.4-3.59,10.71-4.58h47.48c7.52,0,17.19-4.55,21.12-13.24,0,0,6.11-13.52,8.96-19.83l45.1-19.34-30.75-12.91,3.23-7.15c3.04-6.72,2.66-13.85-1.02-19.55-4.05-6.27-11.53-10.01-20.02-10.01h-68.12l-130.25-54.7-65.93,28.23-8.37,3.59-35.22,15.08-8.33,3.63-9.56,4.17h-40.64c-7.41,0-17.2,4.19-21.18,13.39,0,0-5.17,11.97-7.14,16.53L0,157.11l30.89,14.04c-1.39,3.23-2.66,6.21-2.67,6.22-3.46,8.14-3.04,16.15,1.2,22.55,4.03,6.09,11.03,9.73,18.73,9.73h71.37l122.08,53.15,61.71-26.35Z"/>
      <path class="cls-3" d="M260.13,116.57l.5-1.27,90.09-6.9-108.89-45.73-125.62,53.92h-42.48c-4.59,0-10.69,2.77-12.94,7.97l-8.56,19.8-30.05,12.96,20.44,9.29-6.12,14.26c-5.02,11.8,2.67,19.8,11.67,19.8h178.5l-.51,1.26-85.56,7.1,101.06,44,122.58-52.35h49.32c4.59,0,10.65-2.9,12.94-7.96l10.4-23.01,28.86-12.38-19.75-8.29s2.14-4.73,7.02-15.55c4.25-9.4-2.88-16.89-12.86-16.89l-180.03-.02Z"/>
      <path class="cls-2" d="M203.6,161.21l5.84,31.07h19.91l27.77-66.78h-35.43l13.76,3.26-11.79,28.4-5.38-31.65h-20.84l-27.87,66.78h21.06l12.97-31.07ZM372.98,125.47h-32.49c-5.35,0-11.27,1.63-13.66,7.35l-21.02,50.51c-2.03,4.87.2,8.97,5.7,8.97h34.35c4.54,0,9.79-2.56,11.42-6.46l7.3-17.53h-20.7l-4.2,10.07h-11.06l15.96-38.23h11.04l-2.84,6.82h20.69l5.23-12.55c2.07-4.85-.23-8.95-5.7-8.95ZM277.9,125.47c-5.35,0-11.27,1.63-13.66,7.35l-21.02,50.51c-2.03,4.87.2,8.97,5.7,8.97h34.35c4.54,0,9.79-2.56,11.42-6.46l21.41-51.42c2.07-4.85-.23-8.95-5.7-8.95h-32.49ZM277.08,178.38h-11.06l15.96-38.23h11.05l-15.94,38.23ZM403.16,125.47c-5.35,0-11.27,1.63-13.66,7.35l-21.02,50.51c-2.03,4.87.2,8.97,5.7,8.97h34.35c4.54,0,9.79-2.56,11.42-6.46l21.41-51.42c2.07-4.85-.23-8.95-5.7-8.95h-32.49ZM402.34,178.38h-11.06l15.96-38.23h11.04l-15.94,38.23ZM82.28,150.75l4.49-10.61h11.14l-2.85,6.82h20.72l5.27-12.54c2.06-5.34-.38-8.95-5.54-8.95h-32.84c-7.22,0-11.48,2.56-13.66,7.35l-8.33,19.98c-1.5,3.85-.24,7.55,3.44,8.73l21.68,7.02-3.94,9.85h-11.06l3.18-7.62h-20.8l-5.19,12.55c-2.41,6.34,1.56,8.97,5.7,8.97h33.9c4.96,0,10.36-2.86,11.74-6.16l8.28-19.74c1.61-3.81,0-7.58-3.62-8.78l-21.71-6.86ZM116.39,192.29c-5.71,0-7.66-4.31-5.7-8.97,1.62-3.85,24.14-57.81,24.14-57.81h20.8l-22.06,52.85h10.98l22.06-52.85h20.76s-24.22,57.67-25.22,60.33c-1.24,3.32-6.53,6.46-11.76,6.46h-34Z"/>
    </g>
    <path class="cls-2" d="M370.64,217.96c0-2.67,2.02-4.69,4.6-4.69s4.57,2.02,4.57,4.69-2.02,4.72-4.57,4.72-4.6-2-4.6-4.72ZM375.24,223.62c3.08,0,5.71-2.39,5.71-5.66s-2.63-5.63-5.71-5.63-5.74,2.39-5.74,5.63,2.63,5.66,5.74,5.66ZM374.05,218.41h1.14l1.72,2.83h1.11l-1.85-2.87c.96-.12,1.69-.63,1.69-1.79,0-1.28-.76-1.85-2.3-1.85h-2.48v6.51h.99v-2.83ZM374.05,217.57v-2.02h1.34c.69,0,1.42.15,1.42.96,0,1-.75,1.06-1.58,1.06h-1.18Z"/>
  </g>
</svg>